<?xml version="1.0" encoding="UTF-8"?>
<svg width="720px" height="720px" viewBox="0 0 720 720" version="1.1" xmlns="http://www.w3.org/2000/svg" xmlns:xlink="http://www.w3.org/1999/xlink">
    <!-- Generator: Sketch 54.1 (76490) - https://sketchapp.com -->
    <title>Group</title>
    <desc>Created with Sketch.</desc>
    <g id="Bowser" stroke="none" stroke-width="1" fill="none" fill-rule="evenodd">
        <g id="Group">
            <rect id="Rectangle" x="0" y="0" width="40" height="40"></rect>
            <rect id="Rectangle" x="40" y="0" width="40" height="40"></rect>
            <rect id="Rectangle" x="80" y="0" width="40" height="40"></rect>
            <rect id="Rectangle" x="120" y="0" width="40" height="40"></rect>
            <rect id="Rectangle" x="160" y="0" width="40" height="40"></rect>
            <rect id="Rectangle" x="200" y="0" width="40" height="40"></rect>
            <rect id="Rectangle" x="240" y="0" width="40" height="40"></rect>
            <rect id="Rectangle" x="280" y="0" width="40" height="40"></rect>
            <rect id="Rectangle" x="320" y="0" width="40" height="40"></rect>
            <rect id="Rectangle" fill="#E9311F" x="360" y="0" width="40" height="40"></rect>
            <rect id="Rectangle" x="400" y="0" width="40" height="40"></rect>
            <rect id="Rectangle" fill="#E9311F" x="440" y="0" width="40" height="40"></rect>
            <rect id="Rectangle" fill="#E9311F" x="480" y="0" width="40" height="40"></rect>
            <rect id="Rectangle" x="520" y="0" width="40" height="40"></rect>
            <rect id="Rectangle" x="560" y="0" width="40" height="40"></rect>
            <rect id="Rectangle" x="600" y="0" width="40" height="40"></rect>
            <rect id="Rectangle" x="640" y="0" width="40" height="40"></rect>
            <rect id="Rectangle" x="680" y="0" width="40" height="40"></rect>
            <rect id="Rectangle" x="0" y="40" width="40" height="40"></rect>
            <rect id="Rectangle" x="40" y="40" width="40" height="40"></rect>
            <rect id="Rectangle" x="80" y="40" width="40" height="40"></rect>
            <rect id="Rectangle" x="120" y="40" width="40" height="40"></rect>
            <rect id="Rectangle" x="160" y="40" width="40" height="40"></rect>
            <rect id="Rectangle" x="200" y="40" width="40" height="40"></rect>
            <rect id="Rectangle" x="240" y="40" width="40" height="40"></rect>
            <rect id="Rectangle" fill="#E9311F" x="280" y="40" width="40" height="40"></rect>
            <rect id="Rectangle" fill="#870000" x="320" y="40" width="40" height="40"></rect>
            <rect id="Rectangle" fill="#870000" x="360" y="40" width="40" height="40"></rect>
            <rect id="Rectangle" fill="#E9311F" x="400" y="40" width="40" height="40"></rect>
            <rect id="Rectangle" fill="#870000" x="440" y="40" width="40" height="40"></rect>
            <rect id="Rectangle" fill="#E9311F" x="480" y="40" width="40" height="40"></rect>
            <rect id="Rectangle" fill="#E9311F" x="520" y="40" width="40" height="40"></rect>
            <rect id="Rectangle" x="560" y="40" width="40" height="40"></rect>
            <rect id="Rectangle" x="600" y="40" width="40" height="40"></rect>
            <rect id="Rectangle" x="640" y="40" width="40" height="40"></rect>
            <rect id="Rectangle" x="680" y="40" width="40" height="40"></rect>
            <rect id="Rectangle" x="0" y="80" width="40" height="40"></rect>
            <rect id="Rectangle" x="40" y="80" width="40" height="40"></rect>
            <rect id="Rectangle" x="80" y="80" width="40" height="40"></rect>
            <rect id="Rectangle" x="120" y="80" width="40" height="40"></rect>
            <rect id="Rectangle" x="160" y="80" width="40" height="40"></rect>
            <rect id="Rectangle" fill="currentColor" x="200" y="80" width="40" height="40"></rect>
            <rect id="Rectangle" x="240" y="80" width="40" height="40"></rect>
            <rect id="Rectangle" x="280" y="80" width="40" height="40"></rect>
            <rect id="Rectangle" fill="#E9311F" x="320" y="80" width="40" height="40"></rect>
            <rect id="Rectangle" fill="currentColor" x="360" y="80" width="40" height="40"></rect>
            <rect id="Rectangle" fill="#870000" x="400" y="80" width="40" height="40"></rect>
            <rect id="Rectangle" fill="#E9311F" x="440" y="80" width="40" height="40"></rect>
            <rect id="Rectangle" fill="#870000" x="480" y="80" width="40" height="40"></rect>
            <rect id="Rectangle" fill="#E9311F" x="520" y="80" width="40" height="40"></rect>
            <rect id="Rectangle" x="560" y="80" width="40" height="40"></rect>
            <rect id="Rectangle" x="600" y="80" width="40" height="40"></rect>
            <rect id="Rectangle" x="640" y="80" width="40" height="40"></rect>
            <rect id="Rectangle" x="680" y="80" width="40" height="40"></rect>
            <rect id="Rectangle" x="0" y="120" width="40" height="40"></rect>
            <rect id="Rectangle" x="40" y="120" width="40" height="40"></rect>
            <rect id="Rectangle" x="80" y="120" width="40" height="40"></rect>
            <rect id="Rectangle" x="120" y="120" width="40" height="40"></rect>
            <rect id="Rectangle" x="160" y="120" width="40" height="40"></rect>
            <rect id="Rectangle" fill="currentColor" x="200" y="120" width="40" height="40"></rect>
            <rect id="Rectangle" fill="currentColor" x="240" y="120" width="40" height="40"></rect>
            <rect id="Rectangle" fill="#009D00" x="280" y="120" width="40" height="40"></rect>
            <rect id="Rectangle" fill="#E9311F" x="320" y="120" width="40" height="40"></rect>
            <rect id="Rectangle" fill="currentColor" x="360" y="120" width="40" height="40"></rect>
            <rect id="Rectangle" fill="#E9311F" x="400" y="120" width="40" height="40"></rect>
            <rect id="Rectangle" fill="#E9311F" x="440" y="120" width="40" height="40"></rect>
            <rect id="Rectangle" fill="#009D00" x="480" y="120" width="40" height="40"></rect>
            <rect id="Rectangle" fill="#009D00" x="520" y="120" width="40" height="40"></rect>
            <rect id="Rectangle" fill="#E9311F" x="560" y="120" width="40" height="40"></rect>
            <rect id="Rectangle" x="600" y="120" width="40" height="40"></rect>
            <rect id="Rectangle" x="640" y="120" width="40" height="40"></rect>
            <rect id="Rectangle" x="680" y="120" width="40" height="40"></rect>
            <rect id="Rectangle" x="0" y="160" width="40" height="40"></rect>
            <rect id="Rectangle" x="40" y="160" width="40" height="40"></rect>
            <rect id="Rectangle" x="80" y="160" width="40" height="40"></rect>
            <rect id="Rectangle" x="120" y="160" width="40" height="40"></rect>
            <rect id="Rectangle" x="160" y="160" width="40" height="40"></rect>
            <rect id="Rectangle" fill="#E9311F" x="200" y="160" width="40" height="40"></rect>
            <rect id="Rectangle" fill="#E9311F" x="240" y="160" width="40" height="40"></rect>
            <rect id="Rectangle" fill="#009D00" x="280" y="160" width="40" height="40"></rect>
            <rect id="Rectangle" fill="#009D00" x="320" y="160" width="40" height="40"></rect>
            <rect id="Rectangle" fill="currentColor" x="360" y="160" width="40" height="40"></rect>
            <rect id="Rectangle" fill="currentColor" x="400" y="160" width="40" height="40"></rect>
            <rect id="Rectangle" fill="#E9311F" x="440" y="160" width="40" height="40"></rect>
            <rect id="Rectangle" fill="#E9311F" x="480" y="160" width="40" height="40"></rect>
            <rect id="Rectangle" fill="#E9311F" x="520" y="160" width="40" height="40"></rect>
            <rect id="Rectangle" fill="#009D00" x="560" y="160" width="40" height="40"></rect>
            <rect id="Rectangle" x="600" y="160" width="40" height="40"></rect>
            <rect id="Rectangle" x="640" y="160" width="40" height="40"></rect>
            <rect id="Rectangle" x="680" y="160" width="40" height="40"></rect>
            <rect id="Rectangle" x="0" y="200" width="40" height="40"></rect>
            <rect id="Rectangle" x="40" y="200" width="40" height="40"></rect>
            <rect id="Rectangle" x="80" y="200" width="40" height="40"></rect>
            <rect id="Rectangle" fill="currentColor" x="120" y="200" width="40" height="40"></rect>
            <rect id="Rectangle" fill="#009D00" x="160" y="200" width="40" height="40"></rect>
            <rect id="Rectangle" fill="#009D00" x="200" y="200" width="40" height="40"></rect>
            <rect id="Rectangle" fill="#009D00" x="320" y="200" width="40" height="40"></rect>
            <rect id="Rectangle" fill="#009D00" x="360" y="200" width="40" height="40"></rect>
            <rect id="Rectangle" fill="#009D00" x="400" y="200" width="40" height="40"></rect>
            <rect id="Rectangle" fill="#009D00" x="440" y="200" width="40" height="40"></rect>
            <rect id="Rectangle" fill="#870000" x="520" y="200" width="40" height="40"></rect>
            <rect id="Rectangle" fill="#E9311F" x="560" y="200" width="40" height="40"></rect>
            <rect id="Rectangle" fill="currentColor" x="600" y="200" width="40" height="40"></rect>
            <rect id="Rectangle" fill="currentColor" x="640" y="200" width="40" height="40"></rect>
            <rect id="Rectangle" x="680" y="200" width="40" height="40"></rect>
            <rect id="Rectangle" x="0" y="240" width="40" height="40"></rect>
            <rect id="Rectangle" x="40" y="240" width="40" height="40"></rect>
            <rect id="Rectangle" x="80" y="240" width="40" height="40"></rect>
            <rect id="Rectangle" fill="currentColor" x="120" y="240" width="40" height="40"></rect>
            <rect id="Rectangle" fill="currentColor" x="160" y="240" width="40" height="40"></rect>
            <rect id="Rectangle" fill="#FFC000" x="240" y="240" width="40" height="40"></rect>
            <rect id="Rectangle" fill="#423F4A" x="280" y="240" width="40" height="40"></rect>
            <rect id="Rectangle" fill="#009D00" x="320" y="240" width="40" height="40"></rect>
            <rect id="Rectangle" fill="currentColor" x="360" y="240" width="40" height="40"></rect>
            <rect id="Rectangle" fill="currentColor" x="400" y="240" width="40" height="40"></rect>
            <rect id="Rectangle" fill="#009D00" x="440" y="240" width="40" height="40"></rect>
            <rect id="Rectangle" fill="#009D00" x="480" y="240" width="40" height="40"></rect>
            <rect id="Rectangle" fill="#009D00" x="520" y="240" width="40" height="40"></rect>
            <rect id="Rectangle" fill="currentColor" x="560" y="240" width="40" height="40"></rect>
            <rect id="Rectangle" fill="currentColor" x="600" y="240" width="40" height="40"></rect>
            <rect id="Rectangle" fill="#423F4A" x="640" y="240" width="40" height="40"></rect>
            <rect id="Rectangle" fill="currentColor" x="680" y="240" width="40" height="40"></rect>
            <rect id="Rectangle" x="0" y="280" width="40" height="40"></rect>
            <rect id="Rectangle" x="40" y="280" width="40" height="40"></rect>
            <rect id="Rectangle" x="80" y="280" width="40" height="40"></rect>
            <rect id="Rectangle" fill="#E9311F" x="120" y="280" width="40" height="40"></rect>
            <rect id="Rectangle" fill="#423F4A" x="160" y="280" width="40" height="40"></rect>
            <rect id="Rectangle" fill="#FFC000" x="200" y="280" width="40" height="40"></rect>
            <rect id="Rectangle" fill="#FFC000" x="240" y="280" width="40" height="40"></rect>
            <rect id="Rectangle" fill="#423F4A" x="280" y="280" width="40" height="40"></rect>
            <rect id="Rectangle" fill="#009D00" x="320" y="280" width="40" height="40"></rect>
            <rect id="Rectangle" fill="currentColor" x="360" y="280" width="40" height="40"></rect>
            <rect id="Rectangle" fill="#E9311F" x="400" y="280" width="40" height="40"></rect>
            <rect id="Rectangle" fill="currentColor" x="440" y="280" width="40" height="40"></rect>
            <rect id="Rectangle" fill="currentColor" x="480" y="280" width="40" height="40"></rect>
            <rect id="Rectangle" fill="currentColor" x="520" y="280" width="40" height="40"></rect>
            <rect id="Rectangle" fill="currentColor" x="560" y="280" width="40" height="40"></rect>
            <rect id="Rectangle" fill="currentColor" x="600" y="280" width="40" height="40"></rect>
            <rect id="Rectangle" fill="currentColor" x="640" y="280" width="40" height="40"></rect>
            <rect id="Rectangle" fill="currentColor" x="680" y="280" width="40" height="40"></rect>
            <rect id="Rectangle" x="0" y="320" width="40" height="40"></rect>
            <rect id="Rectangle" x="40" y="320" width="40" height="40"></rect>
            <rect id="Rectangle" x="80" y="320" width="40" height="40"></rect>
            <rect id="Rectangle" fill="#FFC000" x="120" y="320" width="40" height="40"></rect>
            <rect id="Rectangle" fill="#423F4A" x="160" y="320" width="40" height="40"></rect>
            <rect id="Rectangle" fill="#423F4A" x="200" y="320" width="40" height="40"></rect>
            <rect id="Rectangle" fill="#FFC000" x="240" y="320" width="40" height="40"></rect>
            <rect id="Rectangle" fill="#423F4A" x="280" y="320" width="40" height="40"></rect>
            <rect id="Rectangle" fill="#423F4A" x="320" y="320" width="40" height="40"></rect>
            <rect id="Rectangle" fill="currentColor" x="360" y="320" width="40" height="40"></rect>
            <rect id="Rectangle" fill="currentColor" x="400" y="320" width="40" height="40"></rect>
            <rect id="Rectangle" fill="#E9311F" x="440" y="320" width="40" height="40"></rect>
            <rect id="Rectangle" fill="#E9311F" x="520" y="320" width="40" height="40"></rect>
            <rect id="Rectangle" fill="#E9311F" x="600" y="320" width="40" height="40"></rect>
            <rect id="Rectangle" x="0" y="360" width="40" height="40"></rect>
            <rect id="Rectangle" x="40" y="360" width="40" height="40"></rect>
            <rect id="Rectangle" fill="#423F4A" x="80" y="360" width="40" height="40"></rect>
            <rect id="Rectangle" fill="#FFC000" x="120" y="360" width="40" height="40"></rect>
            <rect id="Rectangle" fill="#FFC000" x="160" y="360" width="40" height="40"></rect>
            <rect id="Rectangle" fill="#423F4A" x="200" y="360" width="40" height="40"></rect>
            <rect id="Rectangle" fill="#423F4A" x="240" y="360" width="40" height="40"></rect>
            <rect id="Rectangle" fill="#B0761B" x="280" y="360" width="40" height="40"></rect>
            <rect id="Rectangle" fill="#423F4A" x="320" y="360" width="40" height="40"></rect>
            <rect id="Rectangle" fill="#423F4A" x="360" y="360" width="40" height="40"></rect>
            <rect id="Rectangle" fill="currentColor" x="400" y="360" width="40" height="40"></rect>
            <rect id="Rectangle" fill="currentColor" x="440" y="360" width="40" height="40"></rect>
            <rect id="Rectangle" fill="currentColor" x="480" y="360" width="40" height="40"></rect>
            <rect id="Rectangle" fill="currentColor" x="520" y="360" width="40" height="40"></rect>
            <rect id="Rectangle" fill="currentColor" x="560" y="360" width="40" height="40"></rect>
            <rect id="Rectangle" fill="currentColor" x="600" y="360" width="40" height="40"></rect>
            <rect id="Rectangle" x="680" y="360" width="40" height="40"></rect>
            <rect id="Rectangle" x="0" y="400" width="40" height="40"></rect>
            <rect id="Rectangle" fill="#FFC000" x="40" y="400" width="40" height="40"></rect>
            <rect id="Rectangle" fill="#423F4A" x="80" y="400" width="40" height="40"></rect>
            <rect id="Rectangle" fill="#423F4A" x="120" y="400" width="40" height="40"></rect>
            <rect id="Rectangle" fill="#FFC000" x="160" y="400" width="40" height="40"></rect>
            <rect id="Rectangle" fill="#FFC000" x="200" y="400" width="40" height="40"></rect>
            <rect id="Rectangle" fill="#B0761B" x="240" y="400" width="40" height="40"></rect>
            <rect id="Rectangle" fill="#B0761B" x="280" y="400" width="40" height="40"></rect>
            <rect id="Rectangle" fill="#B0761B" x="320" y="400" width="40" height="40"></rect>
            <rect id="Rectangle" fill="#423F4A" x="360" y="400" width="40" height="40"></rect>
            <rect id="Rectangle" fill="#423F4A" x="400" y="400" width="40" height="40"></rect>
            <rect id="Rectangle" fill="#423F4A" x="440" y="400" width="40" height="40"></rect>
            <rect id="Rectangle" fill="#423F4A" x="480" y="400" width="40" height="40"></rect>
            <rect id="Rectangle" fill="#423F4A" x="520" y="400" width="40" height="40"></rect>
            <rect id="Rectangle" fill="#423F4A" x="560" y="400" width="40" height="40"></rect>
            <rect id="Rectangle" fill="#FFC000" x="600" y="400" width="40" height="40"></rect>
            <rect id="Rectangle" fill="#423F4A" x="640" y="400" width="40" height="40"></rect>
            <rect id="Rectangle" x="680" y="400" width="40" height="40"></rect>
            <rect id="Rectangle" x="0" y="440" width="40" height="40"></rect>
            <rect id="Rectangle" fill="#FFC000" x="40" y="440" width="40" height="40"></rect>
            <rect id="Rectangle" fill="#FFC000" x="80" y="440" width="40" height="40"></rect>
            <rect id="Rectangle" fill="#423F4A" x="120" y="440" width="40" height="40"></rect>
            <rect id="Rectangle" fill="#423F4A" x="160" y="440" width="40" height="40"></rect>
            <rect id="Rectangle" fill="#B0761B" x="200" y="440" width="40" height="40"></rect>
            <rect id="Rectangle" fill="#B0761B" x="240" y="440" width="40" height="40"></rect>
            <rect id="Rectangle" fill="#FFC000" x="280" y="440" width="40" height="40"></rect>
            <rect id="Rectangle" fill="currentColor" x="320" y="440" width="40" height="40"></rect>
            <rect id="Rectangle" fill="currentColor" x="360" y="440" width="40" height="40"></rect>
            <rect id="Rectangle" fill="currentColor" x="400" y="440" width="40" height="40"></rect>
            <rect id="Rectangle" fill="currentColor" x="440" y="440" width="40" height="40"></rect>
            <rect id="Rectangle" fill="currentColor" x="480" y="440" width="40" height="40"></rect>
            <rect id="Rectangle" fill="currentColor" x="520" y="440" width="40" height="40"></rect>
            <rect id="Rectangle" fill="#FFC000" x="560" y="440" width="40" height="40"></rect>
            <rect id="Rectangle" fill="#423F4A" x="600" y="440" width="40" height="40"></rect>
            <rect id="Rectangle" fill="#423F4A" x="640" y="440" width="40" height="40"></rect>
            <rect id="Rectangle" x="680" y="440" width="40" height="40"></rect>
            <rect id="Rectangle" x="0" y="480" width="40" height="40"></rect>
            <rect id="Rectangle" fill="#FFC000" x="80" y="480" width="40" height="40"></rect>
            <rect id="Rectangle" fill="#FFC000" x="120" y="480" width="40" height="40"></rect>
            <rect id="Rectangle" fill="#FFC000" x="160" y="480" width="40" height="40"></rect>
            <rect id="Rectangle" fill="#FFC000" x="240" y="480" width="40" height="40"></rect>
            <rect id="Rectangle" fill="#FFC000" x="280" y="480" width="40" height="40"></rect>
            <rect id="Rectangle" fill="currentColor" x="320" y="480" width="40" height="40"></rect>
            <rect id="Rectangle" fill="currentColor" x="360" y="480" width="40" height="40"></rect>
            <rect id="Rectangle" fill="currentColor" x="400" y="480" width="40" height="40"></rect>
            <rect id="Rectangle" fill="currentColor" x="440" y="480" width="40" height="40"></rect>
            <rect id="Rectangle" fill="currentColor" x="480" y="480" width="40" height="40"></rect>
            <rect id="Rectangle" fill="currentColor" x="520" y="480" width="40" height="40"></rect>
            <rect id="Rectangle" fill="#423F4A" x="560" y="480" width="40" height="40"></rect>
            <rect id="Rectangle" fill="#423F4A" x="600" y="480" width="40" height="40"></rect>
            <rect id="Rectangle" fill="#FFC000" x="640" y="480" width="40" height="40"></rect>
            <rect id="Rectangle" fill="#FFC000" x="680" y="480" width="40" height="40"></rect>
            <rect id="Rectangle" fill="#FFC000" x="0" y="520" width="40" height="40"></rect>
            <rect id="Rectangle" fill="#FFC000" x="120" y="520" width="40" height="40"></rect>
            <rect id="Rectangle" fill="#B0761B" x="200" y="520" width="40" height="40"></rect>
            <rect id="Rectangle" fill="#B0761B" x="240" y="520" width="40" height="40"></rect>
            <rect id="Rectangle" fill="#B0761B" x="280" y="520" width="40" height="40"></rect>
            <rect id="Rectangle" fill="#FFC000" x="320" y="520" width="40" height="40"></rect>
            <rect id="Rectangle" fill="#FFC000" x="360" y="520" width="40" height="40"></rect>
            <rect id="Rectangle" fill="#FFC000" x="400" y="520" width="40" height="40"></rect>
            <rect id="Rectangle" fill="#FFC000" x="440" y="520" width="40" height="40"></rect>
            <rect id="Rectangle" fill="#FFC000" x="480" y="520" width="40" height="40"></rect>
            <rect id="Rectangle" fill="#FFC000" x="520" y="520" width="40" height="40"></rect>
            <rect id="Rectangle" fill="#B07619" x="560" y="520" width="40" height="40"></rect>
            <rect id="Rectangle" fill="#FFC000" x="600" y="520" width="40" height="40"></rect>
            <rect id="Rectangle" fill="#FFC000" x="640" y="520" width="40" height="40"></rect>
            <rect id="Rectangle" x="680" y="520" width="40" height="40"></rect>
            <rect id="Rectangle" fill="#FFC000" x="0" y="560" width="40" height="40"></rect>
            <rect id="Rectangle" fill="#FFC000" x="40" y="560" width="40" height="40"></rect>
            <rect id="Rectangle" fill="#FFC000" x="80" y="560" width="40" height="40"></rect>
            <rect id="Rectangle" fill="#B0761B" x="120" y="560" width="40" height="40"></rect>
            <rect id="Rectangle" fill="#B0761B" x="160" y="560" width="40" height="40"></rect>
            <rect id="Rectangle" fill="#FFC000" x="200" y="560" width="40" height="40"></rect>
            <rect id="Rectangle" fill="#FFC000" x="240" y="560" width="40" height="40"></rect>
            <rect id="Rectangle" fill="#FFC000" x="280" y="560" width="40" height="40"></rect>
            <rect id="Rectangle" fill="#B0761B" x="320" y="560" width="40" height="40"></rect>
            <rect id="Rectangle" fill="currentColor" x="360" y="560" width="40" height="40"></rect>
            <rect id="Rectangle" fill="currentColor" x="400" y="560" width="40" height="40"></rect>
            <rect id="Rectangle" fill="currentColor" x="440" y="560" width="40" height="40"></rect>
            <rect id="Rectangle" fill="currentColor" x="480" y="560" width="40" height="40"></rect>
            <rect id="Rectangle" fill="currentColor" x="520" y="560" width="40" height="40"></rect>
            <rect id="Rectangle" fill="#B07619" x="560" y="560" width="40" height="40"></rect>
            <rect id="Rectangle" fill="#FFC000" x="600" y="560" width="40" height="40"></rect>
            <rect id="Rectangle" x="640" y="560" width="40" height="40"></rect>
            <rect id="Rectangle" x="680" y="560" width="40" height="40"></rect>
            <rect id="Rectangle" x="0" y="600" width="40" height="40"></rect>
            <rect id="Rectangle" fill="#FFC000" x="40" y="600" width="40" height="40"></rect>
            <rect id="Rectangle" fill="#FFC000" x="80" y="600" width="40" height="40"></rect>
            <rect id="Rectangle" fill="#B0761B" x="120" y="600" width="40" height="40"></rect>
            <rect id="Rectangle" fill="#FFC000" x="160" y="600" width="40" height="40"></rect>
            <rect id="Rectangle" fill="#FFC000" x="200" y="600" width="40" height="40"></rect>
            <rect id="Rectangle" fill="#FFC000" x="240" y="600" width="40" height="40"></rect>
            <rect id="Rectangle" fill="#FFC000" x="280" y="600" width="40" height="40"></rect>
            <rect id="Rectangle" fill="#B0761B" x="320" y="600" width="40" height="40"></rect>
            <rect id="Rectangle" fill="#FFC000" x="360" y="600" width="40" height="40"></rect>
            <rect id="Rectangle" fill="#FFC000" x="400" y="600" width="40" height="40"></rect>
            <rect id="Rectangle" fill="#FFC000" x="440" y="600" width="40" height="40"></rect>
            <rect id="Rectangle" fill="#FFC000" x="480" y="600" width="40" height="40"></rect>
            <rect id="Rectangle" fill="#B0761B" x="520" y="600" width="40" height="40"></rect>
            <rect id="Rectangle" fill="#FFC000" x="560" y="600" width="40" height="40"></rect>
            <rect id="Rectangle" fill="#FFC000" x="600" y="600" width="40" height="40"></rect>
            <rect id="Rectangle" x="640" y="600" width="40" height="40"></rect>
            <rect id="Rectangle" x="680" y="600" width="40" height="40"></rect>
            <rect id="Rectangle" x="0" y="640" width="40" height="40"></rect>
            <rect id="Rectangle" x="40" y="640" width="40" height="40"></rect>
            <rect id="Rectangle" fill="#FFC000" x="80" y="640" width="40" height="40"></rect>
            <rect id="Rectangle" fill="#B0761B" x="120" y="640" width="40" height="40"></rect>
            <rect id="Rectangle" fill="#FFC000" x="160" y="640" width="40" height="40"></rect>
            <rect id="Rectangle" fill="#FFC000" x="200" y="640" width="40" height="40"></rect>
            <rect id="Rectangle" fill="#FFC000" x="240" y="640" width="40" height="40"></rect>
            <rect id="Rectangle" fill="#FFC000" x="280" y="640" width="40" height="40"></rect>
            <rect id="Rectangle" fill="#B0761B" x="320" y="640" width="40" height="40"></rect>
            <rect id="Rectangle" fill="#B0761B" x="360" y="640" width="40" height="40"></rect>
            <rect id="Rectangle" fill="currentColor" x="400" y="640" width="40" height="40"></rect>
            <rect id="Rectangle" fill="currentColor" x="440" y="640" width="40" height="40"></rect>
            <rect id="Rectangle" fill="#B0761B" x="480" y="640" width="40" height="40"></rect>
            <rect id="Rectangle" fill="#FFC000" x="520" y="640" width="40" height="40"></rect>
            <rect id="Rectangle" fill="#FFC000" x="560" y="640" width="40" height="40"></rect>
            <rect id="Rectangle" fill="#FFC000" x="600" y="640" width="40" height="40"></rect>
            <rect id="Rectangle" x="640" y="640" width="40" height="40"></rect>
            <rect id="Rectangle" x="680" y="640" width="40" height="40"></rect>
            <rect id="Rectangle" x="0" y="679" width="40" height="40"></rect>
            <rect id="Rectangle" x="40" y="680" width="40" height="40"></rect>
            <rect id="Rectangle" x="80" y="680" width="40" height="40"></rect>
            <rect id="Rectangle" x="120" y="680" width="40" height="40"></rect>
            <rect id="Rectangle" fill="#FFC000" x="160" y="680" width="40" height="40"></rect>
            <rect id="Rectangle" x="200" y="680" width="40" height="40"></rect>
            <rect id="Rectangle" fill="#FFC000" x="240" y="680" width="40" height="40"></rect>
            <rect id="Rectangle" x="280" y="680" width="40" height="40"></rect>
            <rect id="Rectangle" fill="#FFC000" x="320" y="680" width="40" height="40"></rect>
            <rect id="Rectangle" x="360" y="680" width="40" height="40"></rect>
            <rect id="Rectangle" x="400" y="680" width="40" height="40"></rect>
            <rect id="Rectangle" x="440" y="680" width="40" height="40"></rect>
            <rect id="Rectangle" fill="#FFC000" x="480" y="680" width="40" height="40"></rect>
            <rect id="Rectangle" fill="#FFC000" x="520" y="680" width="40" height="40"></rect>
            <rect id="Rectangle" fill="#FFC000" x="560" y="680" width="40" height="40"></rect>
            <rect id="Rectangle" x="600" y="680" width="40" height="40"></rect>
            <rect id="Rectangle" fill="#FFC000" x="640" y="680" width="40" height="40"></rect>
            <rect id="Rectangle" x="680" y="680" width="40" height="40"></rect>
        </g>
    </g>
</svg>