<svg width="720" height="720" viewBox="0 0 720 720" xmlns="http://www.w3.org/2000/svg">
  <g fill="none" fill-rule="evenodd">
    <path d="M0 0h40v40H0zM40 0h40v40H40zM80 0h40v40H80zM120 0h40v40h-40zM160 0h40v40h-40zM200 0h40v40h-40zM240 0h40v40h-40zM280 0h40v40h-40zM320 0h40v40h-40z"/>
    <path fill="#E9311F" d="M360 0h40v40h-40z"/>
    <path d="M400 0h40v40h-40z"/>
    <path fill="#E9311F" d="M440 0h40v40h-40zM480 0h40v40h-40z"/>
    <path d="M520 0h40v40h-40zM560 0h40v40h-40zM600 0h40v40h-40zM640 0h40v40h-40zM680 0h40v40h-40zM0 40h40v40H0zM40 40h40v40H40zM80 40h40v40H80zM120 40h40v40h-40zM160 40h40v40h-40zM200 40h40v40h-40zM240 40h40v40h-40z"/>
    <path fill="#E9311F" d="M280 40h40v40h-40z"/>
    <path fill="#870000" d="M320 40h40v40h-40zM360 40h40v40h-40z"/>
    <path fill="#E9311F" d="M400 40h40v40h-40z"/>
    <path fill="#870000" d="M440 40h40v40h-40z"/>
    <path fill="#E9311F" d="M480 40h40v40h-40zM520 40h40v40h-40z"/>
    <path d="M560 40h40v40h-40zM600 40h40v40h-40zM640 40h40v40h-40zM680 40h40v40h-40zM0 80h40v40H0zM40 80h40v40H40zM80 80h40v40H80zM120 80h40v40h-40zM160 80h40v40h-40z"/>
    <path fill="currentColor" d="M200 80h40v40h-40z"/>
    <path d="M240 80h40v40h-40zM280 80h40v40h-40z"/>
    <path fill="#E9311F" d="M320 80h40v40h-40z"/>
    <path fill="currentColor" d="M360 80h40v40h-40z"/>
    <path fill="#870000" d="M400 80h40v40h-40z"/>
    <path fill="#E9311F" d="M440 80h40v40h-40z"/>
    <path fill="#870000" d="M480 80h40v40h-40z"/>
    <path fill="#E9311F" d="M520 80h40v40h-40z"/>
    <path d="M560 80h40v40h-40zM600 80h40v40h-40zM640 80h40v40h-40zM680 80h40v40h-40zM0 120h40v40H0zM40 120h40v40H40zM80 120h40v40H80zM120 120h40v40h-40zM160 120h40v40h-40z"/>
    <path fill="currentColor" d="M200 120h40v40h-40zM240 120h40v40h-40z"/>
    <path fill="#009D00" d="M280 120h40v40h-40z"/>
    <path fill="#E9311F" d="M320 120h40v40h-40z"/>
    <path fill="currentColor" d="M360 120h40v40h-40z"/>
    <path fill="#E9311F" d="M400 120h40v40h-40zM440 120h40v40h-40z"/>
    <path fill="#009D00" d="M480 120h40v40h-40zM520 120h40v40h-40z"/>
    <path fill="#E9311F" d="M560 120h40v40h-40z"/>
    <path d="M600 120h40v40h-40zM640 120h40v40h-40zM680 120h40v40h-40zM0 160h40v40H0zM40 160h40v40H40zM80 160h40v40H80zM120 160h40v40h-40zM160 160h40v40h-40z"/>
    <path fill="#E9311F" d="M200 160h40v40h-40zM240 160h40v40h-40z"/>
    <path fill="#009D00" d="M280 160h40v40h-40zM320 160h40v40h-40z"/>
    <path fill="currentColor" d="M360 160h40v40h-40zM400 160h40v40h-40z"/>
    <path fill="#E9311F" d="M440 160h40v40h-40zM480 160h40v40h-40zM520 160h40v40h-40z"/>
    <path fill="#009D00" d="M560 160h40v40h-40z"/>
    <path d="M600 160h40v40h-40zM640 160h40v40h-40zM680 160h40v40h-40zM0 200h40v40H0zM40 200h40v40H40zM80 200h40v40H80z"/>
    <path fill="currentColor" d="M120 200h40v40h-40z"/>
    <path fill="#009D00" d="M160 200h40v40h-40zM200 200h40v40h-40zM320 200h40v40h-40zM360 200h40v40h-40zM400 200h40v40h-40zM440 200h40v40h-40z"/>
    <path fill="#870000" d="M520 200h40v40h-40z"/>
    <path fill="#E9311F" d="M560 200h40v40h-40z"/>
    <path fill="currentColor" d="M600 200h40v40h-40zM640 200h40v40h-40z"/>
    <path d="M680 200h40v40h-40zM0 240h40v40H0zM40 240h40v40H40zM80 240h40v40H80z"/>
    <path fill="currentColor" d="M120 240h40v40h-40zM160 240h40v40h-40z"/>
    <path fill="#FFC000" d="M240 240h40v40h-40z"/>
    <path fill="#423F4A" d="M280 240h40v40h-40z"/>
    <path fill="#009D00" d="M320 240h40v40h-40z"/>
    <path fill="currentColor" d="M360 240h40v40h-40zM400 240h40v40h-40z"/>
    <path fill="#009D00" d="M440 240h40v40h-40zM480 240h40v40h-40zM520 240h40v40h-40z"/>
    <path fill="currentColor" d="M560 240h40v40h-40zM600 240h40v40h-40z"/>
    <path fill="#423F4A" d="M640 240h40v40h-40z"/>
    <path fill="currentColor" d="M680 240h40v40h-40z"/>
    <path d="M0 280h40v40H0zM40 280h40v40H40zM80 280h40v40H80z"/>
    <path fill="#E9311F" d="M120 280h40v40h-40z"/>
    <path fill="#423F4A" d="M160 280h40v40h-40z"/>
    <path fill="#FFC000" d="M200 280h40v40h-40zM240 280h40v40h-40z"/>
    <path fill="#423F4A" d="M280 280h40v40h-40z"/>
    <path fill="#009D00" d="M320 280h40v40h-40z"/>
    <path fill="currentColor" d="M360 280h40v40h-40z"/>
    <path fill="#E9311F" d="M400 280h40v40h-40z"/>
    <path fill="currentColor" d="M440 280h40v40h-40zM480 280h40v40h-40zM520 280h40v40h-40zM560 280h40v40h-40zM600 280h40v40h-40zM640 280h40v40h-40zM680 280h40v40h-40z"/>
    <path d="M0 320h40v40H0zM40 320h40v40H40zM80 320h40v40H80z"/>
    <path fill="#FFC000" d="M120 320h40v40h-40z"/>
    <path fill="#423F4A" d="M160 320h40v40h-40zM200 320h40v40h-40z"/>
    <path fill="#FFC000" d="M240 320h40v40h-40z"/>
    <path fill="#423F4A" d="M280 320h40v40h-40zM320 320h40v40h-40z"/>
    <path fill="currentColor" d="M360 320h40v40h-40zM400 320h40v40h-40z"/>
    <path fill="#E9311F" d="M440 320h40v40h-40zM520 320h40v40h-40zM600 320h40v40h-40z"/>
    <path d="M0 360h40v40H0zM40 360h40v40H40z"/>
    <path fill="#423F4A" d="M80 360h40v40H80z"/>
    <path fill="#FFC000" d="M120 360h40v40h-40zM160 360h40v40h-40z"/>
    <path fill="#423F4A" d="M200 360h40v40h-40zM240 360h40v40h-40z"/>
    <path fill="#B0761B" d="M280 360h40v40h-40z"/>
    <path fill="#423F4A" d="M320 360h40v40h-40zM360 360h40v40h-40z"/>
    <path fill="currentColor" d="M400 360h40v40h-40zM440 360h40v40h-40zM480 360h40v40h-40zM520 360h40v40h-40zM560 360h40v40h-40zM600 360h40v40h-40z"/>
    <path d="M680 360h40v40h-40zM0 400h40v40H0z"/>
    <path fill="#FFC000" d="M40 400h40v40H40z"/>
    <path fill="#423F4A" d="M80 400h40v40H80zM120 400h40v40h-40z"/>
    <path fill="#FFC000" d="M160 400h40v40h-40zM200 400h40v40h-40z"/>
    <path fill="#B0761B" d="M240 400h40v40h-40zM280 400h40v40h-40zM320 400h40v40h-40z"/>
    <path fill="#423F4A" d="M360 400h40v40h-40zM400 400h40v40h-40zM440 400h40v40h-40zM480 400h40v40h-40zM520 400h40v40h-40zM560 400h40v40h-40z"/>
    <path fill="#FFC000" d="M600 400h40v40h-40z"/>
    <path fill="#423F4A" d="M640 400h40v40h-40z"/>
    <path d="M680 400h40v40h-40zM0 440h40v40H0z"/>
    <path fill="#FFC000" d="M40 440h40v40H40zM80 440h40v40H80z"/>
    <path fill="#423F4A" d="M120 440h40v40h-40zM160 440h40v40h-40z"/>
    <path fill="#B0761B" d="M200 440h40v40h-40zM240 440h40v40h-40z"/>
    <path fill="#FFC000" d="M280 440h40v40h-40z"/>
    <path fill="currentColor" d="M320 440h40v40h-40zM360 440h40v40h-40zM400 440h40v40h-40zM440 440h40v40h-40zM480 440h40v40h-40zM520 440h40v40h-40z"/>
    <path fill="#FFC000" d="M560 440h40v40h-40z"/>
    <path fill="#423F4A" d="M600 440h40v40h-40zM640 440h40v40h-40z"/>
    <path d="M680 440h40v40h-40zM0 480h40v40H0z"/>
    <path fill="#FFC000" d="M80 480h40v40H80zM120 480h40v40h-40zM160 480h40v40h-40zM240 480h40v40h-40zM280 480h40v40h-40z"/>
    <path fill="currentColor" d="M320 480h40v40h-40zM360 480h40v40h-40zM400 480h40v40h-40zM440 480h40v40h-40zM480 480h40v40h-40zM520 480h40v40h-40z"/>
    <path fill="#423F4A" d="M560 480h40v40h-40zM600 480h40v40h-40z"/>
    <path fill="#FFC000" d="M640 480h40v40h-40zM680 480h40v40h-40zM0 520h40v40H0zM120 520h40v40h-40z"/>
    <path fill="#B0761B" d="M200 520h40v40h-40zM240 520h40v40h-40zM280 520h40v40h-40z"/>
    <path fill="#FFC000" d="M320 520h40v40h-40zM360 520h40v40h-40zM400 520h40v40h-40zM440 520h40v40h-40zM480 520h40v40h-40zM520 520h40v40h-40z"/>
    <path fill="#B07619" d="M560 520h40v40h-40z"/>
    <path fill="#FFC000" d="M600 520h40v40h-40zM640 520h40v40h-40z"/>
    <path d="M680 520h40v40h-40z"/>
    <path fill="#FFC000" d="M0 560h40v40H0zM40 560h40v40H40zM80 560h40v40H80z"/>
    <path fill="#B0761B" d="M120 560h40v40h-40zM160 560h40v40h-40z"/>
    <path fill="#FFC000" d="M200 560h40v40h-40zM240 560h40v40h-40zM280 560h40v40h-40z"/>
    <path fill="#B0761B" d="M320 560h40v40h-40z"/>
    <path fill="currentColor" d="M360 560h40v40h-40zM400 560h40v40h-40zM440 560h40v40h-40zM480 560h40v40h-40zM520 560h40v40h-40z"/>
    <path fill="#B07619" d="M560 560h40v40h-40z"/>
    <path fill="#FFC000" d="M600 560h40v40h-40z"/>
    <path d="M640 560h40v40h-40zM680 560h40v40h-40zM0 600h40v40H0z"/>
    <path fill="#FFC000" d="M40 600h40v40H40zM80 600h40v40H80z"/>
    <path fill="#B0761B" d="M120 600h40v40h-40z"/>
    <path fill="#FFC000" d="M160 600h40v40h-40zM200 600h40v40h-40zM240 600h40v40h-40zM280 600h40v40h-40z"/>
    <path fill="#B0761B" d="M320 600h40v40h-40z"/>
    <path fill="#FFC000" d="M360 600h40v40h-40zM400 600h40v40h-40zM440 600h40v40h-40zM480 600h40v40h-40z"/>
    <path fill="#B0761B" d="M520 600h40v40h-40z"/>
    <path fill="#FFC000" d="M560 600h40v40h-40zM600 600h40v40h-40z"/>
    <path d="M640 600h40v40h-40zM680 600h40v40h-40zM0 640h40v40H0zM40 640h40v40H40z"/>
    <path fill="#FFC000" d="M80 640h40v40H80z"/>
    <path fill="#B0761B" d="M120 640h40v40h-40z"/>
    <path fill="#FFC000" d="M160 640h40v40h-40zM200 640h40v40h-40zM240 640h40v40h-40zM280 640h40v40h-40z"/>
    <path fill="#B0761B" d="M320 640h40v40h-40zM360 640h40v40h-40z"/>
    <path fill="currentColor" d="M400 640h40v40h-40zM440 640h40v40h-40z"/>
    <path fill="#B0761B" d="M480 640h40v40h-40z"/>
    <path fill="#FFC000" d="M520 640h40v40h-40zM560 640h40v40h-40zM600 640h40v40h-40z"/>
    <path d="M640 640h40v40h-40zM680 640h40v40h-40zM0 679h40v40H0zM40 680h40v40H40zM80 680h40v40H80zM120 680h40v40h-40z"/>
    <path fill="#FFC000" d="M160 680h40v40h-40z"/>
    <path d="M200 680h40v40h-40z"/>
    <path fill="#FFC000" d="M240 680h40v40h-40z"/>
    <path d="M280 680h40v40h-40z"/>
    <path fill="#FFC000" d="M320 680h40v40h-40z"/>
    <path d="M360 680h40v40h-40zM400 680h40v40h-40zM440 680h40v40h-40z"/>
    <path fill="#FFC000" d="M480 680h40v40h-40zM520 680h40v40h-40zM560 680h40v40h-40z"/>
    <path d="M600 680h40v40h-40z"/>
    <path fill="#FFC000" d="M640 680h40v40h-40z"/>
    <path d="M680 680h40v40h-40z"/>
  </g>
</svg>