<?xml version="1.0" encoding="UTF-8"?>
<svg width="240px" height="240px" viewBox="0 0 240 240" version="1.1" xmlns="http://www.w3.org/2000/svg" xmlns:xlink="http://www.w3.org/1999/xlink">
    <!-- Generator: Sketch 54.1 (76490) - https://sketchapp.com -->
    <title>Coin Block</title>
    <desc>Created with Sketch.</desc>
    <g id="Page-1" stroke="none" stroke-width="1" fill="none" fill-rule="evenodd">
        <g id="Coin-Block">
            <g id="Left-Coin-Block">
                <rect id="Rectangle" fill="#FFC200" x="0" y="0" width="15" height="15"></rect>
                <rect id="Rectangle" fill="#000000" x="0" y="0" width="15" height="15"></rect>
                <rect id="Rectangle" fill="#FF9200" x="15" y="0" width="15" height="15"></rect>
                <rect id="Rectangle" fill="#FF9200" x="30" y="0" width="15" height="15"></rect>
                <rect id="Rectangle" fill="#FF9200" x="45" y="0" width="15" height="15"></rect>
                <rect id="Rectangle" fill="#FF9200" x="60" y="0" width="15" height="15"></rect>
                <rect id="Rectangle" fill="#FF9200" x="75" y="0" width="15" height="15"></rect>
                <rect id="Rectangle" fill="#FF9200" x="90" y="0" width="15" height="15"></rect>
                <rect id="Rectangle" fill="#FF9200" x="90" y="0" width="15" height="15"></rect>
                <rect id="Rectangle" fill="#FF9200" x="105" y="0" width="15" height="15"></rect>
                <rect id="Rectangle" fill="#FF9200" x="0" y="15" width="15" height="15"></rect>
                <rect id="Rectangle" fill="#FF9200" x="0" y="15" width="15" height="15"></rect>
                <rect id="Rectangle" fill="#FF9200" x="0" y="30" width="15" height="15"></rect>
                <rect id="Rectangle" fill="#FF9200" x="0" y="30" width="15" height="15"></rect>
                <rect id="Rectangle" fill="#FF9200" x="0" y="45" width="15" height="15"></rect>
                <rect id="Rectangle" fill="#FF9200" x="0" y="45" width="15" height="15"></rect>
                <rect id="Rectangle" fill="#FF9200" x="0" y="60" width="15" height="15"></rect>
                <rect id="Rectangle" fill="#FF9200" x="0" y="60" width="15" height="15"></rect>
                <rect id="Rectangle" fill="#FF9200" x="0" y="75" width="15" height="15"></rect>
                <rect id="Rectangle" fill="#FF9200" x="0" y="75" width="15" height="15"></rect>
                <rect id="Rectangle" fill="#FF9200" x="0" y="90" width="15" height="15"></rect>
                <rect id="Rectangle" fill="#FF9200" x="0" y="90" width="15" height="15"></rect>
                <rect id="Rectangle" fill="#FF9200" x="0" y="105" width="15" height="15"></rect>
                <rect id="Rectangle" fill="#FF9200" x="0" y="105" width="15" height="15"></rect>
                <rect id="Rectangle" fill="#FF9200" x="0" y="120" width="15" height="15"></rect>
                <rect id="Rectangle" fill="#FF9200" x="0" y="120" width="15" height="15"></rect>
                <rect id="Rectangle" fill="#FF9200" x="0" y="135" width="15" height="15"></rect>
                <rect id="Rectangle" fill="#FF9200" x="0" y="135" width="15" height="15"></rect>
                <rect id="Rectangle" fill="#FF9200" x="0" y="150" width="15" height="15"></rect>
                <rect id="Rectangle" fill="#FF9200" x="0" y="150" width="15" height="15"></rect>
                <rect id="Rectangle" fill="#FF9200" x="0" y="165" width="15" height="15"></rect>
                <rect id="Rectangle" fill="#FF9200" x="0" y="165" width="15" height="15"></rect>
                <rect id="Rectangle" fill="#FF9200" x="0" y="180" width="15" height="15"></rect>
                <rect id="Rectangle" fill="#FF9200" x="0" y="180" width="15" height="15"></rect>
                <rect id="Rectangle" fill="#FF9200" x="0" y="195" width="15" height="15"></rect>
                <rect id="Rectangle" fill="#FF9200" x="0" y="195" width="15" height="15"></rect>
                <rect id="Rectangle" fill="#FF9200" x="0" y="210" width="15" height="15"></rect>
                <rect id="Rectangle" fill="#FF9200" x="0" y="210" width="15" height="15"></rect>
                <rect id="Rectangle" fill="#FFC200" x="15" y="15" width="15" height="15"></rect>
                <rect id="Rectangle" fill="#FFC200" x="30" y="15" width="15" height="15"></rect>
                <rect id="Rectangle" fill="#FFC200" x="45" y="15" width="15" height="15"></rect>
                <rect id="Rectangle" fill="#FFC200" x="60" y="15" width="15" height="15"></rect>
                <rect id="Rectangle" fill="#FFC200" x="75" y="15" width="15" height="15"></rect>
                <rect id="Rectangle" fill="#FFC200" x="90" y="15" width="15" height="15"></rect>
                <rect id="Rectangle" fill="#FFC200" x="15" y="30" width="15" height="15"></rect>
                <rect id="Rectangle" fill="#000000" x="30" y="30" width="15" height="15"></rect>
                <rect id="Rectangle" fill="#000000" x="30" y="195" width="15" height="15"></rect>
                <rect id="Rectangle" fill="#FFC200" x="45" y="30" width="15" height="15"></rect>
                <rect id="Rectangle" fill="#FFC200" x="60" y="30" width="15" height="15"></rect>
                <rect id="Rectangle" fill="#FFC200" x="75" y="30" width="15" height="15"></rect>
                <rect id="Rectangle" fill="#FFC200" x="90" y="30" width="15" height="15"></rect>
                <rect id="Rectangle" fill="#FFC200" x="15" y="45" width="15" height="15"></rect>
                <rect id="Rectangle" fill="#FFC200" x="30" y="45" width="15" height="15"></rect>
                <rect id="Rectangle" fill="#FFC200" x="45" y="45" width="15" height="15"></rect>
                <rect id="Rectangle" fill="#FFC200" x="60" y="45" width="15" height="15"></rect>
                <rect id="Rectangle" fill="#FF9200" x="75" y="45" width="15" height="15"></rect>
                <rect id="Rectangle" fill="#FFC200" x="15" y="60" width="15" height="15"></rect>
                <rect id="Rectangle" fill="#FFC200" x="30" y="60" width="15" height="15"></rect>
                <rect id="Rectangle" fill="#FFC200" x="45" y="60" width="15" height="15"></rect>
                <rect id="Rectangle" fill="#FF9200" x="60" y="60" width="15" height="15"></rect>
                <rect id="Rectangle" fill="#FF9200" x="75" y="60" width="15" height="15"></rect>
                <rect id="Rectangle" fill="#FFC200" x="15" y="75" width="15" height="15"></rect>
                <rect id="Rectangle" fill="#FFC200" x="30" y="75" width="15" height="15"></rect>
                <rect id="Rectangle" fill="#FFC200" x="45" y="75" width="15" height="15"></rect>
                <rect id="Rectangle" fill="#FF9200" x="60" y="75" width="15" height="15"></rect>
                <rect id="Rectangle" fill="#FF9200" x="75" y="75" width="15" height="15"></rect>
                <rect id="Rectangle" fill="#FFC200" x="15" y="90" width="15" height="15"></rect>
                <rect id="Rectangle" fill="#FFC200" x="30" y="90" width="15" height="15"></rect>
                <rect id="Rectangle" fill="#FFC200" x="45" y="90" width="15" height="15"></rect>
                <rect id="Rectangle" fill="#FF9200" x="60" y="90" width="15" height="15"></rect>
                <rect id="Rectangle" fill="#FF9200" x="75" y="90" width="15" height="15"></rect>
                <rect id="Rectangle" fill="#FFC200" x="105" y="15" width="15" height="15"></rect>
                <rect id="Rectangle" fill="#FFC200" x="105" y="30" width="15" height="15"></rect>
                <rect id="Rectangle" fill="#FF9200" x="90" y="45" width="15" height="15"></rect>
                <rect id="Rectangle" fill="#000000" x="90" y="60" width="15" height="15"></rect>
                <rect id="Rectangle" fill="#000000" x="90" y="75" width="15" height="15"></rect>
                <rect id="Rectangle" fill="#000000" x="90" y="90" width="15" height="15"></rect>
                <rect id="Rectangle" fill="#FFC200" x="15" y="105" width="15" height="15"></rect>
                <rect id="Rectangle" fill="#FFC200" x="30" y="105" width="15" height="15"></rect>
                <rect id="Rectangle" fill="#FFC200" x="45" y="105" width="15" height="15"></rect>
                <rect id="Rectangle" fill="#FFC200" x="60" y="105" width="15" height="15"></rect>
                <rect id="Rectangle" fill="#000000" x="75" y="105" width="15" height="15"></rect>
                <rect id="Rectangle" fill="#FFC200" x="90" y="105" width="15" height="15"></rect>
                <rect id="Rectangle" fill="#000000" x="90" y="105" width="15" height="15"></rect>
                <rect id="Rectangle" fill="#FFC200" x="105" y="105" width="15" height="15"></rect>
                <rect id="Rectangle" fill="#FFC200" x="105" y="90" width="15" height="15"></rect>
                <rect id="Rectangle" fill="#FF9200" x="105" y="45" width="15" height="15"></rect>
                <rect id="Rectangle" fill="#000000" x="105" y="60" width="15" height="15"></rect>
                <rect id="Rectangle" fill="#FFC200" x="105" y="75" width="15" height="15"></rect>
                <rect id="Rectangle" fill="#FFC200" x="15" y="120" width="15" height="15"></rect>
                <rect id="Rectangle" fill="#FFC200" x="30" y="120" width="15" height="15"></rect>
                <rect id="Rectangle" fill="#FFC200" x="45" y="120" width="15" height="15"></rect>
                <rect id="Rectangle" fill="#FFC200" x="60" y="120" width="15" height="15"></rect>
                <rect id="Rectangle" fill="#FFC200" x="75" y="120" width="15" height="15"></rect>
                <rect id="Rectangle" fill="#FFC200" x="90" y="120" width="15" height="15"></rect>
                <rect id="Rectangle" fill="#FFC200" x="15" y="135" width="15" height="15"></rect>
                <rect id="Rectangle" fill="#FFC200" x="30" y="135" width="15" height="15"></rect>
                <rect id="Rectangle" fill="#FFC200" x="45" y="135" width="15" height="15"></rect>
                <rect id="Rectangle" fill="#FFC200" x="60" y="135" width="15" height="15"></rect>
                <rect id="Rectangle" fill="#FFC200" x="75" y="135" width="15" height="15"></rect>
                <rect id="Rectangle" fill="#FFC200" x="90" y="135" width="15" height="15"></rect>
                <rect id="Rectangle" fill="#FFC200" x="15" y="150" width="15" height="15"></rect>
                <rect id="Rectangle" fill="#FFC200" x="30" y="150" width="15" height="15"></rect>
                <rect id="Rectangle" fill="#FFC200" x="45" y="150" width="15" height="15"></rect>
                <rect id="Rectangle" fill="#FFC200" x="60" y="150" width="15" height="15"></rect>
                <rect id="Rectangle" fill="#FFC200" x="75" y="150" width="15" height="15"></rect>
                <rect id="Rectangle" fill="#FFC200" x="90" y="150" width="15" height="15"></rect>
                <rect id="Rectangle" fill="#FFC200" x="15" y="165" width="15" height="15"></rect>
                <rect id="Rectangle" fill="#FFC200" x="30" y="165" width="15" height="15"></rect>
                <rect id="Rectangle" fill="#FFC200" x="45" y="165" width="15" height="15"></rect>
                <rect id="Rectangle" fill="#FFC200" x="60" y="165" width="15" height="15"></rect>
                <rect id="Rectangle" fill="#FFC200" x="75" y="165" width="15" height="15"></rect>
                <rect id="Rectangle" fill="#FFC200" x="90" y="165" width="15" height="15"></rect>
                <rect id="Rectangle" fill="#FFC200" x="15" y="180" width="15" height="15"></rect>
                <rect id="Rectangle" fill="#FFC200" x="30" y="180" width="15" height="15"></rect>
                <rect id="Rectangle" fill="#FFC200" x="45" y="180" width="15" height="15"></rect>
                <rect id="Rectangle" fill="#FFC200" x="60" y="180" width="15" height="15"></rect>
                <rect id="Rectangle" fill="#FFC200" x="75" y="180" width="15" height="15"></rect>
                <rect id="Rectangle" fill="#FFC200" x="90" y="180" width="15" height="15"></rect>
                <rect id="Rectangle" fill="#FFC200" x="15" y="195" width="15" height="15"></rect>
                <rect id="Rectangle" fill="#FFC200" x="45" y="195" width="15" height="15"></rect>
                <rect id="Rectangle" fill="#FFC200" x="60" y="195" width="15" height="15"></rect>
                <rect id="Rectangle" fill="#FFC200" x="75" y="195" width="15" height="15"></rect>
                <rect id="Rectangle" fill="#FFC200" x="90" y="195" width="15" height="15"></rect>
                <rect id="Rectangle" fill="#FFC200" x="15" y="210" width="15" height="15"></rect>
                <rect id="Rectangle" fill="#FFC200" x="30" y="210" width="15" height="15"></rect>
                <rect id="Rectangle" fill="#FFC200" x="45" y="210" width="15" height="15"></rect>
                <rect id="Rectangle" fill="#FFC200" x="60" y="210" width="15" height="15"></rect>
                <rect id="Rectangle" fill="#FFC200" x="75" y="210" width="15" height="15"></rect>
                <rect id="Rectangle" fill="#FFC200" x="90" y="210" width="15" height="15"></rect>
                <rect id="Rectangle" fill="#FFC200" x="90" y="120" width="15" height="15"></rect>
                <rect id="Rectangle" fill="#FFC200" x="90" y="210" width="15" height="15"></rect>
                <rect id="Rectangle" fill="#FFC200" x="105" y="150" width="15" height="15"></rect>
                <rect id="Rectangle" fill="#FFC200" x="105" y="195" width="15" height="15"></rect>
                <rect id="Rectangle" fill="#FFC200" x="105" y="210" width="15" height="15"></rect>
                <rect id="Rectangle" fill="#000000" x="0" y="225" width="15" height="15"></rect>
                <rect id="Rectangle" fill="#000000" x="0" y="225" width="15" height="15"></rect>
                <rect id="Rectangle" fill="#000000" x="15" y="225" width="15" height="15"></rect>
                <rect id="Rectangle" fill="#000000" x="30" y="225" width="15" height="15"></rect>
                <rect id="Rectangle" fill="#000000" x="45" y="225" width="15" height="15"></rect>
                <rect id="Rectangle" fill="#000000" x="60" y="225" width="15" height="15"></rect>
                <rect id="Rectangle" fill="#000000" x="75" y="225" width="15" height="15"></rect>
                <rect id="Rectangle" fill="#000000" x="90" y="225" width="15" height="15"></rect>
                <rect id="Rectangle" fill="#000000" x="90" y="225" width="15" height="15"></rect>
                <rect id="Rectangle" fill="#000000" x="105" y="225" width="15" height="15"></rect>
                <rect id="Rectangle" fill="#FF9200" x="105" y="120" width="15" height="15"></rect>
                <rect id="Rectangle" fill="#FF9200" x="105" y="135" width="15" height="15"></rect>
                <rect id="Rectangle" fill="#FF9200" x="105" y="165" width="15" height="15"></rect>
                <rect id="Rectangle" fill="#FF9200" x="105" y="180" width="15" height="15"></rect>
            </g>
            <g id="Right-Coin-Block" transform="translate(120.000000, 0.000000)">
                <rect id="Rectangle" fill="#FF9200" x="0" y="0" width="15" height="15"></rect>
                <rect id="Rectangle" fill="#FF9200" x="0" y="0" width="15" height="15"></rect>
                <rect id="Rectangle" fill="#FF9200" x="15" y="0" width="15" height="15"></rect>
                <rect id="Rectangle" fill="#FF9200" x="30" y="0" width="15" height="15"></rect>
                <rect id="Rectangle" fill="#FF9200" x="45" y="0" width="15" height="15"></rect>
                <rect id="Rectangle" fill="#FF9200" x="60" y="0" width="15" height="15"></rect>
                <rect id="Rectangle" fill="#FF9200" x="75" y="0" width="15" height="15"></rect>
                <rect id="Rectangle" fill="#FF9200" x="90" y="0" width="15" height="15"></rect>
                <rect id="Rectangle" fill="#FF9200" x="90" y="0" width="15" height="15"></rect>
                <rect id="Rectangle" fill="#000000" x="105" y="0" width="15" height="15"></rect>
                <rect id="Rectangle" fill="#000000" x="75" y="30" width="15" height="15"></rect>
                <rect id="Rectangle" fill="#000000" x="75" y="195" width="15" height="15"></rect>
                <rect id="Rectangle" fill="#000000" x="0" y="225" width="15" height="15"></rect>
                <rect id="Rectangle" fill="#000000" x="0" y="225" width="15" height="15"></rect>
                <rect id="Rectangle" fill="#000000" x="15" y="225" width="15" height="15"></rect>
                <rect id="Rectangle" fill="#000000" x="30" y="225" width="15" height="15"></rect>
                <rect id="Rectangle" fill="#000000" x="45" y="225" width="15" height="15"></rect>
                <rect id="Rectangle" fill="#000000" x="60" y="225" width="15" height="15"></rect>
                <rect id="Rectangle" fill="#000000" x="75" y="225" width="15" height="15"></rect>
                <rect id="Rectangle" fill="#000000" x="90" y="225" width="15" height="15"></rect>
                <rect id="Rectangle" fill="#000000" x="90" y="225" width="15" height="15"></rect>
                <rect id="Rectangle" fill="#000000" x="105" y="225" width="15" height="15"></rect>
                <rect id="Rectangle" fill="#FFC200" x="0" y="15" width="15" height="15"></rect>
                <rect id="Rectangle" fill="#FFC200" x="0" y="15" width="15" height="15"></rect>
                <rect id="Rectangle" fill="#FFC200" x="15" y="15" width="15" height="15"></rect>
                <rect id="Rectangle" fill="#FFC200" x="30" y="15" width="15" height="15"></rect>
                <rect id="Rectangle" fill="#FFC200" x="45" y="15" width="15" height="15"></rect>
                <rect id="Rectangle" fill="#FFC200" x="60" y="15" width="15" height="15"></rect>
                <rect id="Rectangle" fill="#FFC200" x="75" y="15" width="15" height="15"></rect>
                <rect id="Rectangle" fill="#FFC200" x="90" y="15" width="15" height="15"></rect>
                <rect id="Rectangle" fill="#FFC200" x="0" y="30" width="15" height="15"></rect>
                <rect id="Rectangle" fill="#FFC200" x="0" y="30" width="15" height="15"></rect>
                <rect id="Rectangle" fill="#FFC200" x="15" y="30" width="15" height="15"></rect>
                <rect id="Rectangle" fill="#FFC200" x="30" y="30" width="15" height="15"></rect>
                <rect id="Rectangle" fill="#FFC200" x="45" y="30" width="15" height="15"></rect>
                <rect id="Rectangle" fill="#FFC200" x="60" y="30" width="15" height="15"></rect>
                <rect id="Rectangle" fill="#FFC200" x="90" y="30" width="15" height="15"></rect>
                <rect id="Rectangle" fill="#FF9200" x="0" y="45" width="15" height="15"></rect>
                <rect id="Rectangle" fill="#FF9200" x="15" y="45" width="15" height="15"></rect>
                <rect id="Rectangle" fill="#FFC200" x="45" y="45" width="15" height="15"></rect>
                <rect id="Rectangle" fill="#FFC200" x="45" y="60" width="15" height="15"></rect>
                <rect id="Rectangle" fill="#FFC200" x="30" y="45" width="15" height="15"></rect>
                <rect id="Rectangle" fill="#FFC200" x="60" y="45" width="15" height="15"></rect>
                <rect id="Rectangle" fill="#FFC200" x="75" y="45" width="15" height="15"></rect>
                <rect id="Rectangle" fill="#FFC200" x="90" y="45" width="15" height="15"></rect>
                <rect id="Rectangle" fill="#000000" x="0" y="60" width="15" height="15"></rect>
                <rect id="Rectangle" fill="#FF9200" x="15" y="60" width="15" height="15"></rect>
                <rect id="Rectangle" fill="#FF9200" x="30" y="60" width="15" height="15"></rect>
                <rect id="Rectangle" fill="#FFC200" x="60" y="60" width="15" height="15"></rect>
                <rect id="Rectangle" fill="#FFC200" x="75" y="60" width="15" height="15"></rect>
                <rect id="Rectangle" fill="#FFC200" x="90" y="60" width="15" height="15"></rect>
                <rect id="Rectangle" fill="#FF9200" x="15" y="75" width="15" height="15"></rect>
                <rect id="Rectangle" fill="#FF9200" x="30" y="75" width="15" height="15"></rect>
                <rect id="Rectangle" fill="#000000" x="45" y="75" width="15" height="15"></rect>
                <rect id="Rectangle" fill="#FFC200" x="75" y="75" width="15" height="15"></rect>
                <rect id="Rectangle" fill="#FFC200" x="90" y="75" width="15" height="15"></rect>
                <rect id="Rectangle" fill="#FFC200" x="0" y="90" width="15" height="15"></rect>
                <rect id="Rectangle" fill="#FFC200" x="0" y="90" width="15" height="15"></rect>
                <rect id="Rectangle" fill="#FFC200" x="0" y="75" width="15" height="15"></rect>
                <rect id="Rectangle" fill="#FF9200" x="15" y="90" width="15" height="15"></rect>
                <rect id="Rectangle" fill="#FF9200" x="30" y="90" width="15" height="15"></rect>
                <rect id="Rectangle" fill="#000000" x="45" y="90" width="15" height="15"></rect>
                <rect id="Rectangle" fill="#FFC200" x="75" y="90" width="15" height="15"></rect>
                <rect id="Rectangle" fill="#FFC200" x="90" y="90" width="15" height="15"></rect>
                <rect id="Rectangle" fill="#FFC200" x="90" y="90" width="15" height="15"></rect>
                <rect id="Rectangle" fill="#000000" x="105" y="15" width="15" height="15"></rect>
                <rect id="Rectangle" fill="#000000" x="105" y="30" width="15" height="15"></rect>
                <rect id="Rectangle" fill="#000000" x="105" y="45" width="15" height="15"></rect>
                <rect id="Rectangle" fill="#000000" x="105" y="60" width="15" height="15"></rect>
                <rect id="Rectangle" fill="#000000" x="105" y="75" width="15" height="15"></rect>
                <rect id="Rectangle" fill="#000000" x="105" y="90" width="15" height="15"></rect>
                <rect id="Rectangle" fill="#000000" x="105" y="105" width="15" height="15"></rect>
                <rect id="Rectangle" fill="#000000" x="105" y="135" width="15" height="15"></rect>
                <rect id="Rectangle" fill="#000000" x="105" y="150" width="15" height="15"></rect>
                <rect id="Rectangle" fill="#000000" x="105" y="165" width="15" height="15"></rect>
                <rect id="Rectangle" fill="#000000" x="105" y="180" width="15" height="15"></rect>
                <rect id="Rectangle" fill="#000000" x="105" y="195" width="15" height="15"></rect>
                <rect id="Rectangle" fill="#000000" x="105" y="120" width="15" height="15"></rect>
                <rect id="Rectangle" fill="#000000" x="105" y="210" width="15" height="15"></rect>
                <rect id="Rectangle" fill="#FF9200" x="0" y="105" width="15" height="15"></rect>
                <rect id="Rectangle" fill="#FF9200" x="15" y="105" width="15" height="15"></rect>
                <rect id="Rectangle" fill="#FF9200" x="30" y="105" width="15" height="15"></rect>
                <rect id="Rectangle" fill="#000000" x="45" y="105" width="15" height="15"></rect>
                <rect id="Rectangle" fill="#FFC200" x="75" y="105" width="15" height="15"></rect>
                <rect id="Rectangle" fill="#FFC200" x="60" y="75" width="15" height="15"></rect>
                <rect id="Rectangle" fill="#FFC200" x="60" y="90" width="15" height="15"></rect>
                <rect id="Rectangle" fill="#FFC200" x="60" y="105" width="15" height="15"></rect>
                <rect id="Rectangle" fill="#FFC200" x="90" y="105" width="15" height="15"></rect>
                <rect id="Rectangle" fill="#FFC200" x="90" y="105" width="15" height="15"></rect>
                <rect id="Rectangle" fill="#FF9200" x="0" y="120" width="15" height="15"></rect>
                <rect id="Rectangle" fill="#000000" x="15" y="120" width="15" height="15"></rect>
                <rect id="Rectangle" fill="#000000" x="30" y="120" width="15" height="15"></rect>
                <rect id="Rectangle" fill="#FFC200" x="60" y="120" width="15" height="15"></rect>
                <rect id="Rectangle" fill="#FFC200" x="45" y="120" width="15" height="15"></rect>
                <rect id="Rectangle" fill="#FFC200" x="75" y="120" width="15" height="15"></rect>
                <rect id="Rectangle" fill="#FFC200" x="90" y="120" width="15" height="15"></rect>
                <rect id="Rectangle" fill="#FF9200" x="0" y="135" width="15" height="15"></rect>
                <rect id="Rectangle" fill="#000000" x="15" y="135" width="15" height="15"></rect>
                <rect id="Rectangle" fill="#FFC200" x="45" y="135" width="15" height="15"></rect>
                <rect id="Rectangle" fill="#FFC200" x="60" y="135" width="15" height="15"></rect>
                <rect id="Rectangle" fill="#FFC200" x="75" y="135" width="15" height="15"></rect>
                <rect id="Rectangle" fill="#FFC200" x="90" y="135" width="15" height="15"></rect>
                <rect id="Rectangle" fill="#000000" x="0" y="150" width="15" height="15"></rect>
                <rect id="Rectangle" fill="#000000" x="15" y="150" width="15" height="15"></rect>
                <rect id="Rectangle" fill="#FFC200" x="45" y="150" width="15" height="15"></rect>
                <rect id="Rectangle" fill="#FFC200" x="30" y="135" width="15" height="15"></rect>
                <rect id="Rectangle" fill="#FFC200" x="30" y="150" width="15" height="15"></rect>
                <rect id="Rectangle" fill="#FFC200" x="60" y="150" width="15" height="15"></rect>
                <rect id="Rectangle" fill="#FFC200" x="75" y="150" width="15" height="15"></rect>
                <rect id="Rectangle" fill="#FFC200" x="90" y="150" width="15" height="15"></rect>
                <rect id="Rectangle" fill="#FF9200" x="0" y="165" width="15" height="15"></rect>
                <rect id="Rectangle" fill="#FFC200" x="30" y="165" width="15" height="15"></rect>
                <rect id="Rectangle" fill="#FFC200" x="15" y="165" width="15" height="15"></rect>
                <rect id="Rectangle" fill="#FFC200" x="45" y="165" width="15" height="15"></rect>
                <rect id="Rectangle" fill="#FFC200" x="60" y="165" width="15" height="15"></rect>
                <rect id="Rectangle" fill="#FFC200" x="75" y="165" width="15" height="15"></rect>
                <rect id="Rectangle" fill="#FFC200" x="90" y="165" width="15" height="15"></rect>
                <rect id="Rectangle" fill="#FF9200" x="0" y="180" width="15" height="15"></rect>
                <rect id="Rectangle" fill="#000000" x="15" y="180" width="15" height="15"></rect>
                <rect id="Rectangle" fill="#FFC200" x="45" y="180" width="15" height="15"></rect>
                <rect id="Rectangle" fill="#FFC200" x="60" y="180" width="15" height="15"></rect>
                <rect id="Rectangle" fill="#FFC200" x="75" y="180" width="15" height="15"></rect>
                <rect id="Rectangle" fill="#FFC200" x="90" y="180" width="15" height="15"></rect>
                <rect id="Rectangle" fill="#000000" x="0" y="195" width="15" height="15"></rect>
                <rect id="Rectangle" fill="#000000" x="15" y="195" width="15" height="15"></rect>
                <rect id="Rectangle" fill="#FFC200" x="45" y="195" width="15" height="15"></rect>
                <rect id="Rectangle" fill="#FFC200" x="30" y="180" width="15" height="15"></rect>
                <rect id="Rectangle" fill="#FFC200" x="30" y="195" width="15" height="15"></rect>
                <rect id="Rectangle" fill="#FFC200" x="60" y="195" width="15" height="15"></rect>
                <rect id="Rectangle" fill="#FFC200" x="90" y="195" width="15" height="15"></rect>
                <rect id="Rectangle" fill="#FFC200" x="0" y="210" width="15" height="15"></rect>
                <rect id="Rectangle" fill="#FFC200" x="0" y="210" width="15" height="15"></rect>
                <rect id="Rectangle" fill="#FFC200" x="15" y="210" width="15" height="15"></rect>
                <rect id="Rectangle" fill="#FFC200" x="30" y="210" width="15" height="15"></rect>
                <rect id="Rectangle" fill="#FFC200" x="45" y="210" width="15" height="15"></rect>
                <rect id="Rectangle" fill="#FFC200" x="60" y="210" width="15" height="15"></rect>
                <rect id="Rectangle" fill="#FFC200" x="75" y="210" width="15" height="15"></rect>
                <rect id="Rectangle" fill="#FFC200" x="90" y="210" width="15" height="15"></rect>
                <rect id="Rectangle" fill="#FFC200" x="90" y="120" width="15" height="15"></rect>
                <rect id="Rectangle" fill="#FFC200" x="90" y="210" width="15" height="15"></rect>
            </g>
        </g>
    </g>
</svg>