<svg viewBox="0 0 321 321" xmlns="http://www.w3.org/2000/svg">
  <g fill="none" fill-rule="evenodd">
    <path fill="#FF5505" d="M40.387.387h40v40h-40zM120.387.387h40v40h-40zM160.387.387h40v40h-40zM80.387 40.387h40v40h-40zM160.387 40.387h40v40h-40zM200.387 40.387h40v40h-40zM240.387 40.387h40v40h-40zM.387 80.387h40v40h-40zM160.387 80.387h40v40h-40z"/>
    <path fill="currentColor" d="M200.387 80.387h40v40h-40z"/>
    <path fill="#FF5505" d="M240.387 80.387h40v40h-40zM280.387 80.387h40v40h-40zM80.387 120.387h40v40h-40zM120.387 120.387h40v40h-40zM160.387 120.387h40v40h-40z"/>
    <path fill="currentColor" d="M200.387 120.387h40v40h-40zM240.387 120.387h40v40h-40z"/>
    <path fill="#FF5505" d="M280.387 120.387h40v40h-40zM40.387 160.387h40v40h-40zM80.387 160.387h40v40h-40z"/>
    <path fill="currentColor" d="M120.387 160.387h40v40h-40zM160.387 160.387h40v40h-40zM240.387 160.387h40v40h-40z"/>
    <path fill="#FF5505" d="M280.387 160.387h40v40h-40zM40.387 200.387h40v40h-40z"/>
    <path fill="currentColor" d="M80.387 200.387h40v40h-40zM120.387 200.387h40v40h-40zM200.387 200.387h40v40h-40z"/>
    <path fill="#FF5505" d="M240.387 200.387h40v40h-40zM280.387 200.387h40v40h-40zM40.387 240.387h40v40h-40zM80.387 240.387h40v40h-40z"/>
    <path fill="currentColor" d="M120.387 240.387h40v40h-40zM160.387 240.387h40v40h-40z"/>
    <path fill="#FF5505" d="M200.387 240.387h40v40h-40zM240.387 240.387h40v40h-40zM80.387 280.387h40v40h-40zM120.387 280.387h40v40h-40zM160.387 280.387h40v40h-40zM200.387 280.387h40v40h-40z"/>
  </g>
</svg>