<?xml version="1.0" encoding="UTF-8"?>
<svg width="320px" height="440px" viewBox="0 0 320 440" version="1.1" xmlns="http://www.w3.org/2000/svg" xmlns:xlink="http://www.w3.org/1999/xlink">
    <!-- Generator: Sketch 54.1 (76490) - https://sketchapp.com -->
    <title>Group</title>
    <desc>Created with Sketch.</desc>
    <g id="Cloud-Guy" stroke="none" stroke-width="1" fill="none" fill-rule="evenodd">
        <g id="Group">
            <rect id="Rectangle" fill="#D8D8D8" x="100" y="0" width="20" height="20"></rect>
            <rect id="Rectangle" fill="#D8D8D8" x="120" y="0" width="20" height="20"></rect>
            <rect id="Rectangle" fill="#D8D8D8" x="140" y="0" width="20" height="20"></rect>
            <rect id="Rectangle" fill="#D8D8D8" x="160" y="0" width="20" height="20"></rect>
            <rect id="Rectangle" fill="#D8D8D8" x="180" y="0" width="20" height="20"></rect>
            <rect id="Rectangle" fill="#D8D8D8" x="80" y="20" width="20" height="20"></rect>
            <rect id="Rectangle" fill="#D8D8D8" x="100" y="20" width="20" height="20"></rect>
            <rect id="Rectangle" fill="#D8D8D8" x="120" y="20" width="20" height="20"></rect>
            <rect id="Rectangle" fill="#D8D8D8" x="140" y="20" width="20" height="20"></rect>
            <rect id="Rectangle" fill="#D8D8D8" x="160" y="20" width="20" height="20"></rect>
            <rect id="Rectangle" fill="#D8D8D8" x="180" y="20" width="20" height="20"></rect>
            <rect id="Rectangle" fill="#D8D8D8" x="200" y="20" width="20" height="20"></rect>
            <rect id="Rectangle" fill="#D8D8D8" x="100" y="0" width="20" height="20"></rect>
            <rect id="Rectangle" fill="#D8D8D8" x="120" y="0" width="20" height="20"></rect>
            <rect id="Rectangle" fill="#D8D8D8" x="140" y="0" width="20" height="20"></rect>
            <rect id="Rectangle" fill="#D8D8D8" x="160" y="0" width="20" height="20"></rect>
            <rect id="Rectangle" fill="#D8D8D8" x="180" y="0" width="20" height="20"></rect>
            <rect id="Rectangle" fill="#D8D8D8" x="80" y="20" width="20" height="20"></rect>
            <rect id="Rectangle" fill="#D8D8D8" x="100" y="20" width="20" height="20"></rect>
            <rect id="Rectangle" fill="#D8D8D8" x="120" y="20" width="20" height="20"></rect>
            <rect id="Rectangle" fill="#D8D8D8" x="140" y="20" width="20" height="20"></rect>
            <rect id="Rectangle" fill="#D8D8D8" x="160" y="20" width="20" height="20"></rect>
            <rect id="Rectangle" fill="#D8D8D8" x="180" y="20" width="20" height="20"></rect>
            <rect id="Rectangle" fill="#D8D8D8" x="200" y="20" width="20" height="20"></rect>
            <rect id="Rectangle" fill="#D8D8D8" x="60" y="40" width="20" height="20"></rect>
            <rect id="Rectangle" fill="#D8D8D8" x="80" y="40" width="20" height="20"></rect>
            <rect id="Rectangle" fill="#D8D8D8" x="100" y="40" width="20" height="20"></rect>
            <rect id="Rectangle" fill="#D8D8D8" x="120" y="40" width="20" height="20"></rect>
            <rect id="Rectangle" fill="#D8D8D8" x="140" y="40" width="20" height="20"></rect>
            <rect id="Rectangle" fill="#D8D8D8" x="160" y="40" width="20" height="20"></rect>
            <rect id="Rectangle" fill="#D8D8D8" x="180" y="40" width="20" height="20"></rect>
            <rect id="Rectangle" fill="#D8D8D8" x="200" y="40" width="20" height="20"></rect>
            <rect id="Rectangle" fill="#D8D8D8" x="220" y="40" width="20" height="20"></rect>
            <rect id="Rectangle" fill="#D8D8D8" x="40" y="60" width="20" height="20"></rect>
            <rect id="Rectangle" fill="#D8D8D8" x="60" y="60" width="20" height="20"></rect>
            <rect id="Rectangle" fill="#D8D8D8" x="80" y="60" width="20" height="20"></rect>
            <rect id="Rectangle" fill="#D8D8D8" x="100" y="60" width="20" height="20"></rect>
            <rect id="Rectangle" fill="#D8D8D8" x="120" y="60" width="20" height="20"></rect>
            <rect id="Rectangle" fill="#D8D8D8" x="140" y="60" width="20" height="20"></rect>
            <rect id="Rectangle" fill="#D8D8D8" x="160" y="60" width="20" height="20"></rect>
            <rect id="Rectangle" fill="#D8D8D8" x="180" y="60" width="20" height="20"></rect>
            <rect id="Rectangle" fill="#D8D8D8" x="200" y="60" width="20" height="20"></rect>
            <rect id="Rectangle" fill="#D8D8D8" x="220" y="60" width="20" height="20"></rect>
            <rect id="Rectangle" fill="#D8D8D8" x="40" y="80" width="20" height="20"></rect>
            <rect id="Rectangle" fill="#D8D8D8" x="60" y="80" width="20" height="20"></rect>
            <rect id="Rectangle" fill="#D8D8D8" x="80" y="80" width="20" height="20"></rect>
            <rect id="Rectangle" fill="#D8D8D8" x="100" y="80" width="20" height="20"></rect>
            <rect id="Rectangle" fill="#D8D8D8" x="120" y="80" width="20" height="20"></rect>
            <rect id="Rectangle" fill="#D8D8D8" x="140" y="80" width="20" height="20"></rect>
            <rect id="Rectangle" fill="#D8D8D8" x="160" y="80" width="20" height="20"></rect>
            <rect id="Rectangle" fill="#D8D8D8" x="180" y="80" width="20" height="20"></rect>
            <rect id="Rectangle" fill="#D8D8D8" x="200" y="80" width="20" height="20"></rect>
            <rect id="Rectangle" fill="#D8D8D8" x="220" y="80" width="20" height="20"></rect>
            <rect id="Rectangle" fill="#D8D8D8" x="240" y="80" width="20" height="20"></rect>
            <rect id="Rectangle" fill="#D8D8D8" x="40" y="100" width="20" height="20"></rect>
            <rect id="Rectangle" fill="#D8D8D8" x="60" y="100" width="20" height="20"></rect>
            <rect id="Rectangle" fill="#D8D8D8" x="80" y="100" width="20" height="20"></rect>
            <rect id="Rectangle" fill="#D8D8D8" x="100" y="100" width="20" height="20"></rect>
            <rect id="Rectangle" fill="#D8D8D8" x="120" y="100" width="20" height="20"></rect>
            <rect id="Rectangle" fill="#D8D8D8" x="140" y="100" width="20" height="20"></rect>
            <rect id="Rectangle" fill="#D8D8D8" x="160" y="100" width="20" height="20"></rect>
            <rect id="Rectangle" fill="#D8D8D8" x="180" y="100" width="20" height="20"></rect>
            <rect id="Rectangle" fill="#D8D8D8" x="200" y="100" width="20" height="20"></rect>
            <rect id="Rectangle" fill="#D8D8D8" x="220" y="100" width="20" height="20"></rect>
            <rect id="Rectangle" fill="#D8D8D8" x="240" y="100" width="20" height="20"></rect>
            <rect id="Rectangle" fill="#D8D8D8" x="260" y="100" width="20" height="20"></rect>
            <rect id="Rectangle" fill="#D8D8D8" x="100" y="0" width="20" height="20"></rect>
            <rect id="Rectangle" fill="#D8D8D8" x="120" y="0" width="20" height="20"></rect>
            <rect id="Rectangle" fill="#D8D8D8" x="140" y="0" width="20" height="20"></rect>
            <rect id="Rectangle" fill="#D8D8D8" x="160" y="0" width="20" height="20"></rect>
            <rect id="Rectangle" fill="#D8D8D8" x="180" y="0" width="20" height="20"></rect>
            <rect id="Rectangle" fill="#D8D8D8" x="80" y="20" width="20" height="20"></rect>
            <rect id="Rectangle" fill="#D8D8D8" x="100" y="20" width="20" height="20"></rect>
            <rect id="Rectangle" fill="#D8D8D8" x="120" y="20" width="20" height="20"></rect>
            <rect id="Rectangle" fill="#D8D8D8" x="140" y="20" width="20" height="20"></rect>
            <rect id="Rectangle" fill="#D8D8D8" x="160" y="20" width="20" height="20"></rect>
            <rect id="Rectangle" fill="#D8D8D8" x="180" y="20" width="20" height="20"></rect>
            <rect id="Rectangle" fill="#D8D8D8" x="200" y="20" width="20" height="20"></rect>
            <rect id="Rectangle" fill="#D8D8D8" x="100" y="0" width="20" height="20"></rect>
            <rect id="Rectangle" fill="#D8D8D8" x="120" y="0" width="20" height="20"></rect>
            <rect id="Rectangle" fill="#D8D8D8" x="140" y="0" width="20" height="20"></rect>
            <rect id="Rectangle" fill="#D8D8D8" x="160" y="0" width="20" height="20"></rect>
            <rect id="Rectangle" fill="#D8D8D8" x="180" y="0" width="20" height="20"></rect>
            <rect id="Rectangle" fill="#D8D8D8" x="80" y="20" width="20" height="20"></rect>
            <rect id="Rectangle" fill="#D8D8D8" x="100" y="20" width="20" height="20"></rect>
            <rect id="Rectangle" fill="#D8D8D8" x="120" y="20" width="20" height="20"></rect>
            <rect id="Rectangle" fill="#D8D8D8" x="140" y="20" width="20" height="20"></rect>
            <rect id="Rectangle" fill="#D8D8D8" x="160" y="20" width="20" height="20"></rect>
            <rect id="Rectangle" fill="#D8D8D8" x="180" y="20" width="20" height="20"></rect>
            <rect id="Rectangle" fill="#D8D8D8" x="200" y="20" width="20" height="20"></rect>
            <rect id="Rectangle" fill="#D8D8D8" x="60" y="40" width="20" height="20"></rect>
            <rect id="Rectangle" fill="#D8D8D8" x="80" y="40" width="20" height="20"></rect>
            <rect id="Rectangle" fill="#D8D8D8" x="100" y="40" width="20" height="20"></rect>
            <rect id="Rectangle" fill="#D8D8D8" x="120" y="40" width="20" height="20"></rect>
            <rect id="Rectangle" fill="#D8D8D8" x="140" y="40" width="20" height="20"></rect>
            <rect id="Rectangle" fill="#D8D8D8" x="160" y="40" width="20" height="20"></rect>
            <rect id="Rectangle" fill="#D8D8D8" x="180" y="40" width="20" height="20"></rect>
            <rect id="Rectangle" fill="#D8D8D8" x="200" y="40" width="20" height="20"></rect>
            <rect id="Rectangle" fill="#D8D8D8" x="220" y="40" width="20" height="20"></rect>
            <rect id="Rectangle" fill="#D8D8D8" x="40" y="60" width="20" height="20"></rect>
            <rect id="Rectangle" fill="#D8D8D8" x="60" y="60" width="20" height="20"></rect>
            <rect id="Rectangle" fill="#D8D8D8" x="80" y="60" width="20" height="20"></rect>
            <rect id="Rectangle" fill="#D8D8D8" x="100" y="60" width="20" height="20"></rect>
            <rect id="Rectangle" fill="#D8D8D8" x="120" y="60" width="20" height="20"></rect>
            <rect id="Rectangle" fill="#D8D8D8" x="140" y="60" width="20" height="20"></rect>
            <rect id="Rectangle" fill="#D8D8D8" x="160" y="60" width="20" height="20"></rect>
            <rect id="Rectangle" fill="#D8D8D8" x="180" y="60" width="20" height="20"></rect>
            <rect id="Rectangle" fill="#D8D8D8" x="200" y="60" width="20" height="20"></rect>
            <rect id="Rectangle" fill="#D8D8D8" x="220" y="60" width="20" height="20"></rect>
            <rect id="Rectangle" fill="#D8D8D8" x="40" y="80" width="20" height="20"></rect>
            <rect id="Rectangle" fill="#D8D8D8" x="60" y="80" width="20" height="20"></rect>
            <rect id="Rectangle" fill="#D8D8D8" x="80" y="80" width="20" height="20"></rect>
            <rect id="Rectangle" fill="#D8D8D8" x="100" y="80" width="20" height="20"></rect>
            <rect id="Rectangle" fill="#D8D8D8" x="120" y="80" width="20" height="20"></rect>
            <rect id="Rectangle" fill="#D8D8D8" x="140" y="80" width="20" height="20"></rect>
            <rect id="Rectangle" fill="#D8D8D8" x="160" y="80" width="20" height="20"></rect>
            <rect id="Rectangle" fill="#D8D8D8" x="180" y="80" width="20" height="20"></rect>
            <rect id="Rectangle" fill="#D8D8D8" x="200" y="80" width="20" height="20"></rect>
            <rect id="Rectangle" fill="#D8D8D8" x="220" y="80" width="20" height="20"></rect>
            <rect id="Rectangle" fill="#D8D8D8" x="240" y="80" width="20" height="20"></rect>
            <rect id="Rectangle" fill="#D8D8D8" x="40" y="100" width="20" height="20"></rect>
            <rect id="Rectangle" fill="#D8D8D8" x="60" y="100" width="20" height="20"></rect>
            <rect id="Rectangle" fill="#D8D8D8" x="80" y="100" width="20" height="20"></rect>
            <rect id="Rectangle" fill="#D8D8D8" x="100" y="100" width="20" height="20"></rect>
            <rect id="Rectangle" fill="#D8D8D8" x="120" y="100" width="20" height="20"></rect>
            <rect id="Rectangle" fill="#D8D8D8" x="140" y="100" width="20" height="20"></rect>
            <rect id="Rectangle" fill="#D8D8D8" x="160" y="100" width="20" height="20"></rect>
            <rect id="Rectangle" fill="#D8D8D8" x="180" y="100" width="20" height="20"></rect>
            <rect id="Rectangle" fill="#D8D8D8" x="200" y="100" width="20" height="20"></rect>
            <rect id="Rectangle" fill="#D8D8D8" x="220" y="100" width="20" height="20"></rect>
            <rect id="Rectangle" fill="#D8D8D8" x="240" y="100" width="20" height="20"></rect>
            <rect id="Rectangle" fill="#D8D8D8" x="260" y="100" width="20" height="20"></rect>
            <rect id="Rectangle" fill="#D8D8D8" x="100" y="0" width="20" height="20"></rect>
            <rect id="Rectangle" fill="#D8D8D8" x="120" y="0" width="20" height="20"></rect>
            <rect id="Rectangle" fill="#D8D8D8" x="140" y="0" width="20" height="20"></rect>
            <rect id="Rectangle" fill="#D8D8D8" x="160" y="0" width="20" height="20"></rect>
            <rect id="Rectangle" fill="#D8D8D8" x="180" y="0" width="20" height="20"></rect>
            <rect id="Rectangle" fill="#D8D8D8" x="80" y="20" width="20" height="20"></rect>
            <rect id="Rectangle" fill="#D8D8D8" x="100" y="20" width="20" height="20"></rect>
            <rect id="Rectangle" fill="#D8D8D8" x="120" y="20" width="20" height="20"></rect>
            <rect id="Rectangle" fill="#D8D8D8" x="140" y="20" width="20" height="20"></rect>
            <rect id="Rectangle" fill="#D8D8D8" x="160" y="20" width="20" height="20"></rect>
            <rect id="Rectangle" fill="#D8D8D8" x="180" y="20" width="20" height="20"></rect>
            <rect id="Rectangle" fill="#D8D8D8" x="200" y="20" width="20" height="20"></rect>
            <rect id="Rectangle" fill="#FFC300" x="100" y="0" width="20" height="20"></rect>
            <rect id="Rectangle" fill="#FFC300" x="120" y="0" width="20" height="20"></rect>
            <rect id="Rectangle" fill="#FFC300" x="140" y="0" width="20" height="20"></rect>
            <rect id="Rectangle" fill="#FFC300" x="160" y="0" width="20" height="20"></rect>
            <rect id="Rectangle" fill="#FFC300" x="180" y="0" width="20" height="20"></rect>
            <rect id="Rectangle" fill="#FFC300" x="80" y="20" width="20" height="20"></rect>
            <rect id="Rectangle" fill="#FFC300" x="100" y="20" width="20" height="20"></rect>
            <rect id="Rectangle" fill="#FFC300" x="120" y="20" width="20" height="20"></rect>
            <rect id="Rectangle" fill="#FFC300" x="140" y="20" width="20" height="20"></rect>
            <rect id="Rectangle" fill="#FFC300" x="160" y="20" width="20" height="20"></rect>
            <rect id="Rectangle" fill="#FFC300" x="180" y="20" width="20" height="20"></rect>
            <rect id="Rectangle" fill="#FFC300" x="200" y="20" width="20" height="20"></rect>
            <rect id="Rectangle" fill="#13B348" x="60" y="40" width="20" height="20"></rect>
            <rect id="Rectangle" fill="#13B348" x="80" y="40" width="20" height="20"></rect>
            <rect id="Rectangle" fill="#13B348" x="100" y="40" width="20" height="20"></rect>
            <rect id="Rectangle" fill="#FFC300" x="120" y="40" width="20" height="20"></rect>
            <rect id="Rectangle" fill="#13B348" x="140" y="40" width="20" height="20"></rect>
            <rect id="Rectangle" fill="#13B348" x="160" y="40" width="20" height="20"></rect>
            <rect id="Rectangle" fill="#13B348" x="180" y="40" width="20" height="20"></rect>
            <rect id="Rectangle" fill="#FFC300" x="200" y="40" width="20" height="20"></rect>
            <rect id="Rectangle" fill="#FFC300" x="220" y="40" width="20" height="20"></rect>
            <rect id="Rectangle" fill="#13B348" x="40" y="60" width="20" height="20"></rect>
            <rect id="Rectangle" fill="#FFFFFF" x="60" y="60" width="20" height="20"></rect>
            <rect id="Rectangle" fill="#FFFFFF" x="80" y="60" width="20" height="20"></rect>
            <rect id="Rectangle" fill="#FFFFFF" x="100" y="60" width="20" height="20"></rect>
            <rect id="Rectangle" fill="#13B348" x="120" y="60" width="20" height="20"></rect>
            <rect id="Rectangle" fill="#FFFFFF" x="140" y="60" width="20" height="20"></rect>
            <rect id="Rectangle" fill="#FFFFFF" x="160" y="60" width="20" height="20"></rect>
            <rect id="Rectangle" fill="#FFFFFF" x="180" y="60" width="20" height="20"></rect>
            <rect id="Rectangle" fill="#13B348" x="200" y="60" width="20" height="20"></rect>
            <rect id="Rectangle" fill="#FFC300" x="220" y="60" width="20" height="20"></rect>
            <rect id="Rectangle" fill="#13B348" x="40" y="80" width="20" height="20"></rect>
            <rect id="Rectangle" fill="#FFFFFF" x="60" y="80" width="20" height="20"></rect>
            <rect id="Rectangle" fill="#FFFFFF" x="80" y="80" width="20" height="20"></rect>
            <rect id="Rectangle" fill="#13B348" x="100" y="80" width="20" height="20"></rect>
            <rect id="Rectangle" fill="#FFFFFF" x="120" y="80" width="20" height="20"></rect>
            <rect id="Rectangle" fill="#13B348" x="140" y="80" width="20" height="20"></rect>
            <rect id="Rectangle" fill="#FFFFFF" x="160" y="80" width="20" height="20"></rect>
            <rect id="Rectangle" fill="#FFFFFF" x="180" y="80" width="20" height="20"></rect>
            <rect id="Rectangle" fill="#13B348" x="200" y="80" width="20" height="20"></rect>
            <rect id="Rectangle" fill="#FFC300" x="220" y="80" width="20" height="20"></rect>
            <rect id="Rectangle" fill="#13B348" x="240" y="80" width="20" height="20"></rect>
            <rect id="Rectangle" fill="#13B348" x="40" y="100" width="20" height="20"></rect>
            <rect id="Rectangle" fill="#FFFFFF" x="60" y="100" width="20" height="20"></rect>
            <rect id="Rectangle" fill="#FFFFFF" x="80" y="100" width="20" height="20"></rect>
            <rect id="Rectangle" fill="#13B348" x="100" y="100" width="20" height="20"></rect>
            <rect id="Rectangle" fill="#FFFFFF" x="120" y="100" width="20" height="20"></rect>
            <rect id="Rectangle" fill="#13B348" x="140" y="100" width="20" height="20"></rect>
            <rect id="Rectangle" fill="#FFFFFF" x="160" y="100" width="20" height="20"></rect>
            <rect id="Rectangle" fill="#FFFFFF" x="180" y="100" width="20" height="20"></rect>
            <rect id="Rectangle" fill="#13B348" x="200" y="100" width="20" height="20"></rect>
            <rect id="Rectangle" fill="#FFC300" x="220" y="100" width="20" height="20"></rect>
            <rect id="Rectangle" fill="#13B348" x="240" y="100" width="20" height="20"></rect>
            <rect id="Rectangle" fill="#13B348" x="260" y="100" width="20" height="20"></rect>
            <rect id="Rectangle" fill="#D8D8D8" x="60" y="120" width="20" height="20"></rect>
            <rect id="Rectangle" fill="#D8D8D8" x="80" y="120" width="20" height="20"></rect>
            <rect id="Rectangle" fill="#D8D8D8" x="100" y="120" width="20" height="20"></rect>
            <rect id="Rectangle" fill="#D8D8D8" x="120" y="120" width="20" height="20"></rect>
            <rect id="Rectangle" fill="#D8D8D8" x="140" y="120" width="20" height="20"></rect>
            <rect id="Rectangle" fill="#D8D8D8" x="160" y="120" width="20" height="20"></rect>
            <rect id="Rectangle" fill="#D8D8D8" x="180" y="120" width="20" height="20"></rect>
            <rect id="Rectangle" fill="#D8D8D8" x="200" y="120" width="20" height="20"></rect>
            <rect id="Rectangle" fill="#D8D8D8" x="220" y="120" width="20" height="20"></rect>
            <rect id="Rectangle" fill="#D8D8D8" x="240" y="120" width="20" height="20"></rect>
            <rect id="Rectangle" fill="#D8D8D8" x="260" y="120" width="20" height="20"></rect>
            <rect id="Rectangle" fill="#D8D8D8" x="60" y="140" width="20" height="20"></rect>
            <rect id="Rectangle" fill="#D8D8D8" x="80" y="140" width="20" height="20"></rect>
            <rect id="Rectangle" fill="#D8D8D8" x="100" y="140" width="20" height="20"></rect>
            <rect id="Rectangle" fill="#D8D8D8" x="120" y="140" width="20" height="20"></rect>
            <rect id="Rectangle" fill="#D8D8D8" x="140" y="140" width="20" height="20"></rect>
            <rect id="Rectangle" fill="#D8D8D8" x="160" y="140" width="20" height="20"></rect>
            <rect id="Rectangle" fill="#D8D8D8" x="180" y="140" width="20" height="20"></rect>
            <rect id="Rectangle" fill="#D8D8D8" x="200" y="140" width="20" height="20"></rect>
            <rect id="Rectangle" fill="#D8D8D8" x="220" y="140" width="20" height="20"></rect>
            <rect id="Rectangle" fill="#D8D8D8" x="240" y="140" width="20" height="20"></rect>
            <rect id="Rectangle" fill="#D8D8D8" x="260" y="140" width="20" height="20"></rect>
            <rect id="Rectangle" fill="#13B348" x="60" y="120" width="20" height="20"></rect>
            <rect id="Rectangle" fill="#13B348" x="80" y="120" width="20" height="20"></rect>
            <rect id="Rectangle" fill="#13B348" x="100" y="120" width="20" height="20"></rect>
            <rect id="Rectangle" fill="#FFC300" x="120" y="120" width="20" height="20"></rect>
            <rect id="Rectangle" fill="#13B348" x="140" y="120" width="20" height="20"></rect>
            <rect id="Rectangle" fill="#13B348" x="160" y="120" width="20" height="20"></rect>
            <rect id="Rectangle" fill="#13B348" x="180" y="120" width="20" height="20"></rect>
            <rect id="Rectangle" fill="#13B348" x="200" y="120" width="20" height="20"></rect>
            <rect id="Rectangle" fill="#13B348" x="220" y="120" width="20" height="20"></rect>
            <rect id="Rectangle" fill="#13B348" x="240" y="120" width="20" height="20"></rect>
            <rect id="Rectangle" fill="#13B348" x="260" y="120" width="20" height="20"></rect>
            <rect id="Rectangle" fill="#FFC300" x="60" y="140" width="20" height="20"></rect>
            <rect id="Rectangle" fill="#FFC300" x="80" y="140" width="20" height="20"></rect>
            <rect id="Rectangle" fill="#FFC300" x="100" y="140" width="20" height="20"></rect>
            <rect id="Rectangle" fill="#13B348" x="120" y="140" width="20" height="20"></rect>
            <rect id="Rectangle" fill="#13B348" x="140" y="140" width="20" height="20"></rect>
            <rect id="Rectangle" fill="#13B348" x="160" y="140" width="20" height="20"></rect>
            <rect id="Rectangle" fill="#13B348" x="180" y="140" width="20" height="20"></rect>
            <rect id="Rectangle" fill="#FFC300" x="200" y="140" width="20" height="20"></rect>
            <rect id="Rectangle" fill="#FFC300" x="220" y="140" width="20" height="20"></rect>
            <rect id="Rectangle" fill="#FFC300" x="240" y="140" width="20" height="20"></rect>
            <rect id="Rectangle" fill="#13B348" x="260" y="140" width="20" height="20"></rect>
            <rect id="Rectangle" fill="#FFC300" x="40" y="160" width="20" height="20"></rect>
            <rect id="Rectangle" fill="#FFC300" x="60" y="160" width="20" height="20"></rect>
            <rect id="Rectangle" fill="#FFC300" x="80" y="160" width="20" height="20"></rect>
            <rect id="Rectangle" fill="#FFC300" x="100" y="160" width="20" height="20"></rect>
            <rect id="Rectangle" fill="#FFC300" x="120" y="160" width="20" height="20"></rect>
            <rect id="Rectangle" fill="#13B348" x="140" y="160" width="20" height="20"></rect>
            <rect id="Rectangle" fill="#13B348" x="160" y="160" width="20" height="20"></rect>
            <rect id="Rectangle" fill="#FFC300" x="180" y="160" width="20" height="20"></rect>
            <rect id="Rectangle" fill="#FFC300" x="200" y="160" width="20" height="20"></rect>
            <rect id="Rectangle" fill="#FFC300" x="220" y="160" width="20" height="20"></rect>
            <rect id="Rectangle" fill="#FFC300" x="240" y="160" width="20" height="20"></rect>
            <rect id="Rectangle" fill="#FFC300" x="260" y="160" width="20" height="20"></rect>
            <rect id="Rectangle" fill="#FFC300" x="40" y="180" width="20" height="20"></rect>
            <rect id="Rectangle" fill="#FFC300" x="60" y="180" width="20" height="20"></rect>
            <rect id="Rectangle" fill="#FFC300" x="80" y="180" width="20" height="20"></rect>
            <rect id="Rectangle" fill="#FFC300" x="100" y="180" width="20" height="20"></rect>
            <rect id="Rectangle" fill="#FFC300" x="120" y="180" width="20" height="20"></rect>
            <rect id="Rectangle" fill="#FFFFFF" x="140" y="180" width="20" height="20"></rect>
            <rect id="Rectangle" fill="#FFFFFF" x="160" y="180" width="20" height="20"></rect>
            <rect id="Rectangle" fill="#FFC300" x="180" y="180" width="20" height="20"></rect>
            <rect id="Rectangle" fill="#FFC300" x="200" y="180" width="20" height="20"></rect>
            <rect id="Rectangle" fill="#FFC300" x="220" y="180" width="20" height="20"></rect>
            <rect id="Rectangle" fill="#FFC300" x="240" y="180" width="20" height="20"></rect>
            <rect id="Rectangle" fill="#FFC300" x="260" y="180" width="20" height="20"></rect>
            <rect id="Rectangle" fill="#FFFFFF" x="40" y="200" width="20" height="20"></rect>
            <rect id="Rectangle" fill="#13B348" x="20" y="160" width="20" height="20"></rect>
            <rect id="Rectangle" fill="#13B348" x="20" y="180" width="20" height="20"></rect>
            <rect id="Rectangle" fill="#13B348" x="20" y="200" width="20" height="20"></rect>
            <rect id="Rectangle" fill="#FFC300" x="60" y="200" width="20" height="20"></rect>
            <rect id="Rectangle" fill="#FFC300" x="80" y="200" width="20" height="20"></rect>
            <rect id="Rectangle" fill="#FFC300" x="100" y="200" width="20" height="20"></rect>
            <rect id="Rectangle" fill="#FFFFFF" x="140" y="200" width="20" height="20"></rect>
            <rect id="Rectangle" fill="#FFFFFF" x="160" y="200" width="20" height="20"></rect>
            <rect id="Rectangle" fill="#FFFFFF" x="180" y="200" width="20" height="20"></rect>
            <rect id="Rectangle" fill="#FFC300" x="200" y="200" width="20" height="20"></rect>
            <rect id="Rectangle" fill="#FFC300" x="220" y="200" width="20" height="20"></rect>
            <rect id="Rectangle" fill="#FFC300" x="240" y="200" width="20" height="20"></rect>
            <rect id="Rectangle" fill="#FFFFFF" x="260" y="200" width="20" height="20"></rect>
            <rect id="Rectangle" fill="#13B348" x="280" y="140" width="20" height="20"></rect>
            <rect id="Rectangle" fill="#13B348" x="280" y="140" width="20" height="20"></rect>
            <rect id="Rectangle" fill="#13B348" x="280" y="160" width="20" height="20"></rect>
            <rect id="Rectangle" fill="#13B348" x="280" y="180" width="20" height="20"></rect>
            <rect id="Rectangle" fill="#13B348" x="280" y="200" width="20" height="20"></rect>
            <rect id="Rectangle" fill="#FFFFFF" x="40" y="220" width="20" height="20"></rect>
            <rect id="Rectangle" fill="#FFFFFF" x="60" y="220" width="20" height="20"></rect>
            <rect id="Rectangle" fill="#FFFFFF" x="80" y="220" width="20" height="20"></rect>
            <rect id="Rectangle" fill="#FFFFFF" x="100" y="220" width="20" height="20"></rect>
            <rect id="Rectangle" fill="#FFFFFF" x="120" y="220" width="20" height="20"></rect>
            <rect id="Rectangle" fill="#FFFFFF" x="140" y="220" width="20" height="20"></rect>
            <rect id="Rectangle" fill="#FFFFFF" x="160" y="220" width="20" height="20"></rect>
            <rect id="Rectangle" fill="#FFFFFF" x="180" y="220" width="20" height="20"></rect>
            <rect id="Rectangle" fill="#FFFFFF" x="200" y="220" width="20" height="20"></rect>
            <rect id="Rectangle" fill="#FFFFFF" x="220" y="220" width="20" height="20"></rect>
            <rect id="Rectangle" fill="#FFFFFF" x="240" y="220" width="20" height="20"></rect>
            <rect id="Rectangle" fill="#FFFFFF" x="260" y="220" width="20" height="20"></rect>
            <rect id="Rectangle" fill="#FFFFFF" x="40" y="240" width="20" height="20"></rect>
            <rect id="Rectangle" fill="#D8D8D8" x="60" y="240" width="20" height="20"></rect>
            <rect id="Rectangle" fill="#D8D8D8" x="80" y="240" width="20" height="20"></rect>
            <rect id="Rectangle" fill="#D8D8D8" x="100" y="240" width="20" height="20"></rect>
            <rect id="Rectangle" fill="#D8D8D8" x="120" y="240" width="20" height="20"></rect>
            <rect id="Rectangle" fill="#D8D8D8" x="140" y="240" width="20" height="20"></rect>
            <rect id="Rectangle" fill="#D8D8D8" x="160" y="240" width="20" height="20"></rect>
            <rect id="Rectangle" fill="#D8D8D8" x="180" y="240" width="20" height="20"></rect>
            <rect id="Rectangle" fill="#FFFFFF" x="200" y="240" width="20" height="20"></rect>
            <rect id="Rectangle" fill="#FFFFFF" x="220" y="240" width="20" height="20"></rect>
            <rect id="Rectangle" fill="#FFFFFF" x="240" y="240" width="20" height="20"></rect>
            <rect id="Rectangle" fill="#FFFFFF" x="260" y="240" width="20" height="20"></rect>
            <rect id="Rectangle" fill="#FFFFFF" x="40" y="260" width="20" height="20"></rect>
            <rect id="Rectangle" fill="#D8D8D8" x="60" y="260" width="20" height="20"></rect>
            <rect id="Rectangle" fill="#D8D8D8" x="80" y="260" width="20" height="20"></rect>
            <rect id="Rectangle" fill="#D8D8D8" x="100" y="260" width="20" height="20"></rect>
            <rect id="Rectangle" fill="#D8D8D8" x="120" y="260" width="20" height="20"></rect>
            <rect id="Rectangle" fill="#D8D8D8" x="140" y="260" width="20" height="20"></rect>
            <rect id="Rectangle" fill="#D8D8D8" x="160" y="260" width="20" height="20"></rect>
            <rect id="Rectangle" fill="#D8D8D8" x="180" y="260" width="20" height="20"></rect>
            <rect id="Rectangle" fill="#FFFFFF" x="200" y="260" width="20" height="20"></rect>
            <rect id="Rectangle" fill="#FFFFFF" x="220" y="260" width="20" height="20"></rect>
            <rect id="Rectangle" fill="#FFFFFF" x="240" y="260" width="20" height="20"></rect>
            <rect id="Rectangle" fill="#FFFFFF" x="260" y="260" width="20" height="20"></rect>
            <rect id="Rectangle" fill="#FFFFFF" x="40" y="240" width="20" height="20"></rect>
            <rect id="Rectangle" fill="#FFFFFF" x="60" y="240" width="20" height="20"></rect>
            <rect id="Rectangle" fill="#FFFFFF" x="80" y="240" width="20" height="20"></rect>
            <rect id="Rectangle" fill="#FFFFFF" x="100" y="240" width="20" height="20"></rect>
            <rect id="Rectangle" fill="#FFFFFF" x="120" y="240" width="20" height="20"></rect>
            <rect id="Rectangle" fill="#FFFFFF" x="140" y="240" width="20" height="20"></rect>
            <rect id="Rectangle" fill="#FFFFFF" x="160" y="240" width="20" height="20"></rect>
            <rect id="Rectangle" fill="#FFFFFF" x="180" y="240" width="20" height="20"></rect>
            <rect id="Rectangle" fill="#FFFFFF" x="200" y="240" width="20" height="20"></rect>
            <rect id="Rectangle" fill="#FFFFFF" x="220" y="240" width="20" height="20"></rect>
            <rect id="Rectangle" fill="#FFFFFF" x="240" y="240" width="20" height="20"></rect>
            <rect id="Rectangle" fill="#FFFFFF" x="260" y="240" width="20" height="20"></rect>
            <rect id="Rectangle" fill="#FFFFFF" x="40" y="260" width="20" height="20"></rect>
            <rect id="Rectangle" fill="#FFFFFF" x="60" y="260" width="20" height="20"></rect>
            <rect id="Rectangle" fill="#FFFFFF" x="80" y="260" width="20" height="20"></rect>
            <rect id="Rectangle" fill="#FFFFFF" x="100" y="260" width="20" height="20"></rect>
            <rect id="Rectangle" fill="#13B348" x="120" y="260" width="20" height="20"></rect>
            <rect id="Rectangle" fill="#FFFFFF" x="140" y="260" width="20" height="20"></rect>
            <rect id="Rectangle" fill="#FFFFFF" x="160" y="260" width="20" height="20"></rect>
            <rect id="Rectangle" fill="#13B348" x="180" y="260" width="20" height="20"></rect>
            <rect id="Rectangle" fill="#FFFFFF" x="200" y="260" width="20" height="20"></rect>
            <rect id="Rectangle" fill="#FFFFFF" x="220" y="260" width="20" height="20"></rect>
            <rect id="Rectangle" fill="#FFFFFF" x="240" y="260" width="20" height="20"></rect>
            <rect id="Rectangle" fill="#FFFFFF" x="260" y="260" width="20" height="20"></rect>
            <rect id="Rectangle" fill="#FFFFFF" x="40" y="280" width="20" height="20"></rect>
            <rect id="Rectangle" fill="#FFFFFF" x="60" y="280" width="20" height="20"></rect>
            <rect id="Rectangle" fill="#FFFFFF" x="80" y="280" width="20" height="20"></rect>
            <rect id="Rectangle" fill="#FFFFFF" x="100" y="280" width="20" height="20"></rect>
            <rect id="Rectangle" fill="#13B348" x="120" y="280" width="20" height="20"></rect>
            <rect id="Rectangle" fill="#FFFFFF" x="140" y="280" width="20" height="20"></rect>
            <rect id="Rectangle" fill="#FFFFFF" x="160" y="280" width="20" height="20"></rect>
            <rect id="Rectangle" fill="#13B348" x="180" y="280" width="20" height="20"></rect>
            <rect id="Rectangle" fill="#FFFFFF" x="200" y="280" width="20" height="20"></rect>
            <rect id="Rectangle" fill="#FFFFFF" x="220" y="280" width="20" height="20"></rect>
            <rect id="Rectangle" fill="#FFFFFF" x="240" y="280" width="20" height="20"></rect>
            <rect id="Rectangle" fill="#FFFFFF" x="260" y="280" width="20" height="20"></rect>
            <rect id="Rectangle" fill="#FFFFFF" x="40" y="300" width="20" height="20"></rect>
            <rect id="Rectangle" fill="#FFFFFF" x="60" y="300" width="20" height="20"></rect>
            <rect id="Rectangle" fill="#FFFFFF" x="80" y="300" width="20" height="20"></rect>
            <rect id="Rectangle" fill="#FFFFFF" x="100" y="300" width="20" height="20"></rect>
            <rect id="Rectangle" fill="#13B348" x="120" y="300" width="20" height="20"></rect>
            <rect id="Rectangle" fill="#FFFFFF" x="140" y="300" width="20" height="20"></rect>
            <rect id="Rectangle" fill="#FFFFFF" x="160" y="300" width="20" height="20"></rect>
            <rect id="Rectangle" fill="#13B348" x="180" y="300" width="20" height="20"></rect>
            <rect id="Rectangle" fill="#FFFFFF" x="200" y="300" width="20" height="20"></rect>
            <rect id="Rectangle" fill="#FFFFFF" x="220" y="300" width="20" height="20"></rect>
            <rect id="Rectangle" fill="#FFFFFF" x="240" y="300" width="20" height="20"></rect>
            <rect id="Rectangle" fill="#FFFFFF" x="260" y="300" width="20" height="20"></rect>
            <rect id="Rectangle" fill="#FFFFFF" x="280" y="220" width="20" height="20"></rect>
            <rect id="Rectangle" fill="#FFFFFF" x="280" y="240" width="20" height="20"></rect>
            <rect id="Rectangle" fill="#FFFFFF" x="280" y="260" width="20" height="20"></rect>
            <rect id="Rectangle" fill="#FFFFFF" x="280" y="280" width="20" height="20"></rect>
            <rect id="Rectangle" fill="#FFFFFF" x="280" y="260" width="20" height="20"></rect>
            <rect id="Rectangle" fill="#FFFFFF" x="280" y="280" width="20" height="20"></rect>
            <rect id="Rectangle" fill="#FFFFFF" x="280" y="300" width="20" height="20"></rect>
            <rect id="Rectangle" fill="#FFFFFF" x="280" y="320" width="20" height="20"></rect>
            <rect id="Rectangle" fill="#13B348" x="300" y="220" width="20" height="20"></rect>
            <rect id="Rectangle" fill="#13B348" x="300" y="240" width="20" height="20"></rect>
            <rect id="Rectangle" fill="#13B348" x="300" y="260" width="20" height="20"></rect>
            <rect id="Rectangle" fill="#13B348" x="300" y="280" width="20" height="20"></rect>
            <rect id="Rectangle" fill="#13B348" x="300" y="260" width="20" height="20"></rect>
            <rect id="Rectangle" fill="#13B348" x="300" y="280" width="20" height="20"></rect>
            <rect id="Rectangle" fill="#13B348" x="300" y="300" width="20" height="20"></rect>
            <rect id="Rectangle" fill="#13B348" x="300" y="320" width="20" height="20"></rect>
            <rect id="Rectangle" fill="#FFFFFF" transform="translate(30.000000, 330.000000) rotate(-180.000000) translate(-30.000000, -330.000000) " x="20" y="320" width="20" height="20"></rect>
            <rect id="Rectangle" fill="#FFFFFF" transform="translate(30.000000, 310.000000) rotate(-180.000000) translate(-30.000000, -310.000000) " x="20" y="300" width="20" height="20"></rect>
            <rect id="Rectangle" fill="#FFFFFF" transform="translate(30.000000, 290.000000) rotate(-180.000000) translate(-30.000000, -290.000000) " x="20" y="280" width="20" height="20"></rect>
            <rect id="Rectangle" fill="#FFFFFF" transform="translate(30.000000, 270.000000) rotate(-180.000000) translate(-30.000000, -270.000000) " x="20" y="260" width="20" height="20"></rect>
            <rect id="Rectangle" fill="#FFFFFF" transform="translate(30.000000, 290.000000) rotate(-180.000000) translate(-30.000000, -290.000000) " x="20" y="280" width="20" height="20"></rect>
            <rect id="Rectangle" fill="#FFFFFF" transform="translate(30.000000, 270.000000) rotate(-180.000000) translate(-30.000000, -270.000000) " x="20" y="260" width="20" height="20"></rect>
            <rect id="Rectangle" fill="#FFFFFF" transform="translate(30.000000, 250.000000) rotate(-180.000000) translate(-30.000000, -250.000000) " x="20" y="240" width="20" height="20"></rect>
            <rect id="Rectangle" fill="#FFFFFF" transform="translate(30.000000, 230.000000) rotate(-180.000000) translate(-30.000000, -230.000000) " x="20" y="220" width="20" height="20"></rect>
            <rect id="Rectangle" fill="#13B348" transform="translate(10.000000, 330.000000) rotate(-180.000000) translate(-10.000000, -330.000000) " x="2.27373675e-13" y="320" width="20" height="20"></rect>
            <rect id="Rectangle" fill="#13B348" transform="translate(10.000000, 310.000000) rotate(-180.000000) translate(-10.000000, -310.000000) " x="1.13686838e-13" y="300" width="20" height="20"></rect>
            <rect id="Rectangle" fill="#13B348" transform="translate(10.000000, 290.000000) rotate(-180.000000) translate(-10.000000, -290.000000) " x="5.68434189e-14" y="280" width="20" height="20"></rect>
            <rect id="Rectangle" fill="#13B348" transform="translate(10.000000, 270.000000) rotate(-180.000000) translate(-10.000000, -270.000000) " x="1.13686838e-13" y="260" width="20" height="20"></rect>
            <rect id="Rectangle" fill="#13B348" transform="translate(10.000000, 290.000000) rotate(-180.000000) translate(-10.000000, -290.000000) " x="5.68434189e-14" y="280" width="20" height="20"></rect>
            <rect id="Rectangle" fill="#13B348" transform="translate(10.000000, 270.000000) rotate(-180.000000) translate(-10.000000, -270.000000) " x="1.13686838e-13" y="260" width="20" height="20"></rect>
            <rect id="Rectangle" fill="#13B348" transform="translate(10.000000, 250.000000) rotate(-180.000000) translate(-10.000000, -250.000000) " x="0" y="240" width="20" height="20"></rect>
            <rect id="Rectangle" fill="#13B348" transform="translate(10.000000, 230.000000) rotate(-180.000000) translate(-10.000000, -230.000000) " x="1.13686838e-13" y="220" width="20" height="20"></rect>
            <rect id="Rectangle" fill="#13B348" x="40" y="320" width="20" height="20"></rect>
            <rect id="Rectangle" fill="#FFFFFF" x="60" y="320" width="20" height="20"></rect>
            <rect id="Rectangle" fill="#FFFFFF" x="80" y="320" width="20" height="20"></rect>
            <rect id="Rectangle" fill="#FFFFFF" x="100" y="320" width="20" height="20"></rect>
            <rect id="Rectangle" fill="#FFFFFF" x="120" y="320" width="20" height="20"></rect>
            <rect id="Rectangle" fill="#FFFFFF" x="140" y="320" width="20" height="20"></rect>
            <rect id="Rectangle" fill="#FFFFFF" x="160" y="320" width="20" height="20"></rect>
            <rect id="Rectangle" fill="#FFFFFF" x="180" y="320" width="20" height="20"></rect>
            <rect id="Rectangle" fill="#FFFFFF" x="200" y="320" width="20" height="20"></rect>
            <rect id="Rectangle" fill="#FFFFFF" x="220" y="320" width="20" height="20"></rect>
            <rect id="Rectangle" fill="#FFFFFF" x="240" y="320" width="20" height="20"></rect>
            <rect id="Rectangle" fill="#13B348" x="260" y="320" width="20" height="20"></rect>
            <rect id="Rectangle" fill="#FFFFFF" x="40" y="340" width="20" height="20"></rect>
            <rect id="Rectangle" fill="#FFFFFF" x="60" y="340" width="20" height="20"></rect>
            <rect id="Rectangle" fill="#FFFFFF" x="80" y="340" width="20" height="20"></rect>
            <rect id="Rectangle" fill="#13B348" x="100" y="340" width="20" height="20"></rect>
            <rect id="Rectangle" fill="#FFFFFF" x="120" y="340" width="20" height="20"></rect>
            <rect id="Rectangle" fill="#FFFFFF" x="140" y="340" width="20" height="20"></rect>
            <rect id="Rectangle" fill="#FFFFFF" x="160" y="340" width="20" height="20"></rect>
            <rect id="Rectangle" fill="#FFFFFF" x="180" y="340" width="20" height="20"></rect>
            <rect id="Rectangle" fill="#13B348" x="200" y="340" width="20" height="20"></rect>
            <rect id="Rectangle" fill="#FFFFFF" x="220" y="340" width="20" height="20"></rect>
            <rect id="Rectangle" fill="#FFFFFF" x="240" y="340" width="20" height="20"></rect>
            <rect id="Rectangle" fill="#FFFFFF" x="260" y="340" width="20" height="20"></rect>
            <rect id="Rectangle" fill="#FFFFFF" x="40" y="360" width="20" height="20"></rect>
            <rect id="Rectangle" fill="#FFFFFF" x="60" y="360" width="20" height="20"></rect>
            <rect id="Rectangle" fill="#FFFFFF" x="80" y="360" width="20" height="20"></rect>
            <rect id="Rectangle" fill="#FFFFFF" x="100" y="360" width="20" height="20"></rect>
            <rect id="Rectangle" fill="#13B348" x="120" y="360" width="20" height="20"></rect>
            <rect id="Rectangle" fill="#13B348" x="140" y="360" width="20" height="20"></rect>
            <rect id="Rectangle" fill="#13B348" x="160" y="360" width="20" height="20"></rect>
            <rect id="Rectangle" fill="#13B348" x="180" y="360" width="20" height="20"></rect>
            <rect id="Rectangle" fill="#FFFFFF" x="200" y="360" width="20" height="20"></rect>
            <rect id="Rectangle" fill="#FFFFFF" x="220" y="360" width="20" height="20"></rect>
            <rect id="Rectangle" fill="#FFFFFF" x="240" y="360" width="20" height="20"></rect>
            <rect id="Rectangle" fill="#FFFFFF" x="260" y="360" width="20" height="20"></rect>
            <rect id="Rectangle" fill="#FFFFFF" x="40" y="380" width="20" height="20"></rect>
            <rect id="Rectangle" fill="#FFFFFF" x="60" y="380" width="20" height="20"></rect>
            <rect id="Rectangle" fill="#FFFFFF" x="80" y="380" width="20" height="20"></rect>
            <rect id="Rectangle" fill="#FFFFFF" x="100" y="380" width="20" height="20"></rect>
            <rect id="Rectangle" fill="#FFFFFF" x="120" y="380" width="20" height="20"></rect>
            <rect id="Rectangle" fill="#FFFFFF" x="140" y="380" width="20" height="20"></rect>
            <rect id="Rectangle" fill="#FFFFFF" x="160" y="380" width="20" height="20"></rect>
            <rect id="Rectangle" fill="#FFFFFF" x="180" y="380" width="20" height="20"></rect>
            <rect id="Rectangle" fill="#FFFFFF" x="200" y="380" width="20" height="20"></rect>
            <rect id="Rectangle" fill="#FFFFFF" x="220" y="380" width="20" height="20"></rect>
            <rect id="Rectangle" fill="#FFFFFF" x="240" y="380" width="20" height="20"></rect>
            <rect id="Rectangle" fill="#FFFFFF" x="260" y="380" width="20" height="20"></rect>
            <rect id="Rectangle" fill="#13B348" x="280" y="340" width="20" height="20"></rect>
            <rect id="Rectangle" fill="#13B348" x="280" y="360" width="20" height="20"></rect>
            <rect id="Rectangle" fill="#13B348" x="280" y="380" width="20" height="20"></rect>
            <rect id="Rectangle" fill="#13B348" x="20" y="340" width="20" height="20"></rect>
            <rect id="Rectangle" fill="#13B348" x="20" y="360" width="20" height="20"></rect>
            <rect id="Rectangle" fill="#13B348" x="20" y="380" width="20" height="20"></rect>
            <rect id="Rectangle" fill="#13B348" x="40" y="400" width="20" height="20"></rect>
            <rect id="Rectangle" fill="#FFFFFF" x="60" y="400" width="20" height="20"></rect>
            <rect id="Rectangle" fill="#FFFFFF" x="80" y="400" width="20" height="20"></rect>
            <rect id="Rectangle" fill="#FFFFFF" x="100" y="400" width="20" height="20"></rect>
            <rect id="Rectangle" fill="#FFFFFF" x="120" y="400" width="20" height="20"></rect>
            <rect id="Rectangle" fill="#13B348" x="140" y="400" width="20" height="20"></rect>
            <rect id="Rectangle" fill="#13B348" x="160" y="400" width="20" height="20"></rect>
            <rect id="Rectangle" fill="#FFFFFF" x="180" y="400" width="20" height="20"></rect>
            <rect id="Rectangle" fill="#FFFFFF" x="200" y="400" width="20" height="20"></rect>
            <rect id="Rectangle" fill="#FFFFFF" x="220" y="400" width="20" height="20"></rect>
            <rect id="Rectangle" fill="#FFFFFF" x="240" y="400" width="20" height="20"></rect>
            <rect id="Rectangle" fill="#13B348" x="260" y="400" width="20" height="20"></rect>
            <rect id="Rectangle" fill="#13B348" x="60" y="420" width="20" height="20"></rect>
            <rect id="Rectangle" fill="#13B348" x="80" y="420" width="20" height="20"></rect>
            <rect id="Rectangle" fill="#13B348" x="100" y="420" width="20" height="20"></rect>
            <rect id="Rectangle" fill="#13B348" x="120" y="420" width="20" height="20"></rect>
            <rect id="Rectangle" fill="#13B348" x="180" y="420" width="20" height="20"></rect>
            <rect id="Rectangle" fill="#13B348" x="200" y="420" width="20" height="20"></rect>
            <rect id="Rectangle" fill="#13B348" x="220" y="420" width="20" height="20"></rect>
            <rect id="Rectangle" fill="#13B348" x="240" y="420" width="20" height="20"></rect>
        </g>
    </g>
</svg>