<svg  viewBox="0 0 633 576" xmlns="http://www.w3.org/2000/svg">
  <g fill="none" fill-rule="evenodd">
    <path fill="#D8D8D8" fill-rule="nonzero" d="M413 20h20v20h-20zM433 20h20v20h-20zM453 20h20v20h-20zM473 20h20v20h-20zM493 20h20v20h-20zM393 40h20v20h-20zM413 40h20v20h-20zM433 40h20v20h-20zM453 40h20v20h-20zM473 40h20v20h-20zM493 40h20v20h-20zM513 40h20v20h-20z"/>
    <path fill="#D8D8D8" fill-rule="nonzero" d="M413 20h20v20h-20zM433 20h20v20h-20zM453 20h20v20h-20zM473 20h20v20h-20zM493 20h20v20h-20zM393 40h20v20h-20zM413 40h20v20h-20zM433 40h20v20h-20zM453 40h20v20h-20zM473 40h20v20h-20zM493 40h20v20h-20zM513 40h20v20h-20zM373 60h20v20h-20zM393 60h20v20h-20zM413 60h20v20h-20zM433 60h20v20h-20zM453 60h20v20h-20zM473 60h20v20h-20zM493 60h20v20h-20zM513 60h20v20h-20zM533 60h20v20h-20zM353 80h20v20h-20zM373 80h20v20h-20zM393 80h20v20h-20zM413 80h20v20h-20zM433 80h20v20h-20zM453 80h20v20h-20zM473 80h20v20h-20zM493 80h20v20h-20zM513 80h20v20h-20zM533 80h20v20h-20zM353 100h20v20h-20zM373 100h20v20h-20zM393 100h20v20h-20zM413 100h20v20h-20zM433 100h20v20h-20zM453 100h20v20h-20zM473 100h20v20h-20zM493 100h20v20h-20zM513 100h20v20h-20zM533 100h20v20h-20zM553 100h20v20h-20zM353 120h20v20h-20zM373 120h20v20h-20zM393 120h20v20h-20zM413 120h20v20h-20zM433 120h20v20h-20zM453 120h20v20h-20zM473 120h20v20h-20zM493 120h20v20h-20zM513 120h20v20h-20zM533 120h20v20h-20zM553 120h20v20h-20zM573 120h20v20h-20z"/>
    <path fill="#D8D8D8" fill-rule="nonzero" d="M413 20h20v20h-20zM433 20h20v20h-20zM453 20h20v20h-20zM473 20h20v20h-20zM493 20h20v20h-20zM393 40h20v20h-20zM413 40h20v20h-20zM433 40h20v20h-20zM453 40h20v20h-20zM473 40h20v20h-20zM493 40h20v20h-20zM513 40h20v20h-20z"/>
    <path fill="#D8D8D8" fill-rule="nonzero" d="M413 20h20v20h-20zM433 20h20v20h-20zM453 20h20v20h-20zM473 20h20v20h-20zM493 20h20v20h-20zM393 40h20v20h-20zM413 40h20v20h-20zM433 40h20v20h-20zM453 40h20v20h-20zM473 40h20v20h-20zM493 40h20v20h-20zM513 40h20v20h-20zM373 60h20v20h-20zM393 60h20v20h-20zM413 60h20v20h-20zM433 60h20v20h-20zM453 60h20v20h-20zM473 60h20v20h-20zM493 60h20v20h-20zM513 60h20v20h-20zM533 60h20v20h-20zM353 80h20v20h-20zM373 80h20v20h-20zM393 80h20v20h-20zM413 80h20v20h-20zM433 80h20v20h-20zM453 80h20v20h-20zM473 80h20v20h-20zM493 80h20v20h-20zM513 80h20v20h-20zM533 80h20v20h-20zM353 100h20v20h-20zM373 100h20v20h-20zM393 100h20v20h-20zM413 100h20v20h-20zM433 100h20v20h-20zM453 100h20v20h-20zM473 100h20v20h-20zM493 100h20v20h-20zM513 100h20v20h-20zM533 100h20v20h-20zM553 100h20v20h-20zM353 120h20v20h-20zM373 120h20v20h-20zM393 120h20v20h-20zM413 120h20v20h-20zM433 120h20v20h-20zM453 120h20v20h-20zM473 120h20v20h-20zM493 120h20v20h-20zM513 120h20v20h-20zM533 120h20v20h-20zM553 120h20v20h-20zM573 120h20v20h-20z"/>
    <path fill="#D8D8D8" fill-rule="nonzero" d="M413 20h20v20h-20zM433 20h20v20h-20zM453 20h20v20h-20zM473 20h20v20h-20zM493 20h20v20h-20zM393 40h20v20h-20zM413 40h20v20h-20zM433 40h20v20h-20zM453 40h20v20h-20zM473 40h20v20h-20zM493 40h20v20h-20zM513 40h20v20h-20z"/>
    <path fill="#FFC300" fill-rule="nonzero" d="M413 20h20v20h-20zM433 20h20v20h-20zM453 20h20v20h-20zM473 20h20v20h-20zM493 20h20v20h-20zM393 40h20v20h-20zM413 40h20v20h-20zM433 40h20v20h-20zM453 40h20v20h-20zM473 40h20v20h-20zM493 40h20v20h-20zM513 40h20v20h-20z"/>
    <path fill="#13B348" fill-rule="nonzero" d="M373 60h20v20h-20zM393 60h20v20h-20zM413 60h20v20h-20z"/>
    <path fill="#FFC300" fill-rule="nonzero" d="M433 60h20v20h-20z"/>
    <path fill="#13B348" fill-rule="nonzero" d="M453 60h20v20h-20zM473 60h20v20h-20zM493 60h20v20h-20z"/>
    <path fill="#FFC300" fill-rule="nonzero" d="M513 60h20v20h-20zM533 60h20v20h-20z"/>
    <path fill="#13B348" fill-rule="nonzero" d="M353 80h20v20h-20z"/>
    <path fill="#FFF" fill-rule="nonzero" d="M373 80h20v20h-20zM393 80h20v20h-20zM413 80h20v20h-20z"/>
    <path fill="#13B348" fill-rule="nonzero" d="M433 80h20v20h-20z"/>
    <path fill="#FFF" fill-rule="nonzero" d="M453 80h20v20h-20zM473 80h20v20h-20zM493 80h20v20h-20z"/>
    <path fill="#13B348" fill-rule="nonzero" d="M513 80h20v20h-20z"/>
    <path fill="#FFC300" fill-rule="nonzero" d="M533 80h20v20h-20z"/>
    <path fill="#13B348" fill-rule="nonzero" d="M353 100h20v20h-20z"/>
    <path fill="#FFF" fill-rule="nonzero" d="M373 100h20v20h-20zM393 100h20v20h-20z"/>
    <path fill="#13B348" fill-rule="nonzero" d="M413 100h20v20h-20z"/>
    <path fill="#FFF" fill-rule="nonzero" d="M433 100h20v20h-20z"/>
    <path fill="#13B348" fill-rule="nonzero" d="M453 100h20v20h-20z"/>
    <path fill="#FFF" fill-rule="nonzero" d="M473 100h20v20h-20zM493 100h20v20h-20z"/>
    <path fill="#13B348" fill-rule="nonzero" d="M513 100h20v20h-20z"/>
    <path fill="#FFC300" fill-rule="nonzero" d="M533 100h20v20h-20z"/>
    <path fill="#13B348" fill-rule="nonzero" d="M553 100h20v20h-20zM353 120h20v20h-20z"/>
    <path fill="currentColor" fill-rule="nonzero" d="M353 160h20v20h-20zM273 60h20v20h-20zM293 80h20v20h-20zM293 60h20v20h-20z"/>
    <path fill="currentColor" fill-rule="nonzero" d="M311 80h20v20h-20zM235 20h20v20h-20zM215 0h20v20h-20zM195 0h20v20h-20zM175 0h20v20h-20zM175 20h20v20h-20zM175 40h20v20h-20zM175 60h20v20h-20zM175 80h20v20h-20zM175 100h20v20h-20zM175 120h20v20h-20zM175 140h20v20h-20zM175 160h20v20h-20zM175 180h20v20h-20zM175 200h20v20h-20zM175 220h20v20h-20zM175 240h20v20h-20zM175 260h20v20h-20zM175 280h20v20h-20zM175 300h20v20h-20zM175 320h20v20h-20zM175 340h20v20h-20zM175 360h20v20h-20zM175 380h20v20h-20zM175 400h20v20h-20zM175 420h20v20h-20z"/>
    <g fill="#F07167" fill-rule="nonzero">
      <path d="M219.6184 436.742l19.924-1.743 1.743 19.9239-19.9238 1.743z"/>
      <path d="M199.6945 438.4852l19.924-1.7431 1.743 19.9239-19.9238 1.7431z"/>
      <path d="M179.7707 440.2283l19.9238-1.7431 1.7432 19.9239-19.924 1.7431zM279.3901 431.5127l19.924-1.743 1.743 19.9238-19.9239 1.7431z"/>
      <path d="M259.4662 433.2559l19.924-1.7432 1.743 19.924-19.9239 1.743z"/>
      <path d="M239.5423 434.999l19.924-1.7431 1.743 19.9239-19.9238 1.743zM339.1618 426.2834l19.9239-1.7431 1.7431 19.9239-19.9239 1.743zM319.238 428.0265l19.9238-1.7431 1.7431 19.9239-19.9239 1.7431zM299.314 429.7696l19.924-1.743 1.743 19.9238-19.9239 1.7431zM40.3034 452.4301l19.9239-1.743 1.7431 19.9238-19.9239 1.7431zM20.3795 454.1732l19.9239-1.743 1.7431 19.9238-19.9239 1.7431zM.4556 455.9164l19.9239-1.7432 1.7431 19.924-19.9239 1.743zM100.075 447.2008l19.924-1.7431 1.743 19.9239-19.9238 1.743z"/>
      <path d="M80.1512 448.9439l19.9239-1.7431 1.743 19.9239-19.9238 1.743zM60.2273 450.687l19.9239-1.7431 1.7431 19.9239-19.9239 1.7431zM159.8468 441.9714l19.9239-1.743 1.743 19.9238-19.9238 1.7431zM139.9229 443.7145l19.9239-1.743 1.743 19.9238-19.9238 1.7431zM119.999 445.4577l19.9239-1.7432 1.743 19.924-19.9238 1.743zM219.6184 436.742l19.924-1.743 1.743 19.9239-19.9238 1.743z"/>
      <path d="M199.6945 438.4852l19.924-1.7431 1.743 19.9239-19.9238 1.7431z"/>
      <path d="M179.7707 440.2283l19.9238-1.7431 1.7432 19.9239-19.924 1.7431zM279.3901 431.5127l19.924-1.743 1.743 19.9238-19.9239 1.7431z"/>
      <path d="M259.4662 433.2559l19.924-1.7432 1.743 19.924-19.9239 1.743z"/>
      <path d="M239.5423 434.999l19.924-1.7431 1.743 19.9239-19.9238 1.743zM339.1618 426.2834l19.9239-1.7431 1.7431 19.9239-19.9239 1.743zM319.238 428.0265l19.9238-1.7431 1.7431 19.9239-19.9239 1.7431zM299.314 429.7696l19.924-1.743 1.743 19.9238-19.9239 1.7431zM40.3034 452.4301l19.9239-1.743 1.7431 19.9238-19.9239 1.7431zM20.3795 454.1732l19.9239-1.743 1.7431 19.9238-19.9239 1.7431zM.4556 455.9164l19.9239-1.7432 1.7431 19.924-19.9239 1.743zM100.075 447.2008l19.924-1.7431 1.743 19.9239-19.9238 1.743z"/>
      <path d="M80.1512 448.9439l19.9239-1.7431 1.743 19.9239-19.9238 1.743zM60.2273 450.687l19.9239-1.7431 1.7431 19.9239-19.9239 1.7431zM159.8468 441.9714l19.9239-1.743 1.743 19.9238-19.9238 1.7431zM139.9229 443.7145l19.9239-1.743 1.743 19.9238-19.9238 1.7431zM119.999 445.4577l19.9239-1.7432 1.743 19.924-19.9238 1.743zM221.3616 456.666l19.9239-1.7431 1.743 19.9239-19.9238 1.743zM201.4377 458.4091l19.9239-1.7431 1.743 19.9239-19.9238 1.743z"/>
      <path d="M181.5138 460.1522l19.9239-1.7431 1.743 19.9239-19.9238 1.7431zM281.1332 451.4366l19.924-1.743 1.743 19.9238-19.9238 1.7431z"/>
      <path d="M261.2093 453.1798l19.924-1.7432 1.743 19.924-19.9238 1.743zM241.2855 454.9229l19.9238-1.7431 1.7432 19.9238-19.924 1.7432zM340.905 446.2073l19.9238-1.7431 1.7431 19.9239-19.9239 1.743zM320.981 447.9504l19.924-1.7431 1.743 19.9239-19.9239 1.7431z"/>
      <path d="M301.0571 449.6935l19.924-1.743 1.743 19.9238-19.9239 1.7431zM42.0465 472.354l19.924-1.7431 1.743 19.9239-19.9239 1.7431z"/>
      <path d="M22.1226 474.0971l19.924-1.743 1.743 19.9238-19.9239 1.7431z"/>
      <path d="M2.1987 475.8402l19.924-1.743 1.743 19.9238-19.9239 1.7431zM101.8182 467.1247l19.9239-1.7431 1.7431 19.9239-19.9239 1.743z"/>
      <path d="M81.8943 468.8678l19.9239-1.7431 1.7431 19.9239-19.9239 1.743zM61.9704 470.6109l19.9239-1.7431 1.7431 19.9239-19.9239 1.7431zM161.5899 461.8953l19.9239-1.743 1.743 19.9238-19.9238 1.7431zM141.666 463.6384l19.9239-1.743 1.743 19.9238-19.9238 1.7431zM121.742 465.3816l19.924-1.7432 1.7431 19.924-19.9239 1.743zM223.1047 476.5899l19.9239-1.7431 1.743 19.9239-19.9238 1.743zM203.1808 478.333l19.9239-1.7431 1.743 19.9239-19.9238 1.743z"/>
      <path d="M183.2569 480.0761l19.9239-1.7431 1.743 19.9239L185 500zM282.8764 471.3605l19.9238-1.743 1.7432 19.9238-19.924 1.7431zM262.9525 473.1036l19.9239-1.743 1.743 19.9238-19.9238 1.7431zM243.0286 474.8468l19.9239-1.7432 1.743 19.924-19.9238 1.743zM342.648 466.1312l19.924-1.7431 1.743 19.9239-19.9238 1.743z"/>
      <path d="M322.7241 467.8743l19.924-1.7431 1.743 19.9239-19.9238 1.7431z"/>
      <path d="M302.8002 469.6174l19.924-1.7431 1.743 19.9239-19.9238 1.7431zM43.7896 492.278l19.924-1.7432 1.743 19.9239-19.9239 1.7431z"/>
      <path d="M23.8657 494.021l19.924-1.743 1.743 19.9238-19.9239 1.7431z"/>
      <path d="M3.9418 495.7641l19.924-1.743 1.743 19.9238L5.685 515.688zM103.5613 487.0486l19.9239-1.7431 1.7431 19.9238-19.9239 1.7432z"/>
      <path d="M83.6374 488.7917l19.924-1.7431 1.743 19.9239-19.9239 1.743z"/>
      <path d="M63.7135 490.5348l19.924-1.7431 1.743 19.9239-19.9239 1.743zM163.333 481.8192l19.9239-1.743L185 500l-19.9239 1.7431zM143.4091 483.5623l19.9239-1.743 1.7431 19.9238-19.9239 1.7431zM123.4852 485.3055l19.9239-1.7432 1.7431 19.924-19.9239 1.743zM223.1047 476.5899l19.9239-1.7431 1.743 19.9239-19.9238 1.743zM203.1808 478.333l19.9239-1.7431 1.743 19.9239-19.9238 1.743z"/>
      <path d="M183.2569 480.0761l19.9239-1.7431 1.743 19.9239L185 500zM282.8764 471.3605l19.9238-1.743 1.7432 19.9238-19.924 1.7431zM262.9525 473.1036l19.9239-1.743 1.743 19.9238-19.9238 1.7431zM243.0286 474.8468l19.9239-1.7432 1.743 19.924-19.9238 1.743zM342.648 466.1312l19.924-1.7431 1.743 19.9239-19.9238 1.743z"/>
      <path d="M322.7241 467.8743l19.924-1.7431 1.743 19.9239-19.9238 1.7431z"/>
      <path d="M302.8002 469.6174l19.924-1.7431 1.743 19.9239-19.9238 1.7431zM43.7896 492.278l19.924-1.7432 1.743 19.9239-19.9239 1.7431z"/>
      <path d="M23.8657 494.021l19.924-1.743 1.743 19.9238-19.9239 1.7431z"/>
      <path d="M3.9418 495.7641l19.924-1.743 1.743 19.9238L5.685 515.688zM103.5613 487.0486l19.9239-1.7431 1.7431 19.9238-19.9239 1.7432z"/>
      <path d="M83.6374 488.7917l19.924-1.7431 1.743 19.9239-19.9239 1.743z"/>
      <path d="M63.7135 490.5348l19.924-1.7431 1.743 19.9239-19.9239 1.743zM163.333 481.8192l19.9239-1.743L185 500l-19.9239 1.7431zM143.4091 483.5623l19.9239-1.743 1.7431 19.9238-19.9239 1.7431zM123.4852 485.3055l19.9239-1.7432 1.7431 19.924-19.9239 1.743zM224.8478 496.5138l19.9239-1.7431 1.7431 19.9238-19.9239 1.7432z"/>
      <path d="M204.9239 498.2569l19.9239-1.7431 1.7431 19.9239-19.9239 1.743zM185 500l19.9239-1.7431 1.7431 19.9239-19.9239 1.743zM284.6195 491.2844l19.9239-1.743 1.743 19.9238-19.9238 1.7431zM264.6956 493.0275l19.9239-1.743 1.743 19.9238-19.9238 1.7431zM244.7717 494.7707l19.9239-1.7432 1.743 19.924-19.9238 1.743zM344.3912 486.055l19.9238-1.743 1.7432 19.9239-19.924 1.743zM324.4673 487.7982l19.9239-1.7431 1.743 19.9239-19.9238 1.743z"/>
      <path d="M304.5434 489.5413l19.9239-1.7431 1.743 19.9239-19.9238 1.7431zM45.5327 512.2018l19.924-1.7431 1.743 19.9239-19.9238 1.7431z"/>
      <path d="M25.6088 513.945l19.924-1.7432 1.743 19.9239-19.9238 1.7431z"/>
      <path d="M5.685 515.688l19.9238-1.743 1.7432 19.9238-19.924 1.7431zM105.3044 506.9725l19.924-1.7432 1.743 19.924-19.9239 1.743z"/>
      <path d="M85.3805 508.7156l19.924-1.7431 1.743 19.9239-19.9239 1.743z"/>
      <path d="M65.4566 510.4587l19.924-1.7431 1.743 19.9239-19.9238 1.743zM165.0761 501.7431L185 500l1.7431 19.9239-19.9239 1.7431z"/>
      <path d="M145.1522 503.4862l19.924-1.743 1.743 19.9238-19.9239 1.7431z"/>
      <path d="M125.2283 505.2293l19.924-1.743 1.743 19.9238-19.9239 1.7431zM219.6184 436.742l19.924-1.743 1.743 19.9239-19.9238 1.743z"/>
      <path d="M199.6945 438.4852l19.924-1.7431 1.743 19.9239-19.9238 1.7431z"/>
      <path d="M179.7707 440.2283l19.9238-1.7431 1.7432 19.9239-19.924 1.7431zM279.3901 431.5127l19.924-1.743 1.743 19.9238-19.9239 1.7431z"/>
      <path d="M259.4662 433.2559l19.924-1.7432 1.743 19.924-19.9239 1.743z"/>
      <path d="M239.5423 434.999l19.924-1.7431 1.743 19.9239-19.9238 1.743zM339.1618 426.2834l19.9239-1.7431 1.7431 19.9239-19.9239 1.743zM319.238 428.0265l19.9238-1.7431 1.7431 19.9239-19.9239 1.7431zM299.314 429.7696l19.924-1.743 1.743 19.9238-19.9239 1.7431zM40.3034 452.4301l19.9239-1.743 1.7431 19.9238-19.9239 1.7431zM20.3795 454.1732l19.9239-1.743 1.7431 19.9238-19.9239 1.7431zM.4556 455.9164l19.9239-1.7432 1.7431 19.924-19.9239 1.743zM100.075 447.2008l19.924-1.7431 1.743 19.9239-19.9238 1.743z"/>
      <path d="M80.1512 448.9439l19.9239-1.7431 1.743 19.9239-19.9238 1.743zM60.2273 450.687l19.9239-1.7431 1.7431 19.9239-19.9239 1.7431zM159.8468 441.9714l19.9239-1.743 1.743 19.9238-19.9238 1.7431zM139.9229 443.7145l19.9239-1.743 1.743 19.9238-19.9238 1.7431zM119.999 445.4577l19.9239-1.7432 1.743 19.924-19.9238 1.743zM219.6184 436.742l19.924-1.743 1.743 19.9239-19.9238 1.743z"/>
      <path d="M199.6945 438.4852l19.924-1.7431 1.743 19.9239-19.9238 1.7431z"/>
      <path d="M179.7707 440.2283l19.9238-1.7431 1.7432 19.9239-19.924 1.7431zM279.3901 431.5127l19.924-1.743 1.743 19.9238-19.9239 1.7431z"/>
      <path d="M259.4662 433.2559l19.924-1.7432 1.743 19.924-19.9239 1.743z"/>
      <path d="M239.5423 434.999l19.924-1.7431 1.743 19.9239-19.9238 1.743zM339.1618 426.2834l19.9239-1.7431 1.7431 19.9239-19.9239 1.743zM319.238 428.0265l19.9238-1.7431 1.7431 19.9239-19.9239 1.7431zM299.314 429.7696l19.924-1.743 1.743 19.9238-19.9239 1.7431zM40.3034 452.4301l19.9239-1.743 1.7431 19.9238-19.9239 1.7431zM20.3795 454.1732l19.9239-1.743 1.7431 19.9238-19.9239 1.7431zM.4556 455.9164l19.9239-1.7432 1.7431 19.924-19.9239 1.743zM100.075 447.2008l19.924-1.7431 1.743 19.9239-19.9238 1.743z"/>
      <path d="M80.1512 448.9439l19.9239-1.7431 1.743 19.9239-19.9238 1.743zM60.2273 450.687l19.9239-1.7431 1.7431 19.9239-19.9239 1.7431zM159.8468 441.9714l19.9239-1.743 1.743 19.9238-19.9238 1.7431zM139.9229 443.7145l19.9239-1.743 1.743 19.9238-19.9238 1.7431zM119.999 445.4577l19.9239-1.7432 1.743 19.924-19.9238 1.743zM221.3616 456.666l19.9239-1.7431 1.743 19.9239-19.9238 1.743zM201.4377 458.4091l19.9239-1.7431 1.743 19.9239-19.9238 1.743z"/>
      <path d="M181.5138 460.1522l19.9239-1.7431 1.743 19.9239-19.9238 1.7431zM281.1332 451.4366l19.924-1.743 1.743 19.9238-19.9238 1.7431z"/>
      <path d="M261.2093 453.1798l19.924-1.7432 1.743 19.924-19.9238 1.743zM241.2855 454.9229l19.9238-1.7431 1.7432 19.9238-19.924 1.7432zM340.905 446.2073l19.9238-1.7431 1.7431 19.9239-19.9239 1.743zM320.981 447.9504l19.924-1.7431 1.743 19.9239-19.9239 1.7431z"/>
      <path d="M301.0571 449.6935l19.924-1.743 1.743 19.9238-19.9239 1.7431zM42.0465 472.354l19.924-1.7431 1.743 19.9239-19.9239 1.7431z"/>
      <path d="M22.1226 474.0971l19.924-1.743 1.743 19.9238-19.9239 1.7431z"/>
      <path d="M2.1987 475.8402l19.924-1.743 1.743 19.9238-19.9239 1.7431zM101.8182 467.1247l19.9239-1.7431 1.7431 19.9239-19.9239 1.743z"/>
      <path d="M81.8943 468.8678l19.9239-1.7431 1.7431 19.9239-19.9239 1.743zM61.9704 470.6109l19.9239-1.7431 1.7431 19.9239-19.9239 1.7431zM161.5899 461.8953l19.9239-1.743 1.743 19.9238-19.9238 1.7431zM141.666 463.6384l19.9239-1.743 1.743 19.9238-19.9238 1.7431zM121.742 465.3816l19.924-1.7432 1.7431 19.924-19.9239 1.743zM223.1047 476.5899l19.9239-1.7431 1.743 19.9239-19.9238 1.743zM203.1808 478.333l19.9239-1.7431 1.743 19.9239-19.9238 1.743z"/>
      <path d="M183.2569 480.0761l19.9239-1.7431 1.743 19.9239L185 500zM282.8764 471.3605l19.9238-1.743 1.7432 19.9238-19.924 1.7431zM262.9525 473.1036l19.9239-1.743 1.743 19.9238-19.9238 1.7431zM243.0286 474.8468l19.9239-1.7432 1.743 19.924-19.9238 1.743zM342.648 466.1312l19.924-1.7431 1.743 19.9239-19.9238 1.743z"/>
      <path d="M322.7241 467.8743l19.924-1.7431 1.743 19.9239-19.9238 1.7431z"/>
      <path d="M302.8002 469.6174l19.924-1.7431 1.743 19.9239-19.9238 1.7431zM43.7896 492.278l19.924-1.7432 1.743 19.9239-19.9239 1.7431z"/>
      <path d="M23.8657 494.021l19.924-1.743 1.743 19.9238-19.9239 1.7431z"/>
      <path d="M3.9418 495.7641l19.924-1.743 1.743 19.9238L5.685 515.688zM103.5613 487.0486l19.9239-1.7431 1.7431 19.9238-19.9239 1.7432z"/>
      <path d="M83.6374 488.7917l19.924-1.7431 1.743 19.9239-19.9239 1.743z"/>
      <path d="M63.7135 490.5348l19.924-1.7431 1.743 19.9239-19.9239 1.743zM163.333 481.8192l19.9239-1.743L185 500l-19.9239 1.7431zM143.4091 483.5623l19.9239-1.743 1.7431 19.9238-19.9239 1.7431zM123.4852 485.3055l19.9239-1.7432 1.7431 19.924-19.9239 1.743zM223.1047 476.5899l19.9239-1.7431 1.743 19.9239-19.9238 1.743zM203.1808 478.333l19.9239-1.7431 1.743 19.9239-19.9238 1.743z"/>
      <path d="M183.2569 480.0761l19.9239-1.7431 1.743 19.9239L185 500zM282.8764 471.3605l19.9238-1.743 1.7432 19.9238-19.924 1.7431zM262.9525 473.1036l19.9239-1.743 1.743 19.9238-19.9238 1.7431zM243.0286 474.8468l19.9239-1.7432 1.743 19.924-19.9238 1.743zM342.648 466.1312l19.924-1.7431 1.743 19.9239-19.9238 1.743z"/>
      <path d="M322.7241 467.8743l19.924-1.7431 1.743 19.9239-19.9238 1.7431z"/>
      <path d="M302.8002 469.6174l19.924-1.7431 1.743 19.9239-19.9238 1.7431zM43.7896 492.278l19.924-1.7432 1.743 19.9239-19.9239 1.7431z"/>
      <path d="M23.8657 494.021l19.924-1.743 1.743 19.9238-19.9239 1.7431z"/>
      <path d="M3.9418 495.7641l19.924-1.743 1.743 19.9238L5.685 515.688zM103.5613 487.0486l19.9239-1.7431 1.7431 19.9238-19.9239 1.7432z"/>
      <path d="M83.6374 488.7917l19.924-1.7431 1.743 19.9239-19.9239 1.743z"/>
      <path d="M63.7135 490.5348l19.924-1.7431 1.743 19.9239-19.9239 1.743zM163.333 481.8192l19.9239-1.743L185 500l-19.9239 1.7431zM143.4091 483.5623l19.9239-1.743 1.7431 19.9238-19.9239 1.7431zM123.4852 485.3055l19.9239-1.7432 1.7431 19.924-19.9239 1.743zM224.8478 496.5138l19.9239-1.7431 1.7431 19.9238-19.9239 1.7432z"/>
      <path d="M204.9239 498.2569l19.9239-1.7431 1.7431 19.9239-19.9239 1.743zM185 500l19.9239-1.7431 1.7431 19.9239-19.9239 1.743zM284.6195 491.2844l19.9239-1.743 1.743 19.9238-19.9238 1.7431zM264.6956 493.0275l19.9239-1.743 1.743 19.9238-19.9238 1.7431zM244.7717 494.7707l19.9239-1.7432 1.743 19.924-19.9238 1.743zM344.3912 486.055l19.9238-1.743 1.7432 19.9239-19.924 1.743zM324.4673 487.7982l19.9239-1.7431 1.743 19.9239-19.9238 1.743z"/>
      <path d="M304.5434 489.5413l19.9239-1.7431 1.743 19.9239-19.9238 1.7431zM45.5327 512.2018l19.924-1.7431 1.743 19.9239-19.9238 1.7431z"/>
      <path d="M25.6088 513.945l19.924-1.7432 1.743 19.9239-19.9238 1.7431z"/>
      <path d="M5.685 515.688l19.9238-1.743 1.7432 19.9238-19.924 1.7431zM105.3044 506.9725l19.924-1.7432 1.743 19.924-19.9239 1.743z"/>
      <path d="M85.3805 508.7156l19.924-1.7431 1.743 19.9239-19.9239 1.743z"/>
      <path d="M65.4566 510.4587l19.924-1.7431 1.743 19.9239-19.9238 1.743zM165.0761 501.7431L185 500l1.7431 19.9239-19.9239 1.7431z"/>
      <path d="M145.1522 503.4862l19.924-1.743 1.743 19.9238-19.9239 1.7431z"/>
      <path d="M125.2283 505.2293l19.924-1.743 1.743 19.9238-19.9239 1.7431zM226.5909 516.4377l19.9239-1.7432 1.7431 19.924-19.9239 1.743zM206.667 518.1808l19.9239-1.7431 1.7431 19.9239-19.9239 1.743z"/>
      <path d="M186.7431 519.9239l19.924-1.7431 1.743 19.9239-19.9239 1.743zM286.3626 511.2083l19.9239-1.7431 1.743 19.9239-19.9238 1.7431z"/>
      <path d="M266.4387 512.9514l19.9239-1.743 1.7431 19.9238-19.9239 1.7431z"/>
      <path d="M246.5148 514.6945l19.9239-1.743 1.7431 19.9238-19.9239 1.7431zM346.1343 505.979l19.9239-1.7431 1.743 19.9239-19.9238 1.743zM326.2104 507.722l19.9239-1.743 1.743 19.9239-19.9238 1.743zM306.2865 509.4652l19.9239-1.7431 1.743 19.9239-19.9238 1.7431zM47.2759 532.1257l19.9239-1.7431 1.743 19.9239-19.9238 1.743z"/>
      <path d="M27.352 533.8688l19.9239-1.7431 1.743 19.9239-19.9238 1.7431zM7.428 535.612l19.924-1.7432 1.743 19.924-19.9238 1.743zM107.0475 526.8964l19.924-1.7432 1.743 19.924-19.9238 1.743z"/>
      <path d="M87.1236 528.6395l19.924-1.7431 1.743 19.9238-19.9238 1.7432z"/>
      <path d="M67.1998 530.3826l19.9238-1.7431 1.7432 19.9239-19.924 1.743zM166.8192 521.667l19.924-1.7431 1.743 19.9239-19.9239 1.7431z"/>
      <path d="M146.8953 523.4101l19.924-1.743 1.743 19.9238-19.9239 1.7431z"/>
      <path d="M126.9714 525.1532l19.924-1.743 1.743 19.9238-19.9239 1.7431zM226.5909 516.4377l19.9239-1.7432 1.7431 19.924-19.9239 1.743zM206.667 518.1808l19.9239-1.7431 1.7431 19.9239-19.9239 1.743z"/>
      <path d="M186.7431 519.9239l19.924-1.7431 1.743 19.9239-19.9239 1.743zM286.3626 511.2083l19.9239-1.7431 1.743 19.9239-19.9238 1.7431z"/>
      <path d="M266.4387 512.9514l19.9239-1.743 1.7431 19.9238-19.9239 1.7431z"/>
      <path d="M246.5148 514.6945l19.9239-1.743 1.7431 19.9238-19.9239 1.7431zM346.1343 505.979l19.9239-1.7431 1.743 19.9239-19.9238 1.743zM326.2104 507.722l19.9239-1.743 1.743 19.9239-19.9238 1.743zM306.2865 509.4652l19.9239-1.7431 1.743 19.9239-19.9238 1.7431zM47.2759 532.1257l19.9239-1.7431 1.743 19.9239-19.9238 1.743z"/>
      <path d="M27.352 533.8688l19.9239-1.7431 1.743 19.9239-19.9238 1.7431zM7.428 535.612l19.924-1.7432 1.743 19.924-19.9238 1.743zM107.0475 526.8964l19.924-1.7432 1.743 19.924-19.9238 1.743z"/>
      <path d="M87.1236 528.6395l19.924-1.7431 1.743 19.9238-19.9238 1.7432z"/>
      <path d="M67.1998 530.3826l19.9238-1.7431 1.7432 19.9239-19.924 1.743zM166.8192 521.667l19.924-1.7431 1.743 19.9239-19.9239 1.7431z"/>
      <path d="M146.8953 523.4101l19.924-1.743 1.743 19.9238-19.9239 1.7431z"/>
      <path d="M126.9714 525.1532l19.924-1.743 1.743 19.9238-19.9239 1.7431zM228.334 536.3616l19.924-1.7432 1.743 19.924-19.9239 1.743z"/>
      <path d="M208.4101 538.1047l19.924-1.7431 1.743 19.9239-19.9239 1.743z"/>
      <path d="M188.4862 539.8478l19.924-1.7431 1.743 19.9239-19.9239 1.743zM288.1057 531.1322l19.9239-1.7431 1.7431 19.9239-19.9239 1.7431zM268.1818 532.8753l19.9239-1.743 1.7431 19.9238-19.9239 1.7431z"/>
      <path d="M248.258 534.6184l19.9238-1.743 1.7431 19.9238-19.9239 1.7431zM347.8774 525.9029l19.9239-1.7431 1.743 19.9238-19.9238 1.7432z"/>
      <path d="M327.9535 527.646l19.9239-1.7431 1.7431 19.9239-19.9239 1.743zM308.0296 529.3891l19.9239-1.7431 1.7431 19.9239-19.9239 1.743zM49.019 552.0496l19.9239-1.7431 1.743 19.9239-19.9238 1.743z"/>
      <path d="M29.095 553.7927l19.924-1.7431 1.743 19.9239-19.9238 1.7431z"/>
      <path d="M9.1712 555.5358l19.9239-1.743 1.743 19.9238-19.9238 1.7431zM108.7907 546.8202l19.9238-1.743 1.7432 19.9238-19.924 1.7431zM88.8668 548.5634l19.9239-1.7432 1.743 19.924-19.9238 1.743zM68.9429 550.3065l19.9239-1.7431 1.743 19.9239-19.9238 1.743zM168.5623 541.5909l19.924-1.7431 1.743 19.9239-19.9238 1.7431z"/>
      <path d="M148.6384 543.334l19.924-1.7431 1.743 19.9239-19.9238 1.7431z"/>
      <path d="M128.7145 545.0771l19.924-1.743 1.743 19.9238-19.9238 1.7431z"/>
    </g>
    <text transform="rotate(-5 185 500.5)" font-family="Wotfard-Regular, Wotfard" font-size="54" fill="#FFF">
      <tspan x="75" y="519">THANKS</tspan>
    </text>
    <path fill="currentColor" fill-rule="nonzero" d="M255 40h20v20h-20zM255 20h20v20h-20z"/>
    <path fill="currentColor" fill-rule="nonzero" d="M273 40h20v20h-20zM313 100h20v20h-20zM333 100h20v20h-20zM311 129h2v2h-2zM333 120h20v20h-20zM333 140h20v20h-20zM353 140h20v20h-20z"/>
    <path fill="#FFF" fill-rule="nonzero" d="M373 120h20v20h-20zM393 120h20v20h-20z"/>
    <path fill="#13B348" fill-rule="nonzero" d="M413 120h20v20h-20z"/>
    <path fill="#FFF" fill-rule="nonzero" d="M433 120h20v20h-20z"/>
    <path fill="#13B348" fill-rule="nonzero" d="M453 120h20v20h-20z"/>
    <path fill="#FFF" fill-rule="nonzero" d="M473 120h20v20h-20zM493 120h20v20h-20z"/>
    <path fill="#13B348" fill-rule="nonzero" d="M513 120h20v20h-20z"/>
    <path fill="#FFC300" fill-rule="nonzero" d="M533 120h20v20h-20z"/>
    <path fill="#13B348" fill-rule="nonzero" d="M553 120h20v20h-20zM573 120h20v20h-20z"/>
    <path fill="#D8D8D8" fill-rule="nonzero" d="M373 140h20v20h-20zM393 140h20v20h-20zM413 140h20v20h-20zM433 140h20v20h-20zM453 140h20v20h-20zM473 140h20v20h-20zM493 140h20v20h-20zM513 140h20v20h-20zM533 140h20v20h-20zM553 140h20v20h-20zM573 140h20v20h-20zM373 160h20v20h-20zM393 160h20v20h-20zM413 160h20v20h-20zM433 160h20v20h-20zM453 160h20v20h-20zM473 160h20v20h-20zM493 160h20v20h-20zM513 160h20v20h-20zM533 160h20v20h-20zM553 160h20v20h-20zM573 160h20v20h-20z"/>
    <path fill="#13B348" fill-rule="nonzero" d="M373 140h20v20h-20zM393 140h20v20h-20zM413 140h20v20h-20z"/>
    <path fill="#FFC300" fill-rule="nonzero" d="M433 140h20v20h-20z"/>
    <path fill="#13B348" fill-rule="nonzero" d="M453 140h20v20h-20zM473 140h20v20h-20zM493 140h20v20h-20zM513 140h20v20h-20zM533 140h20v20h-20zM553 140h20v20h-20zM573 140h20v20h-20z"/>
    <path fill="#FFC300" fill-rule="nonzero" d="M373 160h20v20h-20zM393 160h20v20h-20zM413 160h20v20h-20z"/>
    <path fill="#13B348" fill-rule="nonzero" d="M433 160h20v20h-20zM453 160h20v20h-20zM473 160h20v20h-20zM493 160h20v20h-20z"/>
    <path fill="#FFC300" fill-rule="nonzero" d="M513 160h20v20h-20zM533 160h20v20h-20zM553 160h20v20h-20z"/>
    <path fill="#13B348" fill-rule="nonzero" d="M573 160h20v20h-20z"/>
    <path fill="#FFC300" fill-rule="nonzero" d="M353 180h20v20h-20zM373 180h20v20h-20zM393 180h20v20h-20zM413 180h20v20h-20zM433 180h20v20h-20z"/>
    <path fill="#13B348" fill-rule="nonzero" d="M453 180h20v20h-20zM473 180h20v20h-20z"/>
    <path fill="#FFC300" fill-rule="nonzero" d="M493 180h20v20h-20zM513 180h20v20h-20zM533 180h20v20h-20zM553 180h20v20h-20zM573 180h20v20h-20zM353 200h20v20h-20zM373 200h20v20h-20zM393 200h20v20h-20zM413 200h20v20h-20zM433 200h20v20h-20z"/>
    <path fill="#FFF" fill-rule="nonzero" d="M453 200h20v20h-20zM473 200h20v20h-20z"/>
    <path fill="#FFC300" fill-rule="nonzero" d="M493 200h20v20h-20zM513 200h20v20h-20zM533 200h20v20h-20zM553 200h20v20h-20zM573 200h20v20h-20z"/>
    <path fill="#FFF" fill-rule="nonzero" d="M353 220h20v20h-20z"/>
    <path fill="#13B348" fill-rule="nonzero" d="M333 180h20v20h-20zM333 200h20v20h-20zM333 220h20v20h-20z"/>
    <path fill="#FFC300" fill-rule="nonzero" d="M373 220h20v20h-20zM393 220h20v20h-20zM413 220h20v20h-20z"/>
    <path fill="currentColor" fill-rule="nonzero" d="M433 220h20v20h-20z"/>
    <path fill="#FFF" fill-rule="nonzero" d="M453 220h20v20h-20zM473 220h20v20h-20zM493 220h20v20h-20z"/>
    <path fill="#FFC300" fill-rule="nonzero" d="M513 220h20v20h-20zM533 220h20v20h-20zM553 220h20v20h-20z"/>
    <path fill="#FFF" fill-rule="nonzero" d="M573 220h20v20h-20z"/>
    <path fill="#13B348" fill-rule="nonzero" d="M593 160h20v20h-20z"/>
    <path fill="#13B348" fill-rule="nonzero" d="M593 160h20v20h-20zM593 180h20v20h-20zM593 200h20v20h-20zM593 220h20v20h-20z"/>
    <path fill="#FFF" fill-rule="nonzero" d="M353 240h20v20h-20zM373 240h20v20h-20zM393 240h20v20h-20zM413 240h20v20h-20zM433 240h20v20h-20zM453 240h20v20h-20zM473 240h20v20h-20zM493 240h20v20h-20zM513 240h20v20h-20zM533 240h20v20h-20zM553 240h20v20h-20zM573 240h20v20h-20zM353 260h20v20h-20z"/>
    <path fill="#D8D8D8" fill-rule="nonzero" d="M373 260h20v20h-20zM393 260h20v20h-20zM413 260h20v20h-20zM433 260h20v20h-20zM453 260h20v20h-20zM473 260h20v20h-20zM493 260h20v20h-20z"/>
    <path fill="#FFF" fill-rule="nonzero" d="M513 260h20v20h-20zM533 260h20v20h-20zM553 260h20v20h-20zM573 260h20v20h-20zM353 280h20v20h-20z"/>
    <path fill="#D8D8D8" fill-rule="nonzero" d="M373 280h20v20h-20zM393 280h20v20h-20zM413 280h20v20h-20zM433 280h20v20h-20zM453 280h20v20h-20zM473 280h20v20h-20zM493 280h20v20h-20z"/>
    <path fill="#FFF" fill-rule="nonzero" d="M513 280h20v20h-20zM533 280h20v20h-20zM553 280h20v20h-20zM573 280h20v20h-20zM353 260h20v20h-20zM373 260h20v20h-20zM393 260h20v20h-20zM413 260h20v20h-20zM433 260h20v20h-20zM453 260h20v20h-20zM473 260h20v20h-20zM493 260h20v20h-20zM513 260h20v20h-20zM533 260h20v20h-20zM553 260h20v20h-20zM573 260h20v20h-20zM353 280h20v20h-20zM373 280h20v20h-20zM393 280h20v20h-20zM413 280h20v20h-20z"/>
    <path fill="#13B348" fill-rule="nonzero" d="M433 280h20v20h-20z"/>
    <path fill="#FFF" fill-rule="nonzero" d="M453 280h20v20h-20zM473 280h20v20h-20z"/>
    <path fill="#13B348" fill-rule="nonzero" d="M493 280h20v20h-20z"/>
    <path fill="#FFF" fill-rule="nonzero" d="M513 280h20v20h-20zM533 280h20v20h-20zM553 280h20v20h-20zM573 280h20v20h-20zM353 300h20v20h-20zM373 300h20v20h-20zM393 300h20v20h-20zM413 300h20v20h-20z"/>
    <path fill="#13B348" fill-rule="nonzero" d="M433 300h20v20h-20z"/>
    <path fill="#FFF" fill-rule="nonzero" d="M453 300h20v20h-20zM473 300h20v20h-20z"/>
    <path fill="#13B348" fill-rule="nonzero" d="M493 300h20v20h-20z"/>
    <path fill="#FFF" fill-rule="nonzero" d="M513 300h20v20h-20zM533 300h20v20h-20zM553 300h20v20h-20zM573 300h20v20h-20zM353 320h20v20h-20zM373 320h20v20h-20zM393 320h20v20h-20zM413 320h20v20h-20z"/>
    <path fill="#13B348" fill-rule="nonzero" d="M433 320h20v20h-20z"/>
    <path fill="#FFF" fill-rule="nonzero" d="M453 320h20v20h-20zM473 320h20v20h-20z"/>
    <path fill="#13B348" fill-rule="nonzero" d="M493 320h20v20h-20z"/>
    <path fill="#FFF" fill-rule="nonzero" d="M513 320h20v20h-20zM533 320h20v20h-20zM553 320h20v20h-20zM573 320h20v20h-20zM593 240h20v20h-20zM593 260h20v20h-20zM593 280h20v20h-20zM593 300h20v20h-20z"/>
    <path fill="#FFF" fill-rule="nonzero" d="M593 280h20v20h-20zM593 300h20v20h-20zM593 320h20v20h-20zM593 340h20v20h-20z"/>
    <path fill="#13B348" fill-rule="nonzero" d="M613 240h20v20h-20zM613 260h20v20h-20zM613 280h20v20h-20zM613 300h20v20h-20z"/>
    <path fill="#13B348" fill-rule="nonzero" d="M613 280h20v20h-20zM613 300h20v20h-20zM613 320h20v20h-20zM613 340h20v20h-20z"/>
    <path fill="#FFF" fill-rule="nonzero" d="M353 360h-20v-20h20zM353 340h-20v-20h20zM353 320h-20v-20h20zM353 300h-20v-20h20z"/>
    <path fill="#FFF" fill-rule="nonzero" d="M353 320h-20v-20h20zM353 300h-20v-20h20zM353 280h-20v-20h20zM353 260h-20v-20h20z"/>
    <path fill="#13B348" fill-rule="nonzero" d="M333 360h-20v-20h20zM333 340h-20v-20h20zM333 320h-20v-20h20zM333 300h-20v-20h20z"/>
    <path fill="#13B348" fill-rule="nonzero" d="M333 320h-20v-20h20zM333 300h-20v-20h20zM333 280h-20v-20h20zM333 260h-20v-20h20zM353 340h20v20h-20z"/>
    <path fill="#FFF" fill-rule="nonzero" d="M373 340h20v20h-20zM393 340h20v20h-20zM413 340h20v20h-20zM433 340h20v20h-20zM453 340h20v20h-20zM473 340h20v20h-20zM493 340h20v20h-20zM513 340h20v20h-20zM533 340h20v20h-20zM553 340h20v20h-20z"/>
    <path fill="#13B348" fill-rule="nonzero" d="M573 340h20v20h-20z"/>
    <path fill="#FFF" fill-rule="nonzero" d="M353 360h20v20h-20zM373 360h20v20h-20zM393 360h20v20h-20z"/>
    <path fill="#13B348" fill-rule="nonzero" d="M413 360h20v20h-20z"/>
    <path fill="#FFF" fill-rule="nonzero" d="M433 360h20v20h-20zM453 360h20v20h-20zM473 360h20v20h-20zM493 360h20v20h-20z"/>
    <path fill="#13B348" fill-rule="nonzero" d="M513 360h20v20h-20z"/>
    <path fill="#FFF" fill-rule="nonzero" d="M533 360h20v20h-20zM553 360h20v20h-20zM573 360h20v20h-20zM353 380h20v20h-20zM373 380h20v20h-20zM393 380h20v20h-20zM413 380h20v20h-20z"/>
    <path fill="#13B348" fill-rule="nonzero" d="M433 380h20v20h-20zM453 380h20v20h-20zM473 380h20v20h-20zM493 380h20v20h-20z"/>
    <path fill="#FFF" fill-rule="nonzero" d="M513 380h20v20h-20zM533 380h20v20h-20zM553 380h20v20h-20zM573 380h20v20h-20zM353 400h20v20h-20zM373 400h20v20h-20zM393 400h20v20h-20zM413 400h20v20h-20zM433 400h20v20h-20zM453 400h20v20h-20zM473 400h20v20h-20zM493 400h20v20h-20zM513 400h20v20h-20zM533 400h20v20h-20zM553 400h20v20h-20zM573 400h20v20h-20z"/>
    <path fill="#13B348" fill-rule="nonzero" d="M593 360h20v20h-20zM593 380h20v20h-20zM593 400h20v20h-20zM333 360h20v20h-20zM333 380h20v20h-20zM333 400h20v20h-20zM353 420h20v20h-20z"/>
    <path fill="#FFF" fill-rule="nonzero" d="M373 420h20v20h-20zM393 420h20v20h-20zM413 420h20v20h-20zM433 420h20v20h-20z"/>
    <path fill="#13B348" fill-rule="nonzero" d="M453 420h20v20h-20zM473 420h20v20h-20z"/>
    <path fill="#FFF" fill-rule="nonzero" d="M493 420h20v20h-20zM513 420h20v20h-20zM533 420h20v20h-20zM553 420h20v20h-20z"/>
    <path fill="#13B348" fill-rule="nonzero" d="M573 420h20v20h-20zM373 440h20v20h-20zM393 440h20v20h-20zM413 440h20v20h-20zM433 440h20v20h-20zM493 440h20v20h-20zM513 440h20v20h-20zM533 440h20v20h-20zM553 440h20v20h-20z"/>
  </g>
</svg>