<?xml version="1.0" encoding="UTF-8"?>
<svg width="168px" height="222px" viewBox="0 0 168 222" version="1.1" xmlns="http://www.w3.org/2000/svg" xmlns:xlink="http://www.w3.org/1999/xlink">
    <!-- Generator: Sketch 54.1 (76490) - https://sketchapp.com -->
    <title>Group</title>
    <desc>Created with Sketch.</desc>
    <g id="Mario" stroke="none" stroke-width="1" fill="none" fill-rule="evenodd">
        <g id="Group">
            <rect id="Rectangle" fill="#FAFAFA" x="42" y="0" width="14" height="14"></rect>
            <rect id="Rectangle" fill="#FAFAFA" x="56" y="0" width="14" height="14"></rect>
            <rect id="Rectangle" fill="#FAFAFA" x="70" y="0" width="14" height="14"></rect>
            <rect id="Rectangle" fill="#FAFAFA" x="84" y="0" width="14" height="14"></rect>
            <rect id="Rectangle" fill="#FAFAFA" x="98" y="0" width="14" height="14"></rect>
            <rect id="Rectangle" fill="#FAFAFA" x="28" y="14" width="14" height="14"></rect>
            <rect id="Rectangle" fill="#FAFAFA" x="42" y="14" width="14" height="14"></rect>
            <rect id="Rectangle" fill="#FAFAFA" x="56" y="14" width="14" height="14"></rect>
            <rect id="Rectangle" fill="#FAFAFA" x="70" y="14" width="14" height="14"></rect>
            <rect id="Rectangle" fill="#FAFAFA" x="84" y="14" width="14" height="14"></rect>
            <rect id="Rectangle" fill="#FAFAFA" x="98" y="14" width="14" height="14"></rect>
            <rect id="Rectangle" fill="#FAFAFA" x="112" y="14" width="14" height="14"></rect>
            <rect id="Rectangle" fill="#FAFAFA" x="126" y="14" width="14" height="14"></rect>
            <rect id="Rectangle" fill="#FAFAFA" x="140" y="14" width="14" height="14"></rect>
            <rect id="Rectangle" fill="#845C00" x="28" y="28" width="14" height="14"></rect>
            <rect id="Rectangle" fill="#845C00" x="42" y="28" width="14" height="14"></rect>
            <rect id="Rectangle" fill="#845C00" x="56" y="28" width="14" height="14"></rect>
            <rect id="Rectangle" fill="#FFBC7B" x="70" y="28" width="14" height="14"></rect>
            <rect id="Rectangle" fill="#FFBC7B" x="84" y="28" width="14" height="14"></rect>
            <rect id="Rectangle" fill="#000000" x="98" y="28" width="14" height="14"></rect>
            <rect id="Rectangle" fill="#FFBC7B" x="112" y="28" width="14" height="14"></rect>
            <rect id="Rectangle" fill="#845C00" x="14" y="42" width="14" height="14"></rect>
            <rect id="Rectangle" fill="#FFBC7B" x="28" y="42" width="14" height="14"></rect>
            <rect id="Rectangle" fill="#845C00" x="42" y="42" width="14" height="14"></rect>
            <rect id="Rectangle" fill="#FFBC7B" x="56" y="42" width="14" height="14"></rect>
            <rect id="Rectangle" fill="#FFBC7B" x="70" y="42" width="14" height="14"></rect>
            <rect id="Rectangle" fill="#FFBC7B" x="84" y="42" width="14" height="14"></rect>
            <rect id="Rectangle" fill="#000000" x="98" y="42" width="14" height="14"></rect>
            <rect id="Rectangle" fill="#FFBC7B" x="112" y="42" width="14" height="14"></rect>
            <rect id="Rectangle" fill="#FFBC7B" x="126" y="42" width="14" height="14"></rect>
            <rect id="Rectangle" fill="#FFBC7B" x="140" y="42" width="14" height="14"></rect>
            <rect id="Rectangle" fill="#845C00" x="14" y="56" width="14" height="14"></rect>
            <rect id="Rectangle" fill="#FFBC7B" x="28" y="56" width="14" height="14"></rect>
            <rect id="Rectangle" fill="#845C00" x="42" y="56" width="14" height="14"></rect>
            <rect id="Rectangle" fill="#845C00" x="56" y="56" width="14" height="14"></rect>
            <rect id="Rectangle" fill="#FFBC7B" x="70" y="56" width="14" height="14"></rect>
            <rect id="Rectangle" fill="#FFBC7B" x="84" y="56" width="14" height="14"></rect>
            <rect id="Rectangle" fill="#FFBC7B" x="98" y="56" width="14" height="14"></rect>
            <rect id="Rectangle" fill="#000000" x="112" y="56" width="14" height="14"></rect>
            <rect id="Rectangle" fill="#FFBC7B" x="126" y="56" width="14" height="14"></rect>
            <rect id="Rectangle" fill="#FFBC7B" x="140" y="56" width="14" height="14"></rect>
            <rect id="Rectangle" fill="#FFBC7B" x="154" y="56" width="14" height="14"></rect>
            <rect id="Rectangle" fill="#845C00" x="14" y="70" width="14" height="14"></rect>
            <rect id="Rectangle" fill="#845C00" x="28" y="70" width="14" height="14"></rect>
            <rect id="Rectangle" fill="#FFBC7B" x="42" y="70" width="14" height="14"></rect>
            <rect id="Rectangle" fill="#FFBC7B" x="56" y="70" width="14" height="14"></rect>
            <rect id="Rectangle" fill="#FFBC7B" x="70" y="70" width="14" height="14"></rect>
            <rect id="Rectangle" fill="#FFBC7B" x="84" y="70" width="14" height="14"></rect>
            <rect id="Rectangle" fill="#000000" x="98" y="70" width="14" height="14"></rect>
            <rect id="Rectangle" fill="#000000" x="112" y="70" width="14" height="14"></rect>
            <rect id="Rectangle" fill="#000000" x="126" y="70" width="14" height="14"></rect>
            <rect id="Rectangle" fill="#000000" x="140" y="70" width="14" height="14"></rect>
            <rect id="Rectangle" fill="#FFBC7B" x="42" y="84" width="14" height="14"></rect>
            <rect id="Rectangle" fill="#FFBC7B" x="56" y="84" width="14" height="14"></rect>
            <rect id="Rectangle" fill="#FFBC7B" x="70" y="84" width="14" height="14"></rect>
            <rect id="Rectangle" fill="#FFBC7B" x="84" y="84" width="14" height="14"></rect>
            <rect id="Rectangle" fill="#FFBC7B" x="98" y="84" width="14" height="14"></rect>
            <rect id="Rectangle" fill="#FFBC7B" x="112" y="84" width="14" height="14"></rect>
            <rect id="Rectangle" fill="#FFBC7B" x="126" y="84" width="14" height="14"></rect>
            <rect id="Rectangle" fill="#FFBC7B" x="140" y="84" width="14" height="14"></rect>
            <rect id="Rectangle" fill="#FAFAFA" x="28" y="98" width="14" height="14"></rect>
            <rect id="Rectangle" fill="#FAFAFA" x="42" y="98" width="14" height="14"></rect>
            <rect id="Rectangle" fill="#FF0000" x="56" y="98" width="14" height="14"></rect>
            <rect id="Rectangle" fill="#FAFAFA" x="70" y="98" width="14" height="14"></rect>
            <rect id="Rectangle" fill="#FAFAFA" x="84" y="98" width="14" height="14"></rect>
            <rect id="Rectangle" fill="#FF0000" x="98" y="98" width="14" height="14"></rect>
            <rect id="Rectangle" fill="#FAFAFA" x="112" y="98" width="14" height="14"></rect>
            <rect id="Rectangle" fill="#FAFAFA" x="126" y="98" width="14" height="14"></rect>
            <rect id="Rectangle" fill="#FAFAFA" x="14" y="112" width="14" height="14"></rect>
            <rect id="Rectangle" fill="#FAFAFA" x="28" y="112" width="14" height="14"></rect>
            <rect id="Rectangle" fill="#FAFAFA" x="42" y="112" width="14" height="14"></rect>
            <rect id="Rectangle" fill="#FF0000" x="56" y="112" width="14" height="14"></rect>
            <rect id="Rectangle" fill="#FAFAFA" x="70" y="112" width="14" height="14"></rect>
            <rect id="Rectangle" fill="#FAFAFA" x="84" y="112" width="14" height="14"></rect>
            <rect id="Rectangle" fill="#FF0000" x="98" y="112" width="14" height="14"></rect>
            <rect id="Rectangle" fill="#FAFAFA" x="112" y="112" width="14" height="14"></rect>
            <rect id="Rectangle" fill="#FAFAFA" x="126" y="112" width="14" height="14"></rect>
            <rect id="Rectangle" fill="#FAFAFA" x="140" y="112" width="14" height="14"></rect>
            <rect id="Rectangle" fill="#FAFAFA" x="0" y="126" width="14" height="14"></rect>
            <rect id="Rectangle" fill="#FAFAFA" x="14" y="126" width="14" height="14"></rect>
            <rect id="Rectangle" fill="#FAFAFA" x="28" y="126" width="14" height="14"></rect>
            <rect id="Rectangle" fill="#FAFAFA" x="42" y="126" width="14" height="14"></rect>
            <rect id="Rectangle" fill="#FF0000" x="56" y="126" width="14" height="14"></rect>
            <rect id="Rectangle" fill="#FF0000" x="70" y="126" width="14" height="14"></rect>
            <rect id="Rectangle" fill="#FF0000" x="84" y="126" width="14" height="14"></rect>
            <rect id="Rectangle" fill="#FF0000" x="98" y="126" width="14" height="14"></rect>
            <rect id="Rectangle" fill="#FAFAFA" x="112" y="126" width="14" height="14"></rect>
            <rect id="Rectangle" fill="#FAFAFA" x="126" y="126" width="14" height="14"></rect>
            <rect id="Rectangle" fill="#FAFAFA" x="140" y="126" width="14" height="14"></rect>
            <rect id="Rectangle" fill="#FAFAFA" x="154" y="126" width="14" height="14"></rect>
            <rect id="Rectangle" fill="#FFBC7B" x="0" y="140" width="14" height="14"></rect>
            <rect id="Rectangle" fill="#FFBC7B" x="14" y="140" width="14" height="14"></rect>
            <rect id="Rectangle" fill="#FAFAFA" x="28" y="140" width="14" height="14"></rect>
            <rect id="Rectangle" fill="#FF0000" x="42" y="140" width="14" height="14"></rect>
            <rect id="Rectangle" fill="#FFFF00" x="56" y="140" width="14" height="14"></rect>
            <rect id="Rectangle" fill="#FF0000" x="70" y="140" width="14" height="14"></rect>
            <rect id="Rectangle" fill="#FF0000" x="84" y="140" width="14" height="14"></rect>
            <rect id="Rectangle" fill="#FFFF00" x="98" y="140" width="14" height="14"></rect>
            <rect id="Rectangle" fill="#FF0000" x="112" y="140" width="14" height="14"></rect>
            <rect id="Rectangle" fill="#FF0000" x="126" y="140" width="14" height="14"></rect>
            <rect id="Rectangle" fill="#FFBC7B" x="140" y="140" width="14" height="14"></rect>
            <rect id="Rectangle" fill="#FFBC7B" x="154" y="140" width="14" height="14"></rect>
            <rect id="Rectangle" fill="#FFBC7B" x="0" y="154" width="14" height="14"></rect>
            <rect id="Rectangle" fill="#FFBC7B" x="14" y="154" width="14" height="14"></rect>
            <rect id="Rectangle" fill="#FFBC7B" x="28" y="154" width="14" height="14"></rect>
            <rect id="Rectangle" fill="#FF0000" x="42" y="154" width="14" height="14"></rect>
            <rect id="Rectangle" fill="#FF0000" x="56" y="154" width="14" height="14"></rect>
            <rect id="Rectangle" fill="#FF0000" x="70" y="154" width="14" height="14"></rect>
            <rect id="Rectangle" fill="#FF0000" x="84" y="154" width="14" height="14"></rect>
            <rect id="Rectangle" fill="#FF0000" x="98" y="154" width="14" height="14"></rect>
            <rect id="Rectangle" fill="#FF0000" x="112" y="154" width="14" height="14"></rect>
            <rect id="Rectangle" fill="#FFBC7B" x="126" y="154" width="14" height="14"></rect>
            <rect id="Rectangle" fill="#FFBC7B" x="140" y="154" width="14" height="14"></rect>
            <rect id="Rectangle" fill="#FFBC7B" x="154" y="154" width="14" height="14"></rect>
            <rect id="Rectangle" fill="#FFBC7B" x="0" y="166" width="14" height="14"></rect>
            <rect id="Rectangle" fill="#FFBC7B" x="14" y="166" width="14" height="14"></rect>
            <rect id="Rectangle" fill="#FF0000" x="28" y="166" width="14" height="14"></rect>
            <rect id="Rectangle" fill="#FF0000" x="42" y="166" width="14" height="14"></rect>
            <rect id="Rectangle" fill="#FF0000" x="56" y="166" width="14" height="14"></rect>
            <rect id="Rectangle" fill="#FF0000" x="70" y="166" width="14" height="14"></rect>
            <rect id="Rectangle" fill="#FF0000" x="84" y="166" width="14" height="14"></rect>
            <rect id="Rectangle" fill="#FF0000" x="98" y="166" width="14" height="14"></rect>
            <rect id="Rectangle" fill="#FF0000" x="112" y="166" width="14" height="14"></rect>
            <rect id="Rectangle" fill="#FF0000" x="126" y="166" width="14" height="14"></rect>
            <rect id="Rectangle" fill="#FFBC7B" x="140" y="166" width="14" height="14"></rect>
            <rect id="Rectangle" fill="#FFBC7B" x="154" y="166" width="14" height="14"></rect>
            <rect id="Rectangle" fill="#FF0000" x="28" y="180" width="14" height="14"></rect>
            <rect id="Rectangle" fill="#FF0000" x="42" y="180" width="14" height="14"></rect>
            <rect id="Rectangle" fill="#FF0000" x="56" y="180" width="14" height="14"></rect>
            <rect id="Rectangle" fill="#FF0000" x="98" y="180" width="14" height="14"></rect>
            <rect id="Rectangle" fill="#FF0000" x="112" y="180" width="14" height="14"></rect>
            <rect id="Rectangle" fill="#FF0000" x="126" y="180" width="14" height="14"></rect>
            <rect id="Rectangle" fill="#845C00" x="14" y="194" width="14" height="14"></rect>
            <rect id="Rectangle" fill="#845C00" x="28" y="194" width="14" height="14"></rect>
            <rect id="Rectangle" fill="#845C00" x="42" y="194" width="14" height="14"></rect>
            <rect id="Rectangle" fill="#845C00" x="56" y="194" width="14" height="14"></rect>
            <rect id="Rectangle" fill="#845C00" x="98" y="194" width="14" height="14"></rect>
            <rect id="Rectangle" fill="#845C00" x="112" y="194" width="14" height="14"></rect>
            <rect id="Rectangle" fill="#845C00" x="126" y="194" width="14" height="14"></rect>
            <rect id="Rectangle" fill="#845C00" x="140" y="194" width="14" height="14"></rect>
            <rect id="Rectangle" fill="#845C00" x="0" y="208" width="14" height="14"></rect>
            <rect id="Rectangle" fill="#845C00" x="14" y="208" width="14" height="14"></rect>
            <rect id="Rectangle" fill="#845C00" x="28" y="208" width="14" height="14"></rect>
            <rect id="Rectangle" fill="#845C00" x="42" y="208" width="14" height="14"></rect>
            <rect id="Rectangle" fill="#845C00" x="56" y="208" width="14" height="14"></rect>
            <rect id="Rectangle" fill="#845C00" x="98" y="208" width="14" height="14"></rect>
            <rect id="Rectangle" fill="#845C00" x="112" y="208" width="14" height="14"></rect>
            <rect id="Rectangle" fill="#845C00" x="126" y="208" width="14" height="14"></rect>
            <rect id="Rectangle" fill="#845C00" x="140" y="208" width="14" height="14"></rect>
            <rect id="Rectangle" fill="#845C00" x="154" y="208" width="14" height="14"></rect>
        </g>
    </g>
</svg>