<svg viewBox="0 0 597 389" xmlns="http://www.w3.org/2000/svg">
  <g fill="none" fill-rule="evenodd">
    <path fill="#7BE200" d="M0 0v216h597V0z"/>
    <path fill="#00A000" d="M0 22v12.4587h56.8876V22z"/>
    <path fill="#00B700" d="M0 34.4587v12.4587h56.8876V34.4587z"/>
    <path fill="#00A000" d="M56.8876 22H83v194H56.8876zM189 22v12h57V22zM272 22v12h325V22z"/>
    <path fill="#00B700" d="M189 34v12h57V34z"/>
    <path fill="#00A000" d="M246 22h26v194h-26z"/>
    <path fill="#7BE200" d="M272 34h43v181h-43z"/>
    <path fill="#00B700" d="M272 34h43v12h-43zM465 34h132v12H465z"/>
    <g fill="#00B700">
      <path d="M465 46h14v14h-14zM479 60h14v14h-14zM465 75h14v14h-14zM479 88h14v14h-14zM465 102h14v14h-14zM479 116h14v14h-14zM465 132h14v14h-14zM479 146h14v14h-14zM465 160h14v14h-14zM479 173h14v14h-14zM465 188h14v14h-14zM479 202h14v14h-14z"/>
    </g>
    <g fill="#00B700">
      <path d="M493 46h14v14h-14zM507 60h14v14h-14zM493 75h14v14h-14zM507 88h14v14h-14zM493 102h14v14h-14zM507 116h14v14h-14zM493 132h14v14h-14zM507 146h14v14h-14zM493 160h14v14h-14zM507 173h14v14h-14zM493 188h14v14h-14zM507 202h14v14h-14z"/>
    </g>
    <g fill="#00B700">
      <path d="M521 46h14v14h-14zM535 60h14v14h-14zM521 75h14v14h-14zM535 88h14v14h-14zM521 102h14v14h-14zM535 116h14v14h-14zM521 132h14v14h-14zM535 146h14v14h-14zM521 160h14v14h-14zM535 173h14v14h-14zM521 188h14v14h-14zM535 202h14v14h-14z"/>
    </g>
    <path fill="#00A000" d="M315 34h150v182H315z"/>
    <path fill="#7BE200" d="M57 216h492v173H57z"/>
    <path fill="#00A000" d="M112 216h26v173h-26zM218 216h26v173h-26z"/>
    <g fill="#00B700">
      <path d="M409 216h14v14.1949h-14zM423 231.0821h14v14.1949h-14zM409 245.2769h14v14.1949h-14zM423 258.5846h14v14.1949h-14zM409 273.6667h14v14.1949h-14zM423 287.8615h14v14.1949h-14zM409 302.9436h14v14.1949h-14zM423 317.1385h14v14.1949h-14zM409 332.2205h14v14.1949h-14zM423 345.5282h14v14.1949h-14zM409 359.7231h14v14.1949h-14zM423 374.8051h14V389h-14z"/>
    </g>
    <g fill="#00B700">
      <path d="M437 216h14v14.1949h-14zM451 231.0821h14v14.1949h-14zM437 245.2769h14v14.1949h-14zM451 258.5846h14v14.1949h-14zM437 273.6667h14v14.1949h-14zM451 287.8615h14v14.1949h-14zM437 302.9436h14v14.1949h-14zM451 317.1385h14v14.1949h-14zM437 332.2205h14v14.1949h-14zM451 345.5282h14v14.1949h-14zM437 359.7231h14v14.1949h-14zM451 374.8051h14V389h-14z"/>
    </g>
    <path fill="#00A000" d="M259 216h150v173H259z"/>
  </g>
</svg>