<?xml version="1.0" encoding="UTF-8"?>
<svg width="360px" height="360px" viewBox="0 0 360 360" version="1.1" xmlns="http://www.w3.org/2000/svg" xmlns:xlink="http://www.w3.org/1999/xlink">
    <!-- Generator: Sketch 54.1 (76490) - https://sketchapp.com -->
    <title>Group</title>
    <desc>Created with Sketch.</desc>
    <g id="Pow" stroke="none" stroke-width="1" fill="none" fill-rule="evenodd">
        <g id="Group" transform="translate(-0.000000, 0.000000)">
            <rect id="Rectangle" fill="#2C2B2C" x="40" y="0" width="20" height="20"></rect>
            <rect id="Rectangle" fill="#2C2B2C" x="60" y="0" width="20" height="20"></rect>
            <rect id="Rectangle" fill="#2C2B2C" x="80" y="0" width="20" height="20"></rect>
            <rect id="Rectangle" fill="#2C2B2C" x="100" y="0" width="20" height="20"></rect>
            <rect id="Rectangle" fill="#2C2B2C" x="120" y="0" width="20" height="20"></rect>
            <rect id="Rectangle" fill="#2C2B2C" x="140" y="0" width="20" height="20"></rect>
            <rect id="Rectangle" fill="#2C2B2C" x="160" y="0" width="20" height="20"></rect>
            <rect id="Rectangle" fill="#2C2B2C" x="180" y="0" width="20" height="20"></rect>
            <rect id="Rectangle" fill="#2C2B2C" x="200" y="0" width="20" height="20"></rect>
            <rect id="Rectangle" fill="#2C2B2C" x="220" y="0" width="20" height="20"></rect>
            <rect id="Rectangle" fill="#2C2B2C" x="240" y="0" width="20" height="20"></rect>
            <rect id="Rectangle" fill="#2C2B2C" x="260" y="0" width="20" height="20"></rect>
            <rect id="Rectangle" fill="#2C2B2C" x="280" y="0" width="20" height="20"></rect>
            <rect id="Rectangle" fill="#2C2B2C" x="300" y="0" width="20" height="20"></rect>
            <rect id="Rectangle" fill="#2C2B2C" x="20" y="20" width="20" height="20"></rect>
            <rect id="Rectangle" fill="#6293F0" x="40" y="20" width="20" height="20"></rect>
            <rect id="Rectangle" fill="#6293F0" x="60" y="20" width="20" height="20"></rect>
            <rect id="Rectangle" fill="#6293F0" x="80" y="20" width="20" height="20"></rect>
            <rect id="Rectangle" fill="#6293F0" x="100" y="20" width="20" height="20"></rect>
            <rect id="Rectangle" fill="#6293F0" x="120" y="20" width="20" height="20"></rect>
            <rect id="Rectangle" fill="#6293F0" x="140" y="20" width="20" height="20"></rect>
            <rect id="Rectangle" fill="#6293F0" x="160" y="20" width="20" height="20"></rect>
            <rect id="Rectangle" fill="#6293F0" x="180" y="20" width="20" height="20"></rect>
            <rect id="Rectangle" fill="#6293F0" x="200" y="20" width="20" height="20"></rect>
            <rect id="Rectangle" fill="#6293F0" x="220" y="20" width="20" height="20"></rect>
            <rect id="Rectangle" fill="#6293F0" x="240" y="20" width="20" height="20"></rect>
            <rect id="Rectangle" fill="#6293F0" x="260" y="20" width="20" height="20"></rect>
            <rect id="Rectangle" fill="#6293F0" x="280" y="20" width="20" height="20"></rect>
            <rect id="Rectangle" fill="#6293F0" x="300" y="20" width="20" height="20"></rect>
            <rect id="Rectangle" fill="#2C2B2C" x="320" y="20" width="20" height="20"></rect>
            <rect id="Rectangle" fill="#2C2B2C" x="1.42108547e-14" y="40" width="20" height="20"></rect>
            <rect id="Rectangle" fill="#6293F0" x="20" y="40" width="20" height="20"></rect>
            <rect id="Rectangle" fill="#315FFF" x="40" y="40" width="20" height="20"></rect>
            <rect id="Rectangle" fill="#315FFF" x="60" y="40" width="20" height="20"></rect>
            <rect id="Rectangle" fill="#315FFF" x="80" y="40" width="20" height="20"></rect>
            <rect id="Rectangle" fill="#315FFF" x="100" y="40" width="20" height="20"></rect>
            <rect id="Rectangle" fill="#315FFF" x="120" y="40" width="20" height="20"></rect>
            <rect id="Rectangle" fill="#315FFF" x="140" y="40" width="20" height="20"></rect>
            <rect id="Rectangle" fill="#315FFF" x="160" y="40" width="20" height="20"></rect>
            <rect id="Rectangle" fill="#315FFF" x="180" y="40" width="20" height="20"></rect>
            <rect id="Rectangle" fill="#315FFF" x="200" y="40" width="20" height="20"></rect>
            <rect id="Rectangle" fill="#315FFF" x="220" y="40" width="20" height="20"></rect>
            <rect id="Rectangle" fill="#315FFF" x="240" y="40" width="20" height="20"></rect>
            <rect id="Rectangle" fill="#315FFF" x="260" y="40" width="20" height="20"></rect>
            <rect id="Rectangle" fill="#315FFF" x="280" y="40" width="20" height="20"></rect>
            <rect id="Rectangle" fill="#315FFF" x="300" y="40" width="20" height="20"></rect>
            <rect id="Rectangle" fill="#6293F0" x="320" y="40" width="20" height="20"></rect>
            <rect id="Rectangle" fill="#2C2B2C" x="340" y="40" width="20" height="20"></rect>
            <rect id="Rectangle" fill="#2C2B2C" x="0" y="60" width="20" height="20"></rect>
            <rect id="Rectangle" fill="#6293F0" x="20" y="60" width="20" height="20"></rect>
            <rect id="Rectangle" fill="#315FFF" x="40" y="60" width="20" height="20"></rect>
            <rect id="Rectangle" fill="#315FFF" x="60" y="60" width="20" height="20"></rect>
            <rect id="Rectangle" fill="#315FFF" x="80" y="60" width="20" height="20"></rect>
            <rect id="Rectangle" fill="#315FFF" x="100" y="60" width="20" height="20"></rect>
            <rect id="Rectangle" fill="#315FFF" x="120" y="60" width="20" height="20"></rect>
            <rect id="Rectangle" fill="#315FFF" x="140" y="60" width="20" height="20"></rect>
            <rect id="Rectangle" fill="#315FFF" x="160" y="60" width="20" height="20"></rect>
            <rect id="Rectangle" fill="#315FFF" x="180" y="60" width="20" height="20"></rect>
            <rect id="Rectangle" fill="#315FFF" x="200" y="60" width="20" height="20"></rect>
            <rect id="Rectangle" fill="#315FFF" x="220" y="60" width="20" height="20"></rect>
            <rect id="Rectangle" fill="#315FFF" x="240" y="60" width="20" height="20"></rect>
            <rect id="Rectangle" fill="#315FFF" x="260" y="60" width="20" height="20"></rect>
            <rect id="Rectangle" fill="#315FFF" x="280" y="60" width="20" height="20"></rect>
            <rect id="Rectangle" fill="#315FFF" x="300" y="60" width="20" height="20"></rect>
            <rect id="Rectangle" fill="#6293F0" x="320" y="60" width="20" height="20"></rect>
            <rect id="Rectangle" fill="#2C2B2C" x="340" y="60" width="20" height="20"></rect>
            <rect id="Rectangle" fill="#2C2B2C" x="0" y="80" width="20" height="20"></rect>
            <rect id="Rectangle" fill="#2C2B2C" x="20" y="80" width="20" height="20"></rect>
            <rect id="Rectangle" fill="#2C2B2C" x="40" y="80" width="20" height="20"></rect>
            <rect id="Rectangle" fill="#2C2B2C" x="60" y="80" width="20" height="20"></rect>
            <rect id="Rectangle" fill="#2C2B2C" x="80" y="80" width="20" height="20"></rect>
            <rect id="Rectangle" fill="#2C2B2C" x="100" y="80" width="20" height="20"></rect>
            <rect id="Rectangle" fill="#2C2B2C" x="120" y="80" width="20" height="20"></rect>
            <rect id="Rectangle" fill="#2C2B2C" x="140" y="80" width="20" height="20"></rect>
            <rect id="Rectangle" fill="#2C2B2C" x="160" y="80" width="20" height="20"></rect>
            <rect id="Rectangle" fill="#2C2B2C" x="180" y="80" width="20" height="20"></rect>
            <rect id="Rectangle" fill="#2C2B2C" x="200" y="80" width="20" height="20"></rect>
            <rect id="Rectangle" fill="#2C2B2C" x="220" y="80" width="20" height="20"></rect>
            <rect id="Rectangle" fill="#2C2B2C" x="240" y="80" width="20" height="20"></rect>
            <rect id="Rectangle" fill="#2C2B2C" x="260" y="80" width="20" height="20"></rect>
            <rect id="Rectangle" fill="#2C2B2C" x="280" y="80" width="20" height="20"></rect>
            <rect id="Rectangle" fill="#2C2B2C" x="300" y="80" width="20" height="20"></rect>
            <rect id="Rectangle" fill="#2C2B2C" x="320" y="80" width="20" height="20"></rect>
            <rect id="Rectangle" fill="#2C2B2C" x="340" y="80" width="20" height="20"></rect>
            <rect id="Rectangle" fill="#2C2B2C" x="0" y="100" width="20" height="20"></rect>
            <rect id="Rectangle" fill="#FEFCFC" x="20" y="100" width="20" height="20"></rect>
            <rect id="Rectangle" fill="#FEFCFC" x="40" y="100" width="20" height="20"></rect>
            <rect id="Rectangle" fill="#FEFCFC" x="60" y="100" width="20" height="20"></rect>
            <rect id="Rectangle" fill="#FEFCFC" x="80" y="100" width="20" height="20"></rect>
            <rect id="Rectangle" fill="#2C2B2C" x="100" y="100" width="20" height="20"></rect>
            <rect id="Rectangle" fill="#2C2B2C" x="120" y="100" width="20" height="20"></rect>
            <rect id="Rectangle" fill="#2C2B2C" x="140" y="100" width="20" height="20"></rect>
            <rect id="Rectangle" fill="#FEFCFC" x="160" y="100" width="20" height="20"></rect>
            <rect id="Rectangle" fill="#FEFCFC" x="180" y="100" width="20" height="20"></rect>
            <rect id="Rectangle" fill="#2C2B2C" x="200" y="100" width="20" height="20"></rect>
            <rect id="Rectangle" fill="#2C2B2C" x="220" y="100" width="20" height="20"></rect>
            <rect id="Rectangle" fill="#FEFCFC" x="240" y="100" width="20" height="20"></rect>
            <rect id="Rectangle" fill="#2C2B2C" x="260" y="100" width="20" height="20"></rect>
            <rect id="Rectangle" fill="#FEFCFC" x="280" y="100" width="20" height="20"></rect>
            <rect id="Rectangle" fill="#2C2B2C" x="300" y="100" width="20" height="20"></rect>
            <rect id="Rectangle" fill="#FEFCFC" x="320" y="100" width="20" height="20"></rect>
            <rect id="Rectangle" fill="#2C2B2C" x="340" y="100" width="20" height="20"></rect>
            <rect id="Rectangle" fill="#2C2B2C" x="1.42108547e-14" y="120" width="20" height="20"></rect>
            <rect id="Rectangle" fill="#FEFCFC" x="20" y="120" width="20" height="20"></rect>
            <rect id="Rectangle" fill="#FEFCFC" x="40" y="120" width="20" height="20"></rect>
            <rect id="Rectangle" fill="#2C2B2C" x="60" y="120" width="20" height="20"></rect>
            <rect id="Rectangle" fill="#2C2B2C" x="80" y="120" width="20" height="20"></rect>
            <rect id="Rectangle" fill="#FEFCFC" x="100" y="120" width="20" height="20"></rect>
            <rect id="Rectangle" fill="#2C2B2C" x="120" y="120" width="20" height="20"></rect>
            <rect id="Rectangle" fill="#FEFCFC" x="140" y="120" width="20" height="20"></rect>
            <rect id="Rectangle" fill="#FEFCFC" x="160" y="120" width="20" height="20"></rect>
            <rect id="Rectangle" fill="#2C2B2C" x="180" y="120" width="20" height="20"></rect>
            <rect id="Rectangle" fill="#FEFCFC" x="200" y="120" width="20" height="20"></rect>
            <rect id="Rectangle" fill="#2C2B2C" x="220" y="120" width="20" height="20"></rect>
            <rect id="Rectangle" fill="#FEFCFC" x="240" y="120" width="20" height="20"></rect>
            <rect id="Rectangle" fill="#2C2B2C" x="260" y="120" width="20" height="20"></rect>
            <rect id="Rectangle" fill="#FEFCFC" x="280" y="120" width="20" height="20"></rect>
            <rect id="Rectangle" fill="#2C2B2C" x="300" y="120" width="20" height="20"></rect>
            <rect id="Rectangle" fill="#FEFCFC" x="320" y="120" width="20" height="20"></rect>
            <rect id="Rectangle" fill="#2C2B2C" x="340" y="120" width="20" height="20"></rect>
            <rect id="Rectangle" fill="#2C2B2C" x="1.42108547e-14" y="140" width="20" height="20"></rect>
            <rect id="Rectangle" fill="#FEFCFC" x="20" y="140" width="20" height="20"></rect>
            <rect id="Rectangle" fill="#FEFCFC" x="40" y="140" width="20" height="20"></rect>
            <rect id="Rectangle" fill="#2C2B2C" x="60" y="140" width="20" height="20"></rect>
            <rect id="Rectangle" fill="#2C2B2C" x="80" y="140" width="20" height="20"></rect>
            <rect id="Rectangle" fill="#FEFCFC" x="100" y="140" width="20" height="20"></rect>
            <rect id="Rectangle" fill="#2C2B2C" x="120" y="140" width="20" height="20"></rect>
            <rect id="Rectangle" fill="#FEFCFC" x="140" y="140" width="20" height="20"></rect>
            <rect id="Rectangle" fill="#FEFCFC" x="160" y="140" width="20" height="20"></rect>
            <rect id="Rectangle" fill="#2C2B2C" x="180" y="140" width="20" height="20"></rect>
            <rect id="Rectangle" fill="#FEFCFC" x="200" y="140" width="20" height="20"></rect>
            <rect id="Rectangle" fill="#2C2B2C" x="220" y="140" width="20" height="20"></rect>
            <rect id="Rectangle" fill="#FEFCFC" x="240" y="140" width="20" height="20"></rect>
            <rect id="Rectangle" fill="#2C2B2C" x="260" y="140" width="20" height="20"></rect>
            <rect id="Rectangle" fill="#FEFCFC" x="280" y="140" width="20" height="20"></rect>
            <rect id="Rectangle" fill="#2C2B2C" x="300" y="140" width="20" height="20"></rect>
            <rect id="Rectangle" fill="#FEFCFC" x="320" y="140" width="20" height="20"></rect>
            <rect id="Rectangle" fill="#2C2B2C" x="340" y="140" width="20" height="20"></rect>
            <rect id="Rectangle" fill="#2C2B2C" x="1.42108547e-14" y="160" width="20" height="20"></rect>
            <rect id="Rectangle" fill="#FEFCFC" x="20" y="160" width="20" height="20"></rect>
            <rect id="Rectangle" fill="#FEFCFC" x="40" y="160" width="20" height="20"></rect>
            <rect id="Rectangle" fill="#2C2B2C" x="60" y="160" width="20" height="20"></rect>
            <rect id="Rectangle" fill="#2C2B2C" x="80" y="160" width="20" height="20"></rect>
            <rect id="Rectangle" fill="#FEFCFC" x="100" y="160" width="20" height="20"></rect>
            <rect id="Rectangle" fill="#2C2B2C" x="120" y="160" width="20" height="20"></rect>
            <rect id="Rectangle" fill="#FEFCFC" x="140" y="160" width="20" height="20"></rect>
            <rect id="Rectangle" fill="#FEFCFC" x="160" y="160" width="20" height="20"></rect>
            <rect id="Rectangle" fill="#2C2B2C" x="180" y="160" width="20" height="20"></rect>
            <rect id="Rectangle" fill="#FEFCFC" x="200" y="160" width="20" height="20"></rect>
            <rect id="Rectangle" fill="#2C2B2C" x="220" y="160" width="20" height="20"></rect>
            <rect id="Rectangle" fill="#FEFCFC" x="240" y="160" width="20" height="20"></rect>
            <rect id="Rectangle" fill="#2C2B2C" x="260" y="160" width="20" height="20"></rect>
            <rect id="Rectangle" fill="#FEFCFC" x="280" y="160" width="20" height="20"></rect>
            <rect id="Rectangle" fill="#2C2B2C" x="300" y="160" width="20" height="20"></rect>
            <rect id="Rectangle" fill="#FEFCFC" x="320" y="160" width="20" height="20"></rect>
            <rect id="Rectangle" fill="#2C2B2C" x="340" y="160" width="20" height="20"></rect>
            <rect id="Rectangle" fill="#2C2B2C" x="1.42108547e-14" y="180" width="20" height="20"></rect>
            <rect id="Rectangle" fill="#FEFCFC" x="20" y="180" width="20" height="20"></rect>
            <rect id="Rectangle" fill="#FEFCFC" x="40" y="180" width="20" height="20"></rect>
            <rect id="Rectangle" fill="#2C2B2C" x="60" y="180" width="20" height="20"></rect>
            <rect id="Rectangle" fill="#2C2B2C" x="80" y="180" width="20" height="20"></rect>
            <rect id="Rectangle" fill="#FEFCFC" x="100" y="180" width="20" height="20"></rect>
            <rect id="Rectangle" fill="#2C2B2C" x="120" y="180" width="20" height="20"></rect>
            <rect id="Rectangle" fill="#FEFCFC" x="140" y="180" width="20" height="20"></rect>
            <rect id="Rectangle" fill="#FEFCFC" x="160" y="180" width="20" height="20"></rect>
            <rect id="Rectangle" fill="#2C2B2C" x="180" y="180" width="20" height="20"></rect>
            <rect id="Rectangle" fill="#FEFCFC" x="200" y="180" width="20" height="20"></rect>
            <rect id="Rectangle" fill="#2C2B2C" x="220" y="180" width="20" height="20"></rect>
            <rect id="Rectangle" fill="#FEFCFC" x="240" y="180" width="20" height="20"></rect>
            <rect id="Rectangle" fill="#2C2B2C" x="260" y="180" width="20" height="20"></rect>
            <rect id="Rectangle" fill="#FEFCFC" x="280" y="180" width="20" height="20"></rect>
            <rect id="Rectangle" fill="#2C2B2C" x="300" y="180" width="20" height="20"></rect>
            <rect id="Rectangle" fill="#FEFCFC" x="320" y="180" width="20" height="20"></rect>
            <rect id="Rectangle" fill="#2C2B2C" x="340" y="180" width="20" height="20"></rect>
            <rect id="Rectangle" fill="#2C2B2C" x="1.42108547e-14" y="200" width="20" height="20"></rect>
            <rect id="Rectangle" fill="#FEFCFC" x="20" y="200" width="20" height="20"></rect>
            <rect id="Rectangle" fill="#FEFCFC" x="40" y="200" width="20" height="20"></rect>
            <rect id="Rectangle" fill="#FEFCFC" x="60" y="200" width="20" height="20"></rect>
            <rect id="Rectangle" fill="#FEFCFC" x="80" y="200" width="20" height="20"></rect>
            <rect id="Rectangle" fill="#2C2B2C" x="100" y="200" width="20" height="20"></rect>
            <rect id="Rectangle" fill="#2C2B2C" x="120" y="200" width="20" height="20"></rect>
            <rect id="Rectangle" fill="#FEFCFC" x="140" y="200" width="20" height="20"></rect>
            <rect id="Rectangle" fill="#FEFCFC" x="160" y="200" width="20" height="20"></rect>
            <rect id="Rectangle" fill="#2C2B2C" x="180" y="200" width="20" height="20"></rect>
            <rect id="Rectangle" fill="#FEFCFC" x="200" y="200" width="20" height="20"></rect>
            <rect id="Rectangle" fill="#2C2B2C" x="220" y="200" width="20" height="20"></rect>
            <rect id="Rectangle" fill="#FEFCFC" x="240" y="200" width="20" height="20"></rect>
            <rect id="Rectangle" fill="#2C2B2C" x="260" y="200" width="20" height="20"></rect>
            <rect id="Rectangle" fill="#FEFCFC" x="280" y="200" width="20" height="20"></rect>
            <rect id="Rectangle" fill="#2C2B2C" x="300" y="200" width="20" height="20"></rect>
            <rect id="Rectangle" fill="#FEFCFC" x="320" y="200" width="20" height="20"></rect>
            <rect id="Rectangle" fill="#2C2B2C" x="340" y="200" width="20" height="20"></rect>
            <rect id="Rectangle" fill="#2C2B2C" x="1.42108547e-14" y="220" width="20" height="20"></rect>
            <rect id="Rectangle" fill="#FEFCFC" x="20" y="220" width="20" height="20"></rect>
            <rect id="Rectangle" fill="#FEFCFC" x="40" y="220" width="20" height="20"></rect>
            <rect id="Rectangle" fill="#2C2B2C" x="60" y="220" width="20" height="20"></rect>
            <rect id="Rectangle" fill="#2C2B2C" x="80" y="220" width="20" height="20"></rect>
            <rect id="Rectangle" fill="#2C2B2C" x="100" y="220" width="20" height="20"></rect>
            <rect id="Rectangle" fill="#2C2B2C" x="120" y="220" width="20" height="20"></rect>
            <rect id="Rectangle" fill="#FEFCFC" x="140" y="220" width="20" height="20"></rect>
            <rect id="Rectangle" fill="#FEFCFC" x="160" y="220" width="20" height="20"></rect>
            <rect id="Rectangle" fill="#2C2B2C" x="180" y="220" width="20" height="20"></rect>
            <rect id="Rectangle" fill="#FEFCFC" x="200" y="220" width="20" height="20"></rect>
            <rect id="Rectangle" fill="#2C2B2C" x="220" y="220" width="20" height="20"></rect>
            <rect id="Rectangle" fill="#FEFCFC" x="240" y="220" width="20" height="20"></rect>
            <rect id="Rectangle" fill="#FEFCFC" x="260" y="220" width="20" height="20"></rect>
            <rect id="Rectangle" fill="#FEFCFC" x="280" y="220" width="20" height="20"></rect>
            <rect id="Rectangle" fill="#FEFCFC" x="300" y="220" width="20" height="20"></rect>
            <rect id="Rectangle" fill="#FEFCFC" x="320" y="220" width="20" height="20"></rect>
            <rect id="Rectangle" fill="#2C2B2C" x="340" y="220" width="20" height="20"></rect>
            <rect id="Rectangle" fill="#2C2B2C" x="2.84217094e-14" y="240" width="20" height="20"></rect>
            <rect id="Rectangle" fill="#FEFCFC" x="20" y="240" width="20" height="20"></rect>
            <rect id="Rectangle" fill="#FEFCFC" x="40" y="240" width="20" height="20"></rect>
            <rect id="Rectangle" fill="#2C2B2C" x="60" y="240" width="20" height="20"></rect>
            <rect id="Rectangle" fill="#2C2B2C" x="80" y="240" width="20" height="20"></rect>
            <rect id="Rectangle" fill="#2C2B2C" x="100" y="240" width="20" height="20"></rect>
            <rect id="Rectangle" fill="#2C2B2C" x="120" y="240" width="20" height="20"></rect>
            <rect id="Rectangle" fill="#2C2B2C" x="140" y="240" width="20" height="20"></rect>
            <rect id="Rectangle" fill="#FEFCFC" x="160" y="240" width="20" height="20"></rect>
            <rect id="Rectangle" fill="#FEFCFC" x="180" y="240" width="20" height="20"></rect>
            <rect id="Rectangle" fill="#2C2B2C" x="200" y="240" width="20" height="20"></rect>
            <rect id="Rectangle" fill="#2C2B2C" x="220" y="240" width="20" height="20"></rect>
            <rect id="Rectangle" fill="#FEFCFC" x="240" y="240" width="20" height="20"></rect>
            <rect id="Rectangle" fill="#FEFCFC" x="260" y="240" width="20" height="20"></rect>
            <rect id="Rectangle" fill="#2C2B2C" x="280" y="240" width="20" height="20"></rect>
            <rect id="Rectangle" fill="#FEFCFC" x="300" y="240" width="20" height="20"></rect>
            <rect id="Rectangle" fill="#FEFCFC" x="320" y="240" width="20" height="20"></rect>
            <rect id="Rectangle" fill="#2C2B2C" x="340" y="240" width="20" height="20"></rect>
            <rect id="Rectangle" fill="#2C2B2C" x="2.84217094e-14" y="260" width="20" height="20"></rect>
            <rect id="Rectangle" fill="#2C2B2C" x="20" y="260" width="20" height="20"></rect>
            <rect id="Rectangle" fill="#2C2B2C" x="40" y="260" width="20" height="20"></rect>
            <rect id="Rectangle" fill="#2C2B2C" x="60" y="260" width="20" height="20"></rect>
            <rect id="Rectangle" fill="#2C2B2C" x="80" y="260" width="20" height="20"></rect>
            <rect id="Rectangle" fill="#2C2B2C" x="100" y="260" width="20" height="20"></rect>
            <rect id="Rectangle" fill="#2C2B2C" x="120" y="260" width="20" height="20"></rect>
            <rect id="Rectangle" fill="#2C2B2C" x="140" y="260" width="20" height="20"></rect>
            <rect id="Rectangle" fill="#2C2B2C" x="160" y="260" width="20" height="20"></rect>
            <rect id="Rectangle" fill="#2C2B2C" x="180" y="260" width="20" height="20"></rect>
            <rect id="Rectangle" fill="#2C2B2C" x="200" y="260" width="20" height="20"></rect>
            <rect id="Rectangle" fill="#2C2B2C" x="220" y="260" width="20" height="20"></rect>
            <rect id="Rectangle" fill="#2C2B2C" x="240" y="260" width="20" height="20"></rect>
            <rect id="Rectangle" fill="#2C2B2C" x="260" y="260" width="20" height="20"></rect>
            <rect id="Rectangle" fill="#2C2B2C" x="280" y="260" width="20" height="20"></rect>
            <rect id="Rectangle" fill="#2C2B2C" x="300" y="260" width="20" height="20"></rect>
            <rect id="Rectangle" fill="#2C2B2C" x="320" y="260" width="20" height="20"></rect>
            <rect id="Rectangle" fill="#2C2B2C" x="340" y="260" width="20" height="20"></rect>
            <rect id="Rectangle" fill="#2C2B2C" x="2.84217094e-14" y="280" width="20" height="20"></rect>
            <rect id="Rectangle" fill="#6293F0" x="20" y="280" width="20" height="20"></rect>
            <rect id="Rectangle" fill="#315FFF" x="40" y="280" width="20" height="20"></rect>
            <rect id="Rectangle" fill="#315FFF" x="60" y="280" width="20" height="20"></rect>
            <rect id="Rectangle" fill="#315FFF" x="80" y="280" width="20" height="20"></rect>
            <rect id="Rectangle" fill="#315FFF" x="100" y="280" width="20" height="20"></rect>
            <rect id="Rectangle" fill="#315FFF" x="120" y="280" width="20" height="20"></rect>
            <rect id="Rectangle" fill="#315FFF" x="140" y="280" width="20" height="20"></rect>
            <rect id="Rectangle" fill="#315FFF" x="160" y="280" width="20" height="20"></rect>
            <rect id="Rectangle" fill="#315FFF" x="180" y="280" width="20" height="20"></rect>
            <rect id="Rectangle" fill="#315FFF" x="200" y="280" width="20" height="20"></rect>
            <rect id="Rectangle" fill="#315FFF" x="220" y="280" width="20" height="20"></rect>
            <rect id="Rectangle" fill="#315FFF" x="240" y="280" width="20" height="20"></rect>
            <rect id="Rectangle" fill="#315FFF" x="260" y="280" width="20" height="20"></rect>
            <rect id="Rectangle" fill="#315FFF" x="280" y="280" width="20" height="20"></rect>
            <rect id="Rectangle" fill="#315FFF" x="300" y="280" width="20" height="20"></rect>
            <rect id="Rectangle" fill="#6293F0" x="320" y="280" width="20" height="20"></rect>
            <rect id="Rectangle" fill="#2C2B2C" x="340" y="280" width="20" height="20"></rect>
            <rect id="Rectangle" fill="#2C2B2C" x="1.42108547e-14" y="300" width="20" height="20"></rect>
            <rect id="Rectangle" fill="#6293F0" x="20" y="300" width="20" height="20"></rect>
            <rect id="Rectangle" fill="#315FFF" x="40" y="300" width="20" height="20"></rect>
            <rect id="Rectangle" fill="#315FFF" x="60" y="300" width="20" height="20"></rect>
            <rect id="Rectangle" fill="#315FFF" x="80" y="300" width="20" height="20"></rect>
            <rect id="Rectangle" fill="#315FFF" x="100" y="300" width="20" height="20"></rect>
            <rect id="Rectangle" fill="#315FFF" x="120" y="300" width="20" height="20"></rect>
            <rect id="Rectangle" fill="#315FFF" x="140" y="300" width="20" height="20"></rect>
            <rect id="Rectangle" fill="#315FFF" x="160" y="300" width="20" height="20"></rect>
            <rect id="Rectangle" fill="#315FFF" x="180" y="300" width="20" height="20"></rect>
            <rect id="Rectangle" fill="#315FFF" x="200" y="300" width="20" height="20"></rect>
            <rect id="Rectangle" fill="#315FFF" x="220" y="300" width="20" height="20"></rect>
            <rect id="Rectangle" fill="#315FFF" x="240" y="300" width="20" height="20"></rect>
            <rect id="Rectangle" fill="#315FFF" x="260" y="300" width="20" height="20"></rect>
            <rect id="Rectangle" fill="#315FFF" x="280" y="300" width="20" height="20"></rect>
            <rect id="Rectangle" fill="#315FFF" x="300" y="300" width="20" height="20"></rect>
            <rect id="Rectangle" fill="#6293F0" x="320" y="300" width="20" height="20"></rect>
            <rect id="Rectangle" fill="#2C2B2C" x="340" y="300" width="20" height="20"></rect>
            <rect id="Rectangle" fill="#2C2B2C" x="20" y="320" width="20" height="20"></rect>
            <rect id="Rectangle" fill="#6293F0" x="40" y="320" width="20" height="20"></rect>
            <rect id="Rectangle" fill="#6293F0" x="60" y="320" width="20" height="20"></rect>
            <rect id="Rectangle" fill="#6293F0" x="80" y="320" width="20" height="20"></rect>
            <rect id="Rectangle" fill="#6293F0" x="100" y="320" width="20" height="20"></rect>
            <rect id="Rectangle" fill="#6293F0" x="120" y="320" width="20" height="20"></rect>
            <rect id="Rectangle" fill="#6293F0" x="140" y="320" width="20" height="20"></rect>
            <rect id="Rectangle" fill="#6293F0" x="160" y="320" width="20" height="20"></rect>
            <rect id="Rectangle" fill="#6293F0" x="180" y="320" width="20" height="20"></rect>
            <rect id="Rectangle" fill="#6293F0" x="200" y="320" width="20" height="20"></rect>
            <rect id="Rectangle" fill="#6293F0" x="220" y="320" width="20" height="20"></rect>
            <rect id="Rectangle" fill="#6293F0" x="240" y="320" width="20" height="20"></rect>
            <rect id="Rectangle" fill="#6293F0" x="260" y="320" width="20" height="20"></rect>
            <rect id="Rectangle" fill="#6293F0" x="280" y="320" width="20" height="20"></rect>
            <rect id="Rectangle" fill="#6293F0" x="300" y="320" width="20" height="20"></rect>
            <rect id="Rectangle" fill="#2C2B2C" x="320" y="320" width="20" height="20"></rect>
            <rect id="Rectangle" fill="#2C2B2C" x="40" y="340" width="20" height="20"></rect>
            <rect id="Rectangle" fill="#2C2B2C" x="60" y="340" width="20" height="20"></rect>
            <rect id="Rectangle" fill="#2C2B2C" x="80" y="340" width="20" height="20"></rect>
            <rect id="Rectangle" fill="#2C2B2C" x="100" y="340" width="20" height="20"></rect>
            <rect id="Rectangle" fill="#2C2B2C" x="120" y="340" width="20" height="20"></rect>
            <rect id="Rectangle" fill="#2C2B2C" x="140" y="340" width="20" height="20"></rect>
            <rect id="Rectangle" fill="#2C2B2C" x="160" y="340" width="20" height="20"></rect>
            <rect id="Rectangle" fill="#2C2B2C" x="180" y="340" width="20" height="20"></rect>
            <rect id="Rectangle" fill="#2C2B2C" x="200" y="340" width="20" height="20"></rect>
            <rect id="Rectangle" fill="#2C2B2C" x="220" y="340" width="20" height="20"></rect>
            <rect id="Rectangle" fill="#2C2B2C" x="240" y="340" width="20" height="20"></rect>
            <rect id="Rectangle" fill="#2C2B2C" x="260" y="340" width="20" height="20"></rect>
            <rect id="Rectangle" fill="#2C2B2C" x="280" y="340" width="20" height="20"></rect>
            <rect id="Rectangle" fill="#2C2B2C" x="300" y="340" width="20" height="20"></rect>
        </g>
    </g>
</svg>