<svg width="360" height="360" viewBox="0 0 360 360" xmlns="http://www.w3.org/2000/svg">
  <g fill="none" fill-rule="evenodd">
    <path fill="#2C2B2C" d="M40 0h20v20H40zM60 0h20v20H60zM80 0h20v20H80zM100 0h20v20h-20zM120 0h20v20h-20zM140 0h20v20h-20zM160 0h20v20h-20zM180 0h20v20h-20zM200 0h20v20h-20zM220 0h20v20h-20zM240 0h20v20h-20zM260 0h20v20h-20zM280 0h20v20h-20zM300 0h20v20h-20zM20 20h20v20H20z"/>
    <path fill="#6293F0" d="M40 20h20v20H40zM60 20h20v20H60zM80 20h20v20H80zM100 20h20v20h-20zM120 20h20v20h-20zM140 20h20v20h-20zM160 20h20v20h-20zM180 20h20v20h-20zM200 20h20v20h-20zM220 20h20v20h-20zM240 20h20v20h-20zM260 20h20v20h-20zM280 20h20v20h-20zM300 20h20v20h-20z"/>
    <path fill="#2C2B2C" d="M320 20h20v20h-20zM0 40h20v20H0z"/>
    <path fill="#6293F0" d="M20 40h20v20H20z"/>
    <path fill="#315FFF" d="M40 40h20v20H40zM60 40h20v20H60zM80 40h20v20H80zM100 40h20v20h-20zM120 40h20v20h-20zM140 40h20v20h-20zM160 40h20v20h-20zM180 40h20v20h-20zM200 40h20v20h-20zM220 40h20v20h-20zM240 40h20v20h-20zM260 40h20v20h-20zM280 40h20v20h-20zM300 40h20v20h-20z"/>
    <path fill="#6293F0" d="M320 40h20v20h-20z"/>
    <path fill="#2C2B2C" d="M340 40h20v20h-20zM0 60h20v20H0z"/>
    <path fill="#6293F0" d="M20 60h20v20H20z"/>
    <path fill="#315FFF" d="M40 60h20v20H40zM60 60h20v20H60zM80 60h20v20H80zM100 60h20v20h-20zM120 60h20v20h-20zM140 60h20v20h-20zM160 60h20v20h-20zM180 60h20v20h-20zM200 60h20v20h-20zM220 60h20v20h-20zM240 60h20v20h-20zM260 60h20v20h-20zM280 60h20v20h-20zM300 60h20v20h-20z"/>
    <path fill="#6293F0" d="M320 60h20v20h-20z"/>
    <path fill="#2C2B2C" d="M340 60h20v20h-20zM0 80h20v20H0zM20 80h20v20H20zM40 80h20v20H40zM60 80h20v20H60zM80 80h20v20H80zM100 80h20v20h-20zM120 80h20v20h-20zM140 80h20v20h-20zM160 80h20v20h-20zM180 80h20v20h-20zM200 80h20v20h-20zM220 80h20v20h-20zM240 80h20v20h-20zM260 80h20v20h-20zM280 80h20v20h-20zM300 80h20v20h-20zM320 80h20v20h-20zM340 80h20v20h-20zM0 100h20v20H0z"/>
    <path fill="#FEFCFC" d="M20 100h20v20H20zM40 100h20v20H40zM60 100h20v20H60zM80 100h20v20H80z"/>
    <path fill="#2C2B2C" d="M100 100h20v20h-20zM120 100h20v20h-20zM140 100h20v20h-20z"/>
    <path fill="#FEFCFC" d="M160 100h20v20h-20zM180 100h20v20h-20z"/>
    <path fill="#2C2B2C" d="M200 100h20v20h-20zM220 100h20v20h-20z"/>
    <path fill="#FEFCFC" d="M240 100h20v20h-20z"/>
    <path fill="#2C2B2C" d="M260 100h20v20h-20z"/>
    <path fill="#FEFCFC" d="M280 100h20v20h-20z"/>
    <path fill="#2C2B2C" d="M300 100h20v20h-20z"/>
    <path fill="#FEFCFC" d="M320 100h20v20h-20z"/>
    <path fill="#2C2B2C" d="M340 100h20v20h-20zM0 120h20v20H0z"/>
    <path fill="#FEFCFC" d="M20 120h20v20H20zM40 120h20v20H40z"/>
    <path fill="#2C2B2C" d="M60 120h20v20H60zM80 120h20v20H80z"/>
    <path fill="#FEFCFC" d="M100 120h20v20h-20z"/>
    <path fill="#2C2B2C" d="M120 120h20v20h-20z"/>
    <path fill="#FEFCFC" d="M140 120h20v20h-20zM160 120h20v20h-20z"/>
    <path fill="#2C2B2C" d="M180 120h20v20h-20z"/>
    <path fill="#FEFCFC" d="M200 120h20v20h-20z"/>
    <path fill="#2C2B2C" d="M220 120h20v20h-20z"/>
    <path fill="#FEFCFC" d="M240 120h20v20h-20z"/>
    <path fill="#2C2B2C" d="M260 120h20v20h-20z"/>
    <path fill="#FEFCFC" d="M280 120h20v20h-20z"/>
    <path fill="#2C2B2C" d="M300 120h20v20h-20z"/>
    <path fill="#FEFCFC" d="M320 120h20v20h-20z"/>
    <path fill="#2C2B2C" d="M340 120h20v20h-20zM0 140h20v20H0z"/>
    <path fill="#FEFCFC" d="M20 140h20v20H20zM40 140h20v20H40z"/>
    <path fill="#2C2B2C" d="M60 140h20v20H60zM80 140h20v20H80z"/>
    <path fill="#FEFCFC" d="M100 140h20v20h-20z"/>
    <path fill="#2C2B2C" d="M120 140h20v20h-20z"/>
    <path fill="#FEFCFC" d="M140 140h20v20h-20zM160 140h20v20h-20z"/>
    <path fill="#2C2B2C" d="M180 140h20v20h-20z"/>
    <path fill="#FEFCFC" d="M200 140h20v20h-20z"/>
    <path fill="#2C2B2C" d="M220 140h20v20h-20z"/>
    <path fill="#FEFCFC" d="M240 140h20v20h-20z"/>
    <path fill="#2C2B2C" d="M260 140h20v20h-20z"/>
    <path fill="#FEFCFC" d="M280 140h20v20h-20z"/>
    <path fill="#2C2B2C" d="M300 140h20v20h-20z"/>
    <path fill="#FEFCFC" d="M320 140h20v20h-20z"/>
    <path fill="#2C2B2C" d="M340 140h20v20h-20zM0 160h20v20H0z"/>
    <path fill="#FEFCFC" d="M20 160h20v20H20zM40 160h20v20H40z"/>
    <path fill="#2C2B2C" d="M60 160h20v20H60zM80 160h20v20H80z"/>
    <path fill="#FEFCFC" d="M100 160h20v20h-20z"/>
    <path fill="#2C2B2C" d="M120 160h20v20h-20z"/>
    <path fill="#FEFCFC" d="M140 160h20v20h-20zM160 160h20v20h-20z"/>
    <path fill="#2C2B2C" d="M180 160h20v20h-20z"/>
    <path fill="#FEFCFC" d="M200 160h20v20h-20z"/>
    <path fill="#2C2B2C" d="M220 160h20v20h-20z"/>
    <path fill="#FEFCFC" d="M240 160h20v20h-20z"/>
    <path fill="#2C2B2C" d="M260 160h20v20h-20z"/>
    <path fill="#FEFCFC" d="M280 160h20v20h-20z"/>
    <path fill="#2C2B2C" d="M300 160h20v20h-20z"/>
    <path fill="#FEFCFC" d="M320 160h20v20h-20z"/>
    <path fill="#2C2B2C" d="M340 160h20v20h-20zM0 180h20v20H0z"/>
    <path fill="#FEFCFC" d="M20 180h20v20H20zM40 180h20v20H40z"/>
    <path fill="#2C2B2C" d="M60 180h20v20H60zM80 180h20v20H80z"/>
    <path fill="#FEFCFC" d="M100 180h20v20h-20z"/>
    <path fill="#2C2B2C" d="M120 180h20v20h-20z"/>
    <path fill="#FEFCFC" d="M140 180h20v20h-20zM160 180h20v20h-20z"/>
    <path fill="#2C2B2C" d="M180 180h20v20h-20z"/>
    <path fill="#FEFCFC" d="M200 180h20v20h-20z"/>
    <path fill="#2C2B2C" d="M220 180h20v20h-20z"/>
    <path fill="#FEFCFC" d="M240 180h20v20h-20z"/>
    <path fill="#2C2B2C" d="M260 180h20v20h-20z"/>
    <path fill="#FEFCFC" d="M280 180h20v20h-20z"/>
    <path fill="#2C2B2C" d="M300 180h20v20h-20z"/>
    <path fill="#FEFCFC" d="M320 180h20v20h-20z"/>
    <path fill="#2C2B2C" d="M340 180h20v20h-20zM0 200h20v20H0z"/>
    <path fill="#FEFCFC" d="M20 200h20v20H20zM40 200h20v20H40zM60 200h20v20H60zM80 200h20v20H80z"/>
    <path fill="#2C2B2C" d="M100 200h20v20h-20zM120 200h20v20h-20z"/>
    <path fill="#FEFCFC" d="M140 200h20v20h-20zM160 200h20v20h-20z"/>
    <path fill="#2C2B2C" d="M180 200h20v20h-20z"/>
    <path fill="#FEFCFC" d="M200 200h20v20h-20z"/>
    <path fill="#2C2B2C" d="M220 200h20v20h-20z"/>
    <path fill="#FEFCFC" d="M240 200h20v20h-20z"/>
    <path fill="#2C2B2C" d="M260 200h20v20h-20z"/>
    <path fill="#FEFCFC" d="M280 200h20v20h-20z"/>
    <path fill="#2C2B2C" d="M300 200h20v20h-20z"/>
    <path fill="#FEFCFC" d="M320 200h20v20h-20z"/>
    <path fill="#2C2B2C" d="M340 200h20v20h-20zM0 220h20v20H0z"/>
    <path fill="#FEFCFC" d="M20 220h20v20H20zM40 220h20v20H40z"/>
    <path fill="#2C2B2C" d="M60 220h20v20H60zM80 220h20v20H80zM100 220h20v20h-20zM120 220h20v20h-20z"/>
    <path fill="#FEFCFC" d="M140 220h20v20h-20zM160 220h20v20h-20z"/>
    <path fill="#2C2B2C" d="M180 220h20v20h-20z"/>
    <path fill="#FEFCFC" d="M200 220h20v20h-20z"/>
    <path fill="#2C2B2C" d="M220 220h20v20h-20z"/>
    <path fill="#FEFCFC" d="M240 220h20v20h-20zM260 220h20v20h-20zM280 220h20v20h-20zM300 220h20v20h-20zM320 220h20v20h-20z"/>
    <path fill="#2C2B2C" d="M340 220h20v20h-20zM0 240h20v20H0z"/>
    <path fill="#FEFCFC" d="M20 240h20v20H20zM40 240h20v20H40z"/>
    <path fill="#2C2B2C" d="M60 240h20v20H60zM80 240h20v20H80zM100 240h20v20h-20zM120 240h20v20h-20zM140 240h20v20h-20z"/>
    <path fill="#FEFCFC" d="M160 240h20v20h-20zM180 240h20v20h-20z"/>
    <path fill="#2C2B2C" d="M200 240h20v20h-20zM220 240h20v20h-20z"/>
    <path fill="#FEFCFC" d="M240 240h20v20h-20zM260 240h20v20h-20z"/>
    <path fill="#2C2B2C" d="M280 240h20v20h-20z"/>
    <path fill="#FEFCFC" d="M300 240h20v20h-20zM320 240h20v20h-20z"/>
    <path fill="#2C2B2C" d="M340 240h20v20h-20zM0 260h20v20H0zM20 260h20v20H20zM40 260h20v20H40zM60 260h20v20H60zM80 260h20v20H80zM100 260h20v20h-20zM120 260h20v20h-20zM140 260h20v20h-20zM160 260h20v20h-20zM180 260h20v20h-20zM200 260h20v20h-20zM220 260h20v20h-20zM240 260h20v20h-20zM260 260h20v20h-20zM280 260h20v20h-20zM300 260h20v20h-20zM320 260h20v20h-20zM340 260h20v20h-20zM0 280h20v20H0z"/>
    <path fill="#6293F0" d="M20 280h20v20H20z"/>
    <path fill="#315FFF" d="M40 280h20v20H40zM60 280h20v20H60zM80 280h20v20H80zM100 280h20v20h-20zM120 280h20v20h-20zM140 280h20v20h-20zM160 280h20v20h-20zM180 280h20v20h-20zM200 280h20v20h-20zM220 280h20v20h-20zM240 280h20v20h-20zM260 280h20v20h-20zM280 280h20v20h-20zM300 280h20v20h-20z"/>
    <path fill="#6293F0" d="M320 280h20v20h-20z"/>
    <path fill="#2C2B2C" d="M340 280h20v20h-20zM0 300h20v20H0z"/>
    <path fill="#6293F0" d="M20 300h20v20H20z"/>
    <path fill="#315FFF" d="M40 300h20v20H40zM60 300h20v20H60zM80 300h20v20H80zM100 300h20v20h-20zM120 300h20v20h-20zM140 300h20v20h-20zM160 300h20v20h-20zM180 300h20v20h-20zM200 300h20v20h-20zM220 300h20v20h-20zM240 300h20v20h-20zM260 300h20v20h-20zM280 300h20v20h-20zM300 300h20v20h-20z"/>
    <path fill="#6293F0" d="M320 300h20v20h-20z"/>
    <path fill="#2C2B2C" d="M340 300h20v20h-20zM20 320h20v20H20z"/>
    <path fill="#6293F0" d="M40 320h20v20H40zM60 320h20v20H60zM80 320h20v20H80zM100 320h20v20h-20zM120 320h20v20h-20zM140 320h20v20h-20zM160 320h20v20h-20zM180 320h20v20h-20zM200 320h20v20h-20zM220 320h20v20h-20zM240 320h20v20h-20zM260 320h20v20h-20zM280 320h20v20h-20zM300 320h20v20h-20z"/>
    <path fill="#2C2B2C" d="M320 320h20v20h-20zM40 340h20v20H40zM60 340h20v20H60zM80 340h20v20H80zM100 340h20v20h-20zM120 340h20v20h-20zM140 340h20v20h-20zM160 340h20v20h-20zM180 340h20v20h-20zM200 340h20v20h-20zM220 340h20v20h-20zM240 340h20v20h-20zM260 340h20v20h-20zM280 340h20v20h-20zM300 340h20v20h-20z"/>
  </g>
</svg>