<svg width="360" height="211" viewBox="0 0 360 211" xmlns="http://www.w3.org/2000/svg">
  <g fill="none" fill-rule="evenodd">
    <path fill="#2C2B2C" d="M40 0h20v12H40zM60 0h20v12H60zM80 0h20v12H80zM100 0h20v12h-20zM120 0h20v12h-20zM140 0h20v12h-20zM160 0h20v12h-20zM180 0h20v12h-20zM200 0h20v12h-20zM220 0h20v12h-20zM240 0h20v12h-20zM260 0h20v12h-20zM280 0h20v12h-20zM300 0h20v12h-20zM20 12h20v12H20z"/>
    <path fill="#6293F0" d="M40 12h20v12H40zM60 12h20v12H60zM80 12h20v12H80zM100 12h20v12h-20zM120 12h20v12h-20zM140 12h20v12h-20zM160 12h20v12h-20zM180 12h20v12h-20zM200 12h20v12h-20zM220 12h20v12h-20zM240 12h20v12h-20zM260 12h20v12h-20zM280 12h20v12h-20zM300 12h20v12h-20z"/>
    <path fill="#2C2B2C" d="M320 12h20v12h-20zM0 23h20v12H0z"/>
    <path fill="#6293F0" d="M20 23h20v12H20z"/>
    <path fill="#315FFF" d="M40 23h20v12H40zM60 23h20v12H60zM80 23h20v12H80zM100 23h20v12h-20zM120 23h20v12h-20zM140 23h20v12h-20zM160 23h20v12h-20zM180 23h20v12h-20zM200 23h20v12h-20zM220 23h20v12h-20zM240 23h20v12h-20zM260 23h20v12h-20zM280 23h20v12h-20zM300 23h20v12h-20z"/>
    <path fill="#6293F0" d="M320 23h20v12h-20z"/>
    <path fill="#2C2B2C" d="M340 23h20v12h-20zM0 35h20v12H0z"/>
    <path fill="#6293F0" d="M20 35h20v12H20z"/>
    <path fill="#315FFF" d="M40 35h20v12H40zM60 35h20v12H60zM80 35h20v12H80zM100 35h20v12h-20zM120 35h20v12h-20zM140 35h20v12h-20zM160 35h20v12h-20zM180 35h20v12h-20zM200 35h20v12h-20zM220 35h20v12h-20zM240 35h20v12h-20zM260 35h20v12h-20zM280 35h20v12h-20zM300 35h20v12h-20z"/>
    <path fill="#6293F0" d="M320 35h20v12h-20z"/>
    <path fill="#2C2B2C" d="M340 35h20v12h-20zM0 47h20v12H0zM20 47h20v12H20zM40 47h20v12H40zM60 47h20v12H60zM80 47h20v12H80zM100 47h20v12h-20zM120 47h20v12h-20zM140 47h20v12h-20zM160 47h20v12h-20zM180 47h20v12h-20zM200 47h20v12h-20zM220 47h20v12h-20zM240 47h20v12h-20zM260 47h20v12h-20zM280 47h20v12h-20zM300 47h20v12h-20zM320 47h20v12h-20zM340 47h20v12h-20z"/>
    <path fill="#2C2B2C" d="M0 58h20v12H0z"/>
    <path fill="#FEFCFC" d="M20 58h20v12H20zM40 58h20v12H40zM60 58h20v12H60zM80 58h20v12H80z"/>
    <path fill="#2C2B2C" d="M100 58h20v12h-20zM120 58h20v12h-20zM140 58h20v12h-20z"/>
    <path fill="#FEFCFC" d="M160 58h20v12h-20zM180 58h20v12h-20z"/>
    <path fill="#2C2B2C" d="M200 58h20v12h-20zM220 58h20v12h-20z"/>
    <path fill="#FEFCFC" d="M240 58h20v12h-20z"/>
    <path fill="#2C2B2C" d="M260 58h20v12h-20z"/>
    <path fill="#FEFCFC" d="M280 58h20v12h-20z"/>
    <path fill="#2C2B2C" d="M300 58h20v12h-20z"/>
    <path fill="#FEFCFC" d="M320 58h20v12h-20z"/>
    <path fill="#2C2B2C" d="M340 58h20v12h-20zM0 70h20v12H0z"/>
    <path fill="#FEFCFC" d="M20 70h20v12H20zM40 70h20v12H40z"/>
    <path fill="#2C2B2C" d="M60 70h20v12H60zM80 70h20v12H80z"/>
    <path fill="#FEFCFC" d="M100 70h20v12h-20z"/>
    <path fill="#2C2B2C" d="M120 70h20v12h-20z"/>
    <path fill="#FEFCFC" d="M140 70h20v12h-20zM160 70h20v12h-20z"/>
    <path fill="#2C2B2C" d="M180 70h20v12h-20z"/>
    <path fill="#FEFCFC" d="M200 70h20v12h-20z"/>
    <path fill="#2C2B2C" d="M220 70h20v12h-20z"/>
    <path fill="#FEFCFC" d="M240 70h20v12h-20z"/>
    <path fill="#2C2B2C" d="M260 70h20v12h-20z"/>
    <path fill="#FEFCFC" d="M280 70h20v12h-20z"/>
    <path fill="#2C2B2C" d="M300 70h20v12h-20z"/>
    <path fill="#FEFCFC" d="M320 70h20v12h-20z"/>
    <path fill="#2C2B2C" d="M340 70h20v12h-20zM0 82h20v12H0z"/>
    <path fill="#FEFCFC" d="M20 82h20v12H20zM40 82h20v12H40z"/>
    <path fill="#2C2B2C" d="M60 82h20v12H60zM80 82h20v12H80z"/>
    <path fill="#FEFCFC" d="M100 82h20v12h-20z"/>
    <path fill="#2C2B2C" d="M120 82h20v12h-20z"/>
    <path fill="#FEFCFC" d="M140 82h20v12h-20zM160 82h20v12h-20z"/>
    <path fill="#2C2B2C" d="M180 82h20v12h-20z"/>
    <path fill="#FEFCFC" d="M200 82h20v12h-20z"/>
    <path fill="#2C2B2C" d="M220 82h20v12h-20z"/>
    <path fill="#FEFCFC" d="M240 82h20v12h-20z"/>
    <path fill="#2C2B2C" d="M260 82h20v12h-20z"/>
    <path fill="#FEFCFC" d="M280 82h20v12h-20z"/>
    <path fill="#2C2B2C" d="M300 82h20v12h-20z"/>
    <path fill="#FEFCFC" d="M320 82h20v12h-20z"/>
    <path fill="#2C2B2C" d="M340 82h20v12h-20zM0 94h20v12H0z"/>
    <path fill="#FEFCFC" d="M20 94h20v12H20zM40 94h20v12H40z"/>
    <path fill="#2C2B2C" d="M60 94h20v12H60zM80 94h20v12H80z"/>
    <path fill="#FEFCFC" d="M100 94h20v12h-20z"/>
    <path fill="#2C2B2C" d="M120 94h20v12h-20z"/>
    <path fill="#FEFCFC" d="M140 94h20v12h-20zM160 94h20v12h-20z"/>
    <path fill="#2C2B2C" d="M180 94h20v12h-20z"/>
    <path fill="#FEFCFC" d="M200 94h20v12h-20z"/>
    <path fill="#2C2B2C" d="M220 94h20v12h-20z"/>
    <path fill="#FEFCFC" d="M240 94h20v12h-20z"/>
    <path fill="#2C2B2C" d="M260 94h20v12h-20z"/>
    <path fill="#FEFCFC" d="M280 94h20v12h-20z"/>
    <path fill="#2C2B2C" d="M300 94h20v12h-20z"/>
    <path fill="#FEFCFC" d="M320 94h20v12h-20z"/>
    <path fill="#2C2B2C" d="M340 94h20v12h-20zM0 105h20v12H0z"/>
    <path fill="#FEFCFC" d="M20 105h20v12H20zM40 105h20v12H40z"/>
    <path fill="#2C2B2C" d="M60 105h20v12H60zM80 105h20v12H80z"/>
    <path fill="#FEFCFC" d="M100 105h20v12h-20z"/>
    <path fill="#2C2B2C" d="M120 105h20v12h-20z"/>
    <path fill="#FEFCFC" d="M140 105h20v12h-20zM160 105h20v12h-20z"/>
    <path fill="#2C2B2C" d="M180 105h20v12h-20z"/>
    <path fill="#FEFCFC" d="M200 105h20v12h-20z"/>
    <path fill="#2C2B2C" d="M220 105h20v12h-20z"/>
    <path fill="#FEFCFC" d="M240 105h20v12h-20z"/>
    <path fill="#2C2B2C" d="M260 105h20v12h-20z"/>
    <path fill="#FEFCFC" d="M280 105h20v12h-20z"/>
    <path fill="#2C2B2C" d="M300 105h20v12h-20z"/>
    <path fill="#FEFCFC" d="M320 105h20v12h-20z"/>
    <path fill="#2C2B2C" d="M340 105h20v12h-20zM0 117h20v12H0z"/>
    <path fill="#FEFCFC" d="M20 117h20v12H20zM40 117h20v12H40zM60 117h20v12H60zM80 117h20v12H80z"/>
    <path fill="#2C2B2C" d="M100 117h20v12h-20zM120 117h20v12h-20z"/>
    <path fill="#FEFCFC" d="M140 117h20v12h-20zM160 117h20v12h-20z"/>
    <path fill="#2C2B2C" d="M180 117h20v12h-20z"/>
    <path fill="#FEFCFC" d="M200 117h20v12h-20z"/>
    <path fill="#2C2B2C" d="M220 117h20v12h-20z"/>
    <path fill="#FEFCFC" d="M240 117h20v12h-20z"/>
    <path fill="#2C2B2C" d="M260 117h20v12h-20z"/>
    <path fill="#FEFCFC" d="M280 117h20v12h-20z"/>
    <path fill="#2C2B2C" d="M300 117h20v12h-20z"/>
    <path fill="#FEFCFC" d="M320 117h20v12h-20z"/>
    <path fill="#2C2B2C" d="M340 117h20v12h-20zM0 129h20v12H0z"/>
    <path fill="#FEFCFC" d="M20 129h20v12H20zM40 129h20v12H40z"/>
    <path fill="#2C2B2C" d="M60 129h20v12H60zM80 129h20v12H80zM100 129h20v12h-20zM120 129h20v12h-20z"/>
    <path fill="#FEFCFC" d="M140 129h20v12h-20zM160 129h20v12h-20z"/>
    <path fill="#2C2B2C" d="M180 129h20v12h-20z"/>
    <path fill="#FEFCFC" d="M200 129h20v12h-20z"/>
    <path fill="#2C2B2C" d="M220 129h20v12h-20z"/>
    <path fill="#FEFCFC" d="M240 129h20v12h-20zM260 129h20v12h-20zM280 129h20v12h-20zM300 129h20v12h-20zM320 129h20v12h-20z"/>
    <path fill="#2C2B2C" d="M340 129h20v12h-20zM0 141h20v12H0z"/>
    <path fill="#FEFCFC" d="M20 141h20v12H20zM40 141h20v12H40z"/>
    <path fill="#2C2B2C" d="M60 141h20v12H60zM80 141h20v12H80zM100 141h20v12h-20zM120 141h20v12h-20zM140 141h20v12h-20z"/>
    <path fill="#FEFCFC" d="M160 141h20v12h-20zM180 141h20v12h-20z"/>
    <path fill="#2C2B2C" d="M200 141h20v12h-20zM220 141h20v12h-20z"/>
    <path fill="#FEFCFC" d="M240 141h20v12h-20zM260 141h20v12h-20z"/>
    <path fill="#2C2B2C" d="M280 141h20v12h-20z"/>
    <path fill="#FEFCFC" d="M300 141h20v12h-20zM320 141h20v12h-20z"/>
    <path fill="#2C2B2C" d="M340 141h20v12h-20zM0 152h20v12H0zM20 152h20v12H20zM40 152h20v12H40zM60 152h20v12H60zM80 152h20v12H80zM100 152h20v12h-20zM120 152h20v12h-20zM140 152h20v12h-20zM160 152h20v12h-20zM180 152h20v12h-20zM200 152h20v12h-20zM220 152h20v12h-20zM240 152h20v12h-20zM260 152h20v12h-20zM280 152h20v12h-20zM300 152h20v12h-20zM320 152h20v12h-20z"/>
    <path fill="#2C2B2C" d="M340 152h20v12h-20zM0 164h20v12H0z"/>
    <path fill="#6293F0" d="M20 164h20v12H20z"/>
    <path fill="#315FFF" d="M40 164h20v12H40zM60 164h20v12H60zM80 164h20v12H80zM100 164h20v12h-20zM120 164h20v12h-20zM140 164h20v12h-20zM160 164h20v12h-20zM180 164h20v12h-20zM200 164h20v12h-20zM220 164h20v12h-20zM240 164h20v12h-20zM260 164h20v12h-20zM280 164h20v12h-20zM300 164h20v12h-20z"/>
    <path fill="#6293F0" d="M320 164h20v12h-20z"/>
    <path fill="#2C2B2C" d="M340 164h20v12h-20zM0 176h20v12H0z"/>
    <path fill="#6293F0" d="M20 176h20v12H20z"/>
    <path fill="#315FFF" d="M40 176h20v12H40zM60 176h20v12H60zM80 176h20v12H80zM100 176h20v12h-20zM120 176h20v12h-20zM140 176h20v12h-20zM160 176h20v12h-20zM180 176h20v12h-20zM200 176h20v12h-20zM220 176h20v12h-20zM240 176h20v12h-20zM260 176h20v12h-20zM280 176h20v12h-20zM300 176h20v12h-20z"/>
    <path fill="#6293F0" d="M320 176h20v12h-20z"/>
    <path fill="#2C2B2C" d="M340 176h20v12h-20zM20 187h20v12H20z"/>
    <path fill="#6293F0" d="M40 187h20v12H40zM60 187h20v12H60zM80 187h20v12H80zM100 187h20v12h-20zM120 187h20v12h-20zM140 187h20v12h-20zM160 187h20v12h-20zM180 187h20v12h-20zM200 187h20v12h-20zM220 187h20v12h-20zM240 187h20v12h-20zM260 187h20v12h-20zM280 187h20v12h-20zM300 187h20v12h-20z"/>
    <path fill="#2C2B2C" d="M320 187h20v12h-20zM40 199h20v12H40zM60 199h20v12H60zM80 199h20v12H80zM100 199h20v12h-20zM120 199h20v12h-20zM140 199h20v12h-20zM160 199h20v12h-20zM180 199h20v12h-20zM200 199h20v12h-20zM220 199h20v12h-20zM240 199h20v12h-20zM260 199h20v12h-20zM280 199h20v12h-20zM300 199h20v12h-20z"/>
  </g>
</svg>