<?xml version="1.0" encoding="UTF-8"?>
<svg width="360px" height="211px" viewBox="0 0 360 211" version="1.1" xmlns="http://www.w3.org/2000/svg" xmlns:xlink="http://www.w3.org/1999/xlink">
    <!-- Generator: Sketch 54.1 (76490) - https://sketchapp.com -->
    <title>Group</title>
    <desc>Created with Sketch.</desc>
    <g id="Pow" stroke="none" stroke-width="1" fill="none" fill-rule="evenodd">
        <g id="Group" transform="translate(-0.000000, 0.000000)">
            <rect id="Rectangle" fill="#2C2B2C" x="40" y="0" width="20" height="12"></rect>
            <rect id="Rectangle" fill="#2C2B2C" x="60" y="0" width="20" height="12"></rect>
            <rect id="Rectangle" fill="#2C2B2C" x="80" y="0" width="20" height="12"></rect>
            <rect id="Rectangle" fill="#2C2B2C" x="100" y="0" width="20" height="12"></rect>
            <rect id="Rectangle" fill="#2C2B2C" x="120" y="0" width="20" height="12"></rect>
            <rect id="Rectangle" fill="#2C2B2C" x="140" y="0" width="20" height="12"></rect>
            <rect id="Rectangle" fill="#2C2B2C" x="160" y="0" width="20" height="12"></rect>
            <rect id="Rectangle" fill="#2C2B2C" x="180" y="0" width="20" height="12"></rect>
            <rect id="Rectangle" fill="#2C2B2C" x="200" y="0" width="20" height="12"></rect>
            <rect id="Rectangle" fill="#2C2B2C" x="220" y="0" width="20" height="12"></rect>
            <rect id="Rectangle" fill="#2C2B2C" x="240" y="0" width="20" height="12"></rect>
            <rect id="Rectangle" fill="#2C2B2C" x="260" y="0" width="20" height="12"></rect>
            <rect id="Rectangle" fill="#2C2B2C" x="280" y="0" width="20" height="12"></rect>
            <rect id="Rectangle" fill="#2C2B2C" x="300" y="0" width="20" height="12"></rect>
            <rect id="Rectangle" fill="#2C2B2C" x="20" y="12" width="20" height="12"></rect>
            <rect id="Rectangle" fill="#6293F0" x="40" y="12" width="20" height="12"></rect>
            <rect id="Rectangle" fill="#6293F0" x="60" y="12" width="20" height="12"></rect>
            <rect id="Rectangle" fill="#6293F0" x="80" y="12" width="20" height="12"></rect>
            <rect id="Rectangle" fill="#6293F0" x="100" y="12" width="20" height="12"></rect>
            <rect id="Rectangle" fill="#6293F0" x="120" y="12" width="20" height="12"></rect>
            <rect id="Rectangle" fill="#6293F0" x="140" y="12" width="20" height="12"></rect>
            <rect id="Rectangle" fill="#6293F0" x="160" y="12" width="20" height="12"></rect>
            <rect id="Rectangle" fill="#6293F0" x="180" y="12" width="20" height="12"></rect>
            <rect id="Rectangle" fill="#6293F0" x="200" y="12" width="20" height="12"></rect>
            <rect id="Rectangle" fill="#6293F0" x="220" y="12" width="20" height="12"></rect>
            <rect id="Rectangle" fill="#6293F0" x="240" y="12" width="20" height="12"></rect>
            <rect id="Rectangle" fill="#6293F0" x="260" y="12" width="20" height="12"></rect>
            <rect id="Rectangle" fill="#6293F0" x="280" y="12" width="20" height="12"></rect>
            <rect id="Rectangle" fill="#6293F0" x="300" y="12" width="20" height="12"></rect>
            <rect id="Rectangle" fill="#2C2B2C" x="320" y="12" width="20" height="12"></rect>
            <rect id="Rectangle" fill="#2C2B2C" x="1.42108547e-14" y="23" width="20" height="12"></rect>
            <rect id="Rectangle" fill="#6293F0" x="20" y="23" width="20" height="12"></rect>
            <rect id="Rectangle" fill="#315FFF" x="40" y="23" width="20" height="12"></rect>
            <rect id="Rectangle" fill="#315FFF" x="60" y="23" width="20" height="12"></rect>
            <rect id="Rectangle" fill="#315FFF" x="80" y="23" width="20" height="12"></rect>
            <rect id="Rectangle" fill="#315FFF" x="100" y="23" width="20" height="12"></rect>
            <rect id="Rectangle" fill="#315FFF" x="120" y="23" width="20" height="12"></rect>
            <rect id="Rectangle" fill="#315FFF" x="140" y="23" width="20" height="12"></rect>
            <rect id="Rectangle" fill="#315FFF" x="160" y="23" width="20" height="12"></rect>
            <rect id="Rectangle" fill="#315FFF" x="180" y="23" width="20" height="12"></rect>
            <rect id="Rectangle" fill="#315FFF" x="200" y="23" width="20" height="12"></rect>
            <rect id="Rectangle" fill="#315FFF" x="220" y="23" width="20" height="12"></rect>
            <rect id="Rectangle" fill="#315FFF" x="240" y="23" width="20" height="12"></rect>
            <rect id="Rectangle" fill="#315FFF" x="260" y="23" width="20" height="12"></rect>
            <rect id="Rectangle" fill="#315FFF" x="280" y="23" width="20" height="12"></rect>
            <rect id="Rectangle" fill="#315FFF" x="300" y="23" width="20" height="12"></rect>
            <rect id="Rectangle" fill="#6293F0" x="320" y="23" width="20" height="12"></rect>
            <rect id="Rectangle" fill="#2C2B2C" x="340" y="23" width="20" height="12"></rect>
            <rect id="Rectangle" fill="#2C2B2C" x="1.42108547e-14" y="35" width="20" height="12"></rect>
            <rect id="Rectangle" fill="#6293F0" x="20" y="35" width="20" height="12"></rect>
            <rect id="Rectangle" fill="#315FFF" x="40" y="35" width="20" height="12"></rect>
            <rect id="Rectangle" fill="#315FFF" x="60" y="35" width="20" height="12"></rect>
            <rect id="Rectangle" fill="#315FFF" x="80" y="35" width="20" height="12"></rect>
            <rect id="Rectangle" fill="#315FFF" x="100" y="35" width="20" height="12"></rect>
            <rect id="Rectangle" fill="#315FFF" x="120" y="35" width="20" height="12"></rect>
            <rect id="Rectangle" fill="#315FFF" x="140" y="35" width="20" height="12"></rect>
            <rect id="Rectangle" fill="#315FFF" x="160" y="35" width="20" height="12"></rect>
            <rect id="Rectangle" fill="#315FFF" x="180" y="35" width="20" height="12"></rect>
            <rect id="Rectangle" fill="#315FFF" x="200" y="35" width="20" height="12"></rect>
            <rect id="Rectangle" fill="#315FFF" x="220" y="35" width="20" height="12"></rect>
            <rect id="Rectangle" fill="#315FFF" x="240" y="35" width="20" height="12"></rect>
            <rect id="Rectangle" fill="#315FFF" x="260" y="35" width="20" height="12"></rect>
            <rect id="Rectangle" fill="#315FFF" x="280" y="35" width="20" height="12"></rect>
            <rect id="Rectangle" fill="#315FFF" x="300" y="35" width="20" height="12"></rect>
            <rect id="Rectangle" fill="#6293F0" x="320" y="35" width="20" height="12"></rect>
            <rect id="Rectangle" fill="#2C2B2C" x="340" y="35" width="20" height="12"></rect>
            <rect id="Rectangle" fill="#2C2B2C" x="1.42108547e-14" y="47" width="20" height="12"></rect>
            <rect id="Rectangle" fill="#2C2B2C" x="20" y="47" width="20" height="12"></rect>
            <rect id="Rectangle" fill="#2C2B2C" x="40" y="47" width="20" height="12"></rect>
            <rect id="Rectangle" fill="#2C2B2C" x="60" y="47" width="20" height="12"></rect>
            <rect id="Rectangle" fill="#2C2B2C" x="80" y="47" width="20" height="12"></rect>
            <rect id="Rectangle" fill="#2C2B2C" x="100" y="47" width="20" height="12"></rect>
            <rect id="Rectangle" fill="#2C2B2C" x="120" y="47" width="20" height="12"></rect>
            <rect id="Rectangle" fill="#2C2B2C" x="140" y="47" width="20" height="12"></rect>
            <rect id="Rectangle" fill="#2C2B2C" x="160" y="47" width="20" height="12"></rect>
            <rect id="Rectangle" fill="#2C2B2C" x="180" y="47" width="20" height="12"></rect>
            <rect id="Rectangle" fill="#2C2B2C" x="200" y="47" width="20" height="12"></rect>
            <rect id="Rectangle" fill="#2C2B2C" x="220" y="47" width="20" height="12"></rect>
            <rect id="Rectangle" fill="#2C2B2C" x="240" y="47" width="20" height="12"></rect>
            <rect id="Rectangle" fill="#2C2B2C" x="260" y="47" width="20" height="12"></rect>
            <rect id="Rectangle" fill="#2C2B2C" x="280" y="47" width="20" height="12"></rect>
            <rect id="Rectangle" fill="#2C2B2C" x="300" y="47" width="20" height="12"></rect>
            <rect id="Rectangle" fill="#2C2B2C" x="320" y="47" width="20" height="12"></rect>
            <rect id="Rectangle" fill="#2C2B2C" x="340" y="47" width="20" height="12"></rect>
            <rect id="Rectangle" fill="#2C2B2C" x="1.42108547e-14" y="58" width="20" height="12"></rect>
            <rect id="Rectangle" fill="#FEFCFC" x="20" y="58" width="20" height="12"></rect>
            <rect id="Rectangle" fill="#FEFCFC" x="40" y="58" width="20" height="12"></rect>
            <rect id="Rectangle" fill="#FEFCFC" x="60" y="58" width="20" height="12"></rect>
            <rect id="Rectangle" fill="#FEFCFC" x="80" y="58" width="20" height="12"></rect>
            <rect id="Rectangle" fill="#2C2B2C" x="100" y="58" width="20" height="12"></rect>
            <rect id="Rectangle" fill="#2C2B2C" x="120" y="58" width="20" height="12"></rect>
            <rect id="Rectangle" fill="#2C2B2C" x="140" y="58" width="20" height="12"></rect>
            <rect id="Rectangle" fill="#FEFCFC" x="160" y="58" width="20" height="12"></rect>
            <rect id="Rectangle" fill="#FEFCFC" x="180" y="58" width="20" height="12"></rect>
            <rect id="Rectangle" fill="#2C2B2C" x="200" y="58" width="20" height="12"></rect>
            <rect id="Rectangle" fill="#2C2B2C" x="220" y="58" width="20" height="12"></rect>
            <rect id="Rectangle" fill="#FEFCFC" x="240" y="58" width="20" height="12"></rect>
            <rect id="Rectangle" fill="#2C2B2C" x="260" y="58" width="20" height="12"></rect>
            <rect id="Rectangle" fill="#FEFCFC" x="280" y="58" width="20" height="12"></rect>
            <rect id="Rectangle" fill="#2C2B2C" x="300" y="58" width="20" height="12"></rect>
            <rect id="Rectangle" fill="#FEFCFC" x="320" y="58" width="20" height="12"></rect>
            <rect id="Rectangle" fill="#2C2B2C" x="340" y="58" width="20" height="12"></rect>
            <rect id="Rectangle" fill="#2C2B2C" x="1.42108547e-14" y="70" width="20" height="12"></rect>
            <rect id="Rectangle" fill="#FEFCFC" x="20" y="70" width="20" height="12"></rect>
            <rect id="Rectangle" fill="#FEFCFC" x="40" y="70" width="20" height="12"></rect>
            <rect id="Rectangle" fill="#2C2B2C" x="60" y="70" width="20" height="12"></rect>
            <rect id="Rectangle" fill="#2C2B2C" x="80" y="70" width="20" height="12"></rect>
            <rect id="Rectangle" fill="#FEFCFC" x="100" y="70" width="20" height="12"></rect>
            <rect id="Rectangle" fill="#2C2B2C" x="120" y="70" width="20" height="12"></rect>
            <rect id="Rectangle" fill="#FEFCFC" x="140" y="70" width="20" height="12"></rect>
            <rect id="Rectangle" fill="#FEFCFC" x="160" y="70" width="20" height="12"></rect>
            <rect id="Rectangle" fill="#2C2B2C" x="180" y="70" width="20" height="12"></rect>
            <rect id="Rectangle" fill="#FEFCFC" x="200" y="70" width="20" height="12"></rect>
            <rect id="Rectangle" fill="#2C2B2C" x="220" y="70" width="20" height="12"></rect>
            <rect id="Rectangle" fill="#FEFCFC" x="240" y="70" width="20" height="12"></rect>
            <rect id="Rectangle" fill="#2C2B2C" x="260" y="70" width="20" height="12"></rect>
            <rect id="Rectangle" fill="#FEFCFC" x="280" y="70" width="20" height="12"></rect>
            <rect id="Rectangle" fill="#2C2B2C" x="300" y="70" width="20" height="12"></rect>
            <rect id="Rectangle" fill="#FEFCFC" x="320" y="70" width="20" height="12"></rect>
            <rect id="Rectangle" fill="#2C2B2C" x="340" y="70" width="20" height="12"></rect>
            <rect id="Rectangle" fill="#2C2B2C" x="1.42108547e-14" y="82" width="20" height="12"></rect>
            <rect id="Rectangle" fill="#FEFCFC" x="20" y="82" width="20" height="12"></rect>
            <rect id="Rectangle" fill="#FEFCFC" x="40" y="82" width="20" height="12"></rect>
            <rect id="Rectangle" fill="#2C2B2C" x="60" y="82" width="20" height="12"></rect>
            <rect id="Rectangle" fill="#2C2B2C" x="80" y="82" width="20" height="12"></rect>
            <rect id="Rectangle" fill="#FEFCFC" x="100" y="82" width="20" height="12"></rect>
            <rect id="Rectangle" fill="#2C2B2C" x="120" y="82" width="20" height="12"></rect>
            <rect id="Rectangle" fill="#FEFCFC" x="140" y="82" width="20" height="12"></rect>
            <rect id="Rectangle" fill="#FEFCFC" x="160" y="82" width="20" height="12"></rect>
            <rect id="Rectangle" fill="#2C2B2C" x="180" y="82" width="20" height="12"></rect>
            <rect id="Rectangle" fill="#FEFCFC" x="200" y="82" width="20" height="12"></rect>
            <rect id="Rectangle" fill="#2C2B2C" x="220" y="82" width="20" height="12"></rect>
            <rect id="Rectangle" fill="#FEFCFC" x="240" y="82" width="20" height="12"></rect>
            <rect id="Rectangle" fill="#2C2B2C" x="260" y="82" width="20" height="12"></rect>
            <rect id="Rectangle" fill="#FEFCFC" x="280" y="82" width="20" height="12"></rect>
            <rect id="Rectangle" fill="#2C2B2C" x="300" y="82" width="20" height="12"></rect>
            <rect id="Rectangle" fill="#FEFCFC" x="320" y="82" width="20" height="12"></rect>
            <rect id="Rectangle" fill="#2C2B2C" x="340" y="82" width="20" height="12"></rect>
            <rect id="Rectangle" fill="#2C2B2C" x="1.42108547e-14" y="94" width="20" height="12"></rect>
            <rect id="Rectangle" fill="#FEFCFC" x="20" y="94" width="20" height="12"></rect>
            <rect id="Rectangle" fill="#FEFCFC" x="40" y="94" width="20" height="12"></rect>
            <rect id="Rectangle" fill="#2C2B2C" x="60" y="94" width="20" height="12"></rect>
            <rect id="Rectangle" fill="#2C2B2C" x="80" y="94" width="20" height="12"></rect>
            <rect id="Rectangle" fill="#FEFCFC" x="100" y="94" width="20" height="12"></rect>
            <rect id="Rectangle" fill="#2C2B2C" x="120" y="94" width="20" height="12"></rect>
            <rect id="Rectangle" fill="#FEFCFC" x="140" y="94" width="20" height="12"></rect>
            <rect id="Rectangle" fill="#FEFCFC" x="160" y="94" width="20" height="12"></rect>
            <rect id="Rectangle" fill="#2C2B2C" x="180" y="94" width="20" height="12"></rect>
            <rect id="Rectangle" fill="#FEFCFC" x="200" y="94" width="20" height="12"></rect>
            <rect id="Rectangle" fill="#2C2B2C" x="220" y="94" width="20" height="12"></rect>
            <rect id="Rectangle" fill="#FEFCFC" x="240" y="94" width="20" height="12"></rect>
            <rect id="Rectangle" fill="#2C2B2C" x="260" y="94" width="20" height="12"></rect>
            <rect id="Rectangle" fill="#FEFCFC" x="280" y="94" width="20" height="12"></rect>
            <rect id="Rectangle" fill="#2C2B2C" x="300" y="94" width="20" height="12"></rect>
            <rect id="Rectangle" fill="#FEFCFC" x="320" y="94" width="20" height="12"></rect>
            <rect id="Rectangle" fill="#2C2B2C" x="340" y="94" width="20" height="12"></rect>
            <rect id="Rectangle" fill="#2C2B2C" x="1.42108547e-14" y="105" width="20" height="12"></rect>
            <rect id="Rectangle" fill="#FEFCFC" x="20" y="105" width="20" height="12"></rect>
            <rect id="Rectangle" fill="#FEFCFC" x="40" y="105" width="20" height="12"></rect>
            <rect id="Rectangle" fill="#2C2B2C" x="60" y="105" width="20" height="12"></rect>
            <rect id="Rectangle" fill="#2C2B2C" x="80" y="105" width="20" height="12"></rect>
            <rect id="Rectangle" fill="#FEFCFC" x="100" y="105" width="20" height="12"></rect>
            <rect id="Rectangle" fill="#2C2B2C" x="120" y="105" width="20" height="12"></rect>
            <rect id="Rectangle" fill="#FEFCFC" x="140" y="105" width="20" height="12"></rect>
            <rect id="Rectangle" fill="#FEFCFC" x="160" y="105" width="20" height="12"></rect>
            <rect id="Rectangle" fill="#2C2B2C" x="180" y="105" width="20" height="12"></rect>
            <rect id="Rectangle" fill="#FEFCFC" x="200" y="105" width="20" height="12"></rect>
            <rect id="Rectangle" fill="#2C2B2C" x="220" y="105" width="20" height="12"></rect>
            <rect id="Rectangle" fill="#FEFCFC" x="240" y="105" width="20" height="12"></rect>
            <rect id="Rectangle" fill="#2C2B2C" x="260" y="105" width="20" height="12"></rect>
            <rect id="Rectangle" fill="#FEFCFC" x="280" y="105" width="20" height="12"></rect>
            <rect id="Rectangle" fill="#2C2B2C" x="300" y="105" width="20" height="12"></rect>
            <rect id="Rectangle" fill="#FEFCFC" x="320" y="105" width="20" height="12"></rect>
            <rect id="Rectangle" fill="#2C2B2C" x="340" y="105" width="20" height="12"></rect>
            <rect id="Rectangle" fill="#2C2B2C" x="1.42108547e-14" y="117" width="20" height="12"></rect>
            <rect id="Rectangle" fill="#FEFCFC" x="20" y="117" width="20" height="12"></rect>
            <rect id="Rectangle" fill="#FEFCFC" x="40" y="117" width="20" height="12"></rect>
            <rect id="Rectangle" fill="#FEFCFC" x="60" y="117" width="20" height="12"></rect>
            <rect id="Rectangle" fill="#FEFCFC" x="80" y="117" width="20" height="12"></rect>
            <rect id="Rectangle" fill="#2C2B2C" x="100" y="117" width="20" height="12"></rect>
            <rect id="Rectangle" fill="#2C2B2C" x="120" y="117" width="20" height="12"></rect>
            <rect id="Rectangle" fill="#FEFCFC" x="140" y="117" width="20" height="12"></rect>
            <rect id="Rectangle" fill="#FEFCFC" x="160" y="117" width="20" height="12"></rect>
            <rect id="Rectangle" fill="#2C2B2C" x="180" y="117" width="20" height="12"></rect>
            <rect id="Rectangle" fill="#FEFCFC" x="200" y="117" width="20" height="12"></rect>
            <rect id="Rectangle" fill="#2C2B2C" x="220" y="117" width="20" height="12"></rect>
            <rect id="Rectangle" fill="#FEFCFC" x="240" y="117" width="20" height="12"></rect>
            <rect id="Rectangle" fill="#2C2B2C" x="260" y="117" width="20" height="12"></rect>
            <rect id="Rectangle" fill="#FEFCFC" x="280" y="117" width="20" height="12"></rect>
            <rect id="Rectangle" fill="#2C2B2C" x="300" y="117" width="20" height="12"></rect>
            <rect id="Rectangle" fill="#FEFCFC" x="320" y="117" width="20" height="12"></rect>
            <rect id="Rectangle" fill="#2C2B2C" x="340" y="117" width="20" height="12"></rect>
            <rect id="Rectangle" fill="#2C2B2C" x="1.42108547e-14" y="129" width="20" height="12"></rect>
            <rect id="Rectangle" fill="#FEFCFC" x="20" y="129" width="20" height="12"></rect>
            <rect id="Rectangle" fill="#FEFCFC" x="40" y="129" width="20" height="12"></rect>
            <rect id="Rectangle" fill="#2C2B2C" x="60" y="129" width="20" height="12"></rect>
            <rect id="Rectangle" fill="#2C2B2C" x="80" y="129" width="20" height="12"></rect>
            <rect id="Rectangle" fill="#2C2B2C" x="100" y="129" width="20" height="12"></rect>
            <rect id="Rectangle" fill="#2C2B2C" x="120" y="129" width="20" height="12"></rect>
            <rect id="Rectangle" fill="#FEFCFC" x="140" y="129" width="20" height="12"></rect>
            <rect id="Rectangle" fill="#FEFCFC" x="160" y="129" width="20" height="12"></rect>
            <rect id="Rectangle" fill="#2C2B2C" x="180" y="129" width="20" height="12"></rect>
            <rect id="Rectangle" fill="#FEFCFC" x="200" y="129" width="20" height="12"></rect>
            <rect id="Rectangle" fill="#2C2B2C" x="220" y="129" width="20" height="12"></rect>
            <rect id="Rectangle" fill="#FEFCFC" x="240" y="129" width="20" height="12"></rect>
            <rect id="Rectangle" fill="#FEFCFC" x="260" y="129" width="20" height="12"></rect>
            <rect id="Rectangle" fill="#FEFCFC" x="280" y="129" width="20" height="12"></rect>
            <rect id="Rectangle" fill="#FEFCFC" x="300" y="129" width="20" height="12"></rect>
            <rect id="Rectangle" fill="#FEFCFC" x="320" y="129" width="20" height="12"></rect>
            <rect id="Rectangle" fill="#2C2B2C" x="340" y="129" width="20" height="12"></rect>
            <rect id="Rectangle" fill="#2C2B2C" x="1.42108547e-14" y="141" width="20" height="12"></rect>
            <rect id="Rectangle" fill="#FEFCFC" x="20" y="141" width="20" height="12"></rect>
            <rect id="Rectangle" fill="#FEFCFC" x="40" y="141" width="20" height="12"></rect>
            <rect id="Rectangle" fill="#2C2B2C" x="60" y="141" width="20" height="12"></rect>
            <rect id="Rectangle" fill="#2C2B2C" x="80" y="141" width="20" height="12"></rect>
            <rect id="Rectangle" fill="#2C2B2C" x="100" y="141" width="20" height="12"></rect>
            <rect id="Rectangle" fill="#2C2B2C" x="120" y="141" width="20" height="12"></rect>
            <rect id="Rectangle" fill="#2C2B2C" x="140" y="141" width="20" height="12"></rect>
            <rect id="Rectangle" fill="#FEFCFC" x="160" y="141" width="20" height="12"></rect>
            <rect id="Rectangle" fill="#FEFCFC" x="180" y="141" width="20" height="12"></rect>
            <rect id="Rectangle" fill="#2C2B2C" x="200" y="141" width="20" height="12"></rect>
            <rect id="Rectangle" fill="#2C2B2C" x="220" y="141" width="20" height="12"></rect>
            <rect id="Rectangle" fill="#FEFCFC" x="240" y="141" width="20" height="12"></rect>
            <rect id="Rectangle" fill="#FEFCFC" x="260" y="141" width="20" height="12"></rect>
            <rect id="Rectangle" fill="#2C2B2C" x="280" y="141" width="20" height="12"></rect>
            <rect id="Rectangle" fill="#FEFCFC" x="300" y="141" width="20" height="12"></rect>
            <rect id="Rectangle" fill="#FEFCFC" x="320" y="141" width="20" height="12"></rect>
            <rect id="Rectangle" fill="#2C2B2C" x="340" y="141" width="20" height="12"></rect>
            <rect id="Rectangle" fill="#2C2B2C" x="1.42108547e-14" y="152" width="20" height="12"></rect>
            <rect id="Rectangle" fill="#2C2B2C" x="20" y="152" width="20" height="12"></rect>
            <rect id="Rectangle" fill="#2C2B2C" x="40" y="152" width="20" height="12"></rect>
            <rect id="Rectangle" fill="#2C2B2C" x="60" y="152" width="20" height="12"></rect>
            <rect id="Rectangle" fill="#2C2B2C" x="80" y="152" width="20" height="12"></rect>
            <rect id="Rectangle" fill="#2C2B2C" x="100" y="152" width="20" height="12"></rect>
            <rect id="Rectangle" fill="#2C2B2C" x="120" y="152" width="20" height="12"></rect>
            <rect id="Rectangle" fill="#2C2B2C" x="140" y="152" width="20" height="12"></rect>
            <rect id="Rectangle" fill="#2C2B2C" x="160" y="152" width="20" height="12"></rect>
            <rect id="Rectangle" fill="#2C2B2C" x="180" y="152" width="20" height="12"></rect>
            <rect id="Rectangle" fill="#2C2B2C" x="200" y="152" width="20" height="12"></rect>
            <rect id="Rectangle" fill="#2C2B2C" x="220" y="152" width="20" height="12"></rect>
            <rect id="Rectangle" fill="#2C2B2C" x="240" y="152" width="20" height="12"></rect>
            <rect id="Rectangle" fill="#2C2B2C" x="260" y="152" width="20" height="12"></rect>
            <rect id="Rectangle" fill="#2C2B2C" x="280" y="152" width="20" height="12"></rect>
            <rect id="Rectangle" fill="#2C2B2C" x="300" y="152" width="20" height="12"></rect>
            <rect id="Rectangle" fill="#2C2B2C" x="320" y="152" width="20" height="12"></rect>
            <rect id="Rectangle" fill="#2C2B2C" x="340" y="152" width="20" height="12"></rect>
            <rect id="Rectangle" fill="#2C2B2C" x="1.42108547e-14" y="164" width="20" height="12"></rect>
            <rect id="Rectangle" fill="#6293F0" x="20" y="164" width="20" height="12"></rect>
            <rect id="Rectangle" fill="#315FFF" x="40" y="164" width="20" height="12"></rect>
            <rect id="Rectangle" fill="#315FFF" x="60" y="164" width="20" height="12"></rect>
            <rect id="Rectangle" fill="#315FFF" x="80" y="164" width="20" height="12"></rect>
            <rect id="Rectangle" fill="#315FFF" x="100" y="164" width="20" height="12"></rect>
            <rect id="Rectangle" fill="#315FFF" x="120" y="164" width="20" height="12"></rect>
            <rect id="Rectangle" fill="#315FFF" x="140" y="164" width="20" height="12"></rect>
            <rect id="Rectangle" fill="#315FFF" x="160" y="164" width="20" height="12"></rect>
            <rect id="Rectangle" fill="#315FFF" x="180" y="164" width="20" height="12"></rect>
            <rect id="Rectangle" fill="#315FFF" x="200" y="164" width="20" height="12"></rect>
            <rect id="Rectangle" fill="#315FFF" x="220" y="164" width="20" height="12"></rect>
            <rect id="Rectangle" fill="#315FFF" x="240" y="164" width="20" height="12"></rect>
            <rect id="Rectangle" fill="#315FFF" x="260" y="164" width="20" height="12"></rect>
            <rect id="Rectangle" fill="#315FFF" x="280" y="164" width="20" height="12"></rect>
            <rect id="Rectangle" fill="#315FFF" x="300" y="164" width="20" height="12"></rect>
            <rect id="Rectangle" fill="#6293F0" x="320" y="164" width="20" height="12"></rect>
            <rect id="Rectangle" fill="#2C2B2C" x="340" y="164" width="20" height="12"></rect>
            <rect id="Rectangle" fill="#2C2B2C" x="1.42108547e-14" y="176" width="20" height="12"></rect>
            <rect id="Rectangle" fill="#6293F0" x="20" y="176" width="20" height="12"></rect>
            <rect id="Rectangle" fill="#315FFF" x="40" y="176" width="20" height="12"></rect>
            <rect id="Rectangle" fill="#315FFF" x="60" y="176" width="20" height="12"></rect>
            <rect id="Rectangle" fill="#315FFF" x="80" y="176" width="20" height="12"></rect>
            <rect id="Rectangle" fill="#315FFF" x="100" y="176" width="20" height="12"></rect>
            <rect id="Rectangle" fill="#315FFF" x="120" y="176" width="20" height="12"></rect>
            <rect id="Rectangle" fill="#315FFF" x="140" y="176" width="20" height="12"></rect>
            <rect id="Rectangle" fill="#315FFF" x="160" y="176" width="20" height="12"></rect>
            <rect id="Rectangle" fill="#315FFF" x="180" y="176" width="20" height="12"></rect>
            <rect id="Rectangle" fill="#315FFF" x="200" y="176" width="20" height="12"></rect>
            <rect id="Rectangle" fill="#315FFF" x="220" y="176" width="20" height="12"></rect>
            <rect id="Rectangle" fill="#315FFF" x="240" y="176" width="20" height="12"></rect>
            <rect id="Rectangle" fill="#315FFF" x="260" y="176" width="20" height="12"></rect>
            <rect id="Rectangle" fill="#315FFF" x="280" y="176" width="20" height="12"></rect>
            <rect id="Rectangle" fill="#315FFF" x="300" y="176" width="20" height="12"></rect>
            <rect id="Rectangle" fill="#6293F0" x="320" y="176" width="20" height="12"></rect>
            <rect id="Rectangle" fill="#2C2B2C" x="340" y="176" width="20" height="12"></rect>
            <rect id="Rectangle" fill="#2C2B2C" x="20" y="187" width="20" height="12"></rect>
            <rect id="Rectangle" fill="#6293F0" x="40" y="187" width="20" height="12"></rect>
            <rect id="Rectangle" fill="#6293F0" x="60" y="187" width="20" height="12"></rect>
            <rect id="Rectangle" fill="#6293F0" x="80" y="187" width="20" height="12"></rect>
            <rect id="Rectangle" fill="#6293F0" x="100" y="187" width="20" height="12"></rect>
            <rect id="Rectangle" fill="#6293F0" x="120" y="187" width="20" height="12"></rect>
            <rect id="Rectangle" fill="#6293F0" x="140" y="187" width="20" height="12"></rect>
            <rect id="Rectangle" fill="#6293F0" x="160" y="187" width="20" height="12"></rect>
            <rect id="Rectangle" fill="#6293F0" x="180" y="187" width="20" height="12"></rect>
            <rect id="Rectangle" fill="#6293F0" x="200" y="187" width="20" height="12"></rect>
            <rect id="Rectangle" fill="#6293F0" x="220" y="187" width="20" height="12"></rect>
            <rect id="Rectangle" fill="#6293F0" x="240" y="187" width="20" height="12"></rect>
            <rect id="Rectangle" fill="#6293F0" x="260" y="187" width="20" height="12"></rect>
            <rect id="Rectangle" fill="#6293F0" x="280" y="187" width="20" height="12"></rect>
            <rect id="Rectangle" fill="#6293F0" x="300" y="187" width="20" height="12"></rect>
            <rect id="Rectangle" fill="#2C2B2C" x="320" y="187" width="20" height="12"></rect>
            <rect id="Rectangle" fill="#2C2B2C" x="40" y="199" width="20" height="12"></rect>
            <rect id="Rectangle" fill="#2C2B2C" x="60" y="199" width="20" height="12"></rect>
            <rect id="Rectangle" fill="#2C2B2C" x="80" y="199" width="20" height="12"></rect>
            <rect id="Rectangle" fill="#2C2B2C" x="100" y="199" width="20" height="12"></rect>
            <rect id="Rectangle" fill="#2C2B2C" x="120" y="199" width="20" height="12"></rect>
            <rect id="Rectangle" fill="#2C2B2C" x="140" y="199" width="20" height="12"></rect>
            <rect id="Rectangle" fill="#2C2B2C" x="160" y="199" width="20" height="12"></rect>
            <rect id="Rectangle" fill="#2C2B2C" x="180" y="199" width="20" height="12"></rect>
            <rect id="Rectangle" fill="#2C2B2C" x="200" y="199" width="20" height="12"></rect>
            <rect id="Rectangle" fill="#2C2B2C" x="220" y="199" width="20" height="12"></rect>
            <rect id="Rectangle" fill="#2C2B2C" x="240" y="199" width="20" height="12"></rect>
            <rect id="Rectangle" fill="#2C2B2C" x="260" y="199" width="20" height="12"></rect>
            <rect id="Rectangle" fill="#2C2B2C" x="280" y="199" width="20" height="12"></rect>
            <rect id="Rectangle" fill="#2C2B2C" x="300" y="199" width="20" height="12"></rect>
        </g>
    </g>
</svg>