<svg width="443" height="437" viewBox="0 0 443 437" fill="none" xmlns="http://www.w3.org/2000/svg">
<g filter="url(#filter0_d)">
<g clip-path="url(#clip0)">
<path d="M205.525 13.0669L167.178 21.0562L129.626 37.0296L90.8794 63.3976L64.9168 88.5602L44.1381 119.723L29.7594 154.07L19.3754 188.032L20.5701 229.974L22.1701 261.131L37.3541 297.478L63.7168 325.44L92.0794 341.419L223.498 345.414L346.133 340.624L392.474 313.856L418.437 267.126L424.826 208.8L406.453 137.696L376.09 88.5602L340.138 53.4082L280.623 21.8509L238.677 11.8669L205.525 13.0669Z" fill="currentColor"/>
<path d="M201.53 271.114H233.482L282.618 281.898L323.765 297.882L340.538 313.455L345.333 330.634L341.338 356.596L329.36 388.154L300.591 407.332L252.261 418.516L199.93 416.116L149.2 408.127L113.248 386.959L98.8688 352.607L94.4742 324.644L101.664 309.066L141.61 285.098L173.168 275.908L201.53 271.114Z" fill="#FCD7A8"/>
<path d="M173.566 302.671L169.972 311.06L169.769 319.45L171.966 327.444L176.964 331.636L182.756 329.034L186.345 323.647L185.95 311.86L184.35 304.074L181.358 299.882L175.561 301.076L173.566 302.671Z" fill="white"/>
<path d="M260.847 302.874L258.453 308.864L258.255 315.653L259.05 322.448L262.047 328.64L270.037 328.837L275.226 323.045L274.031 312.858L272.431 304.272L268.639 301.077L263.845 299.877L260.847 302.874Z" fill="white"/>
<path d="M222.655 33.5879C166.612 33.5879 121.183 77.8439 121.183 132.452C121.183 187.097 166.612 231.343 222.655 231.343C278.714 231.343 324.154 187.097 324.154 132.452C324.154 77.8439 278.714 33.5879 222.655 33.5879Z" fill="white"/>
<path d="M26.2123 261.848C25.6683 259.07 25.2203 256.552 24.8416 254.211C24.8416 254.216 24.8363 254.216 24.8363 254.222C24.7989 253.992 24.7723 253.8 24.7403 253.576C24.5429 252.339 24.3616 251.134 24.2069 249.998C24.1536 249.667 24.1163 249.347 24.0789 249.016C23.9509 248.072 23.8389 247.155 23.7376 246.28C23.7003 245.992 23.6683 245.694 23.6416 245.416C23.5296 244.408 23.4389 243.464 23.3643 242.536C23.3376 242.222 23.3109 241.918 23.2896 241.608C23.2149 240.718 23.1616 239.854 23.1136 239.032C23.1029 238.782 23.0869 238.536 23.0763 238.291C23.0389 237.534 23.0069 236.814 22.9909 236.104C22.9856 235.96 22.9803 235.816 22.9749 235.683C22.9536 234.878 22.9376 234.104 22.9323 233.336C22.9269 233.123 22.9216 232.904 22.9216 232.686C22.9163 231.96 22.9109 231.24 22.9109 230.531C22.9109 229.619 22.9163 228.712 22.9163 227.811C22.9163 193.128 33.647 156.11 52.6603 123.182C52.671 123.16 52.7349 123.048 52.8149 122.888C52.9803 122.595 53.2416 122.099 53.5883 121.454C55.0443 118.702 57.775 113.528 58.3136 112.323C58.4363 112.04 58.5483 111.795 58.655 111.566C63.647 126.622 66.495 143.048 66.495 160.371C66.495 201.832 50.6656 238.579 26.2123 261.848Z" fill="white"/>
<path d="M420.384 232.78C420.384 232.887 420.379 232.988 420.379 233.1C420.363 234.78 420.315 236.546 420.224 238.466C420.219 238.546 420.219 238.615 420.213 238.69C420.16 239.639 420.096 240.631 420.021 241.66C420.005 241.778 420 241.89 419.989 242.002C419.904 243.074 419.808 244.178 419.68 245.346C419.675 245.356 419.675 245.372 419.669 245.383C419.547 246.53 419.397 247.751 419.232 249.026C419.211 249.159 419.195 249.292 419.173 249.442C419.008 250.668 418.821 251.975 418.608 253.335C418.587 253.463 418.571 253.57 418.549 253.703V253.692C418.171 256.05 417.728 258.588 417.184 261.388C393.019 238.092 377.355 201.58 377.355 160.37C377.355 143.319 380.123 127.106 384.949 112.231C384.965 112.268 384.981 112.29 384.997 112.322C385.579 113.623 388.715 119.559 390.048 122.06C390.395 122.706 390.624 123.138 390.645 123.18C409.664 156.108 420.395 193.127 420.395 227.81V229.516V230.423C420.395 231.191 420.395 231.98 420.384 232.78Z" fill="white"/>
<path d="M413.749 257.682C413.674 257.98 413.077 260.46 413.034 260.626C412.997 260.748 412.959 260.908 412.959 260.908C411.242 267.004 408.725 273.351 405.466 279.676V279.671C394.602 300.743 375.445 321.431 349.989 330.748C349.983 330.754 349.978 330.754 349.973 330.759C350.01 322.572 349.375 317.186 349.359 317.004L349.21 315.458L348.277 314.162C325.002 284.204 277.487 264.903 220.821 264.759C163.477 264.903 113.818 283.799 91.3807 314.204L90.4421 315.495L90.3034 317.042C90.2874 317.218 89.6314 321.959 89.5141 329.298C84.8048 327.415 80.2874 325.175 75.9727 322.61C75.9567 322.599 75.9407 322.594 75.9247 322.583C73.0554 320.871 70.2821 319.015 67.6101 317.015L67.6047 317.01C63.5994 314.012 59.8181 310.706 56.3034 307.122C56.2874 307.106 56.2661 307.084 56.2448 307.063C53.9088 304.679 51.7007 302.178 49.6101 299.564C49.5994 299.543 49.5834 299.527 49.5728 299.511C46.4314 295.57 43.5727 291.372 41.0234 286.946C40.9967 286.903 40.9701 286.86 40.9487 286.818C39.2687 283.895 37.7274 280.871 36.3248 277.756L36.2661 277.612C35.5674 276.044 34.9007 274.46 34.2714 272.85C32.7727 268.999 31.4767 265.026 30.4207 260.935C30.4207 260.919 29.9194 258.674 29.9194 258.674L29.8234 257.959C27.6047 247.618 26.5221 236.716 26.5221 225.522C26.5221 187.863 38.7461 146.818 61.0501 112.343C61.8501 111.132 62.2821 110.471 62.5967 109.975L62.5434 110.076C99.5994 54.6471 155.983 23.0844 221.311 21.2018H223.077C288.005 23.0684 344.154 54.8071 381.194 110.578C381.194 110.583 382.655 112.828 382.655 112.828L382.623 112.898C404.975 147.57 417.013 187.634 417.013 225.074C417.013 236.242 415.935 247.186 413.749 257.682ZM300.202 397.97C275.503 407.628 249.786 409.73 232.581 409.815L226.154 409.826C226.154 409.932 220.543 409.895 220.522 409.895C220.389 409.895 214.799 409.932 214.799 409.932C214.773 409.826 208.319 409.815 208.319 409.815C191.141 409.73 165.418 407.628 140.73 397.97C103.423 383.42 101.839 339.266 101.839 323.82C101.839 321.618 101.882 321.1 101.957 320.188C123.146 295.65 167.642 280.626 220.159 280.492C273.29 280.626 316.751 298.044 337.962 320.508C338.005 321.42 338.058 321.943 338.058 324.146C338.058 339.591 337.535 383.42 300.202 397.97V397.97ZM396.058 104.236L396.053 104.231L396.069 104.146L394.554 101.815C354.501 41.5058 293.765 7.22845 223.477 5.22845L223.365 5.22312H221.023L220.917 5.22845C150.245 7.24445 89.2794 41.3298 49.2581 101.196C49.1727 101.335 47.6741 103.596 47.6741 103.596C16.4741 151.815 3.65808 212.231 14.1967 261.314L14.2127 261.25C14.3727 262.359 14.6074 263.511 14.9168 264.802C17.7488 275.74 21.9941 285.98 27.4234 295.33C27.4288 295.346 27.4341 295.351 27.4448 295.362C29.6101 299.095 31.9621 302.674 34.4954 306.103C34.5007 306.108 34.5061 306.119 34.5114 306.124C35.7594 307.815 37.0501 309.474 38.3834 311.084L38.5274 311.255C41.1941 314.46 44.0154 317.522 46.9861 320.407C47.0394 320.455 47.0928 320.503 47.1461 320.556C48.6021 321.964 50.0954 323.33 51.6261 324.658C51.7381 324.748 51.8501 324.844 51.9568 324.94C55.0341 327.591 58.2554 330.071 61.5994 332.38L61.9087 332.599C63.5461 333.714 65.2048 334.78 66.9008 335.81C67.0768 335.916 67.2474 336.018 67.4234 336.124C70.8634 338.194 74.4154 340.082 78.0794 341.778C78.2287 341.842 78.3781 341.916 78.5274 341.991C80.3141 342.802 82.1221 343.57 83.9568 344.29C84.1861 344.386 84.4101 344.466 84.6394 344.556C86.5167 345.282 88.3994 345.97 90.3194 346.594C92.9434 370.268 103.029 401.436 136.586 413.42C163.199 422.919 190.101 425.938 208.282 426.012C208.319 426.012 214.671 426.039 214.671 426.039C214.799 426.14 220.522 426.119 220.522 426.119L226.154 426.14C226.271 426.039 232.618 426.012 232.618 426.012C250.815 425.938 277.626 422.636 304.341 413.42C335.957 402.514 346.026 371.788 348.922 347.922C350.773 347.383 352.597 346.796 354.394 346.167L355.221 345.868C356.853 345.282 358.463 344.663 360.042 344.007C360.186 343.943 360.33 343.884 360.479 343.82C362.207 343.095 363.909 342.316 365.583 341.506C365.786 341.404 365.983 341.303 366.186 341.202C367.69 340.455 369.173 339.682 370.629 338.871C370.831 338.759 371.034 338.652 371.237 338.535C372.853 337.628 374.437 336.679 375.994 335.703C376.085 335.644 376.175 335.58 376.271 335.527C377.717 334.604 379.135 333.644 380.527 332.668C380.746 332.514 380.965 332.364 381.178 332.215C384.127 330.108 386.959 327.879 389.663 325.538C389.866 325.356 390.079 325.18 390.282 325.004C392.97 322.647 395.546 320.183 397.994 317.623C398.165 317.442 398.341 317.26 398.517 317.079C400.959 314.492 403.279 311.826 405.471 309.084C405.605 308.919 405.727 308.759 405.861 308.594C406.885 307.303 407.871 306.002 408.842 304.679C408.917 304.583 408.986 304.487 409.061 304.386C410.095 302.962 411.103 301.522 412.074 300.066C412.143 299.954 412.218 299.836 412.298 299.73C413.189 298.386 414.047 297.031 414.879 295.666L415.178 295.18C416.074 293.703 416.938 292.22 417.759 290.722C417.765 290.716 417.765 290.711 417.77 290.706C422.431 282.258 425.983 273.612 428.335 265.234L428.458 264.812C428.501 264.652 429.322 261.255 429.322 261.255L429.375 261.015C439.77 211.34 427.317 152.727 396.058 104.236ZM270.346 322.268C269.37 324.796 267.861 325.73 266.191 325.735C264.517 325.74 263.034 324.802 262.037 322.252C261.263 320.274 260.767 317.074 260.762 314.311C260.751 311.484 261.162 308.327 261.957 306.332C262.943 303.868 264.474 302.86 266.111 302.855C267.77 302.85 269.354 304.076 270.346 306.572C271.141 308.556 271.53 311.474 271.541 314.279C271.551 317.058 271.119 320.284 270.346 322.268V322.268ZM266.421 298.183C255.823 297.202 255.839 314.14 255.839 333.682C255.839 353.218 257.413 369.148 266.714 369.052C276.469 368.94 277.722 352.46 277.722 332.935C277.722 313.399 275.631 299.026 266.421 298.183ZM182.303 322.252C181.311 324.802 179.834 325.74 178.154 325.735C176.49 325.73 174.975 324.796 173.999 322.268C173.226 320.284 172.794 317.058 172.799 314.279C172.81 311.474 173.199 308.556 173.999 306.572C174.991 304.076 176.57 302.85 178.229 302.855C179.871 302.86 181.407 303.868 182.389 306.332C183.183 308.327 183.594 311.484 183.583 314.311C183.573 317.074 183.082 320.274 182.303 322.252V322.252ZM177.925 298.183C168.719 299.026 166.623 313.399 166.623 332.935C166.623 352.46 167.877 368.94 177.631 369.052C186.938 369.148 188.511 353.218 188.511 333.682C188.511 314.14 188.527 297.202 177.925 298.183" fill="#181210"/>
</g>
<path d="M158.371 135.377C158.371 144.818 167.606 153.63 182.164 158.598C179.257 173.208 181.643 184.984 189.613 189.572C197.806 194.289 210.01 191.024 221.594 180.915C232.886 190.616 244.298 194.433 252.261 189.831C260.446 185.102 262.935 172.527 259.948 157.461C275.111 152.456 283.593 144.942 283.593 135.377C283.593 126.156 274.342 118.179 259.979 113.243C263.196 97.5541 260.471 86.064 252.17 81.286C244.168 76.6796 232.623 80.6945 221.166 90.6483C209.245 80.0833 197.815 76.8579 189.523 81.6491C181.529 86.2689 179.247 98.2591 182.164 113.139C168.097 118.035 158.371 126.193 158.371 135.377Z" fill="white"/>
<path d="M256.938 118.144C255.754 117.739 254.561 117.363 253.358 117.018C253.557 116.209 253.742 115.397 253.911 114.581C256.621 101.449 254.849 90.8704 248.798 87.388C242.997 84.0481 233.509 87.5305 223.927 95.8547C222.983 96.6768 222.059 97.5226 221.158 98.3913C220.554 97.8137 219.94 97.2473 219.315 96.6924C209.272 87.7909 199.206 84.0403 193.162 87.533C187.366 90.8822 185.649 100.828 188.089 113.272C188.332 114.505 188.606 115.731 188.911 116.949C187.487 117.353 186.111 117.784 184.795 118.241C173.021 122.339 165.502 128.761 165.502 135.422C165.502 142.303 173.574 149.203 185.837 153.387C186.832 153.725 187.835 154.038 188.845 154.326C188.516 155.639 188.225 156.96 187.971 158.289C185.645 170.518 187.462 180.227 193.242 183.556C199.213 186.993 209.233 183.46 218.991 174.946C219.762 174.273 220.536 173.559 221.311 172.811C222.288 173.751 223.29 174.664 224.318 175.549C233.769 183.667 243.104 186.946 248.879 183.609C254.844 180.162 256.782 169.731 254.265 157.04C254.073 156.07 253.85 155.08 253.599 154.072C254.302 153.865 254.993 153.651 255.667 153.428C268.416 149.211 276.71 142.394 276.71 135.422C276.71 128.737 268.949 122.272 256.938 118.144V118.144Z" fill="currentColor"/>
<path d="M254.172 148.926C253.565 149.127 252.94 149.321 252.305 149.51C250.897 145.062 248.997 140.332 246.673 135.446C248.891 130.675 250.717 126.007 252.086 121.587C253.223 121.916 254.327 122.263 255.391 122.629C265.683 126.165 271.96 131.394 271.96 135.422C271.96 139.714 265.18 145.285 254.173 148.926H254.172ZM249.605 157.961C250.718 163.573 250.877 168.646 250.14 172.613C249.477 176.177 248.145 178.552 246.498 179.504C242.994 181.529 235.499 178.897 227.416 171.954C226.489 171.158 225.556 170.308 224.62 169.409C227.753 165.987 230.885 162.01 233.941 157.593C239.318 157.117 244.397 156.338 249.003 155.275C249.23 156.189 249.431 157.085 249.605 157.961V157.961ZM203.415 179.154C199.991 180.361 197.264 180.396 195.616 179.447C192.108 177.428 190.65 169.631 192.639 159.173C192.875 157.938 193.146 156.709 193.451 155.488C198.006 156.493 203.048 157.217 208.437 157.653C211.514 161.975 214.736 165.948 217.983 169.427C217.293 170.093 216.587 170.743 215.865 171.375C211.55 175.14 207.226 177.811 203.416 179.154H203.415ZM187.374 148.9C181.951 147.05 177.473 144.645 174.403 142.022C171.645 139.663 170.252 137.322 170.252 135.422C170.252 131.38 176.29 126.224 186.359 122.72C187.623 122.282 188.899 121.881 190.187 121.517C191.579 126.036 193.404 130.76 195.607 135.538C193.375 140.387 191.524 145.186 190.119 149.758C189.197 149.494 188.282 149.208 187.374 148.9V148.9ZM192.751 112.362C190.661 101.699 192.049 93.6556 195.542 91.6373C199.263 89.4874 207.489 92.5531 216.16 100.239C216.715 100.73 217.271 101.244 217.829 101.776C214.598 105.24 211.406 109.182 208.356 113.479C203.125 113.963 198.118 114.74 193.516 115.781C193.232 114.648 192.977 113.507 192.751 112.361V112.362ZM240.721 124.186C239.634 122.311 238.507 120.46 237.34 118.634C240.888 119.081 244.288 119.676 247.48 120.403C246.522 123.469 245.327 126.676 243.921 129.962C242.893 128.016 241.826 126.09 240.721 124.186V124.186ZM221.159 105.165C223.35 107.535 225.545 110.181 227.704 113.052C223.325 112.845 218.939 112.844 214.56 113.049C216.72 110.205 218.934 107.562 221.159 105.165V105.165ZM201.472 124.218C200.381 126.107 199.334 128.021 198.333 129.959C196.949 126.684 195.765 123.463 194.799 120.353C197.972 119.644 201.355 119.065 204.881 118.625C203.701 120.463 202.564 122.327 201.472 124.218V124.218ZM204.982 152.558C201.34 152.152 197.905 151.602 194.733 150.913C195.715 147.748 196.925 144.458 198.338 141.113C199.344 143.052 200.395 144.967 201.491 146.857C202.609 148.785 203.773 150.686 204.982 152.558V152.558ZM221.291 166.014C219.039 163.589 216.793 160.906 214.6 158.021C216.729 158.104 218.9 158.147 221.106 158.147C223.373 158.147 225.614 158.096 227.819 157.998C225.654 160.936 223.467 163.622 221.291 166.014ZM243.966 140.942C245.452 144.324 246.705 147.596 247.7 150.708C244.476 151.442 240.995 152.034 237.326 152.473C238.502 150.613 239.64 148.729 240.741 146.824C241.859 144.888 242.935 142.926 243.966 140.942V140.942ZM236.625 144.455C234.941 147.376 233.161 150.242 231.29 153.048C227.991 153.283 224.581 153.405 221.106 153.405C217.646 153.405 214.279 153.297 211.037 153.087C209.118 150.288 207.305 147.417 205.602 144.481C203.908 141.56 202.325 138.577 200.858 135.536C202.322 132.495 203.9 129.51 205.588 126.587V126.588C207.276 123.664 209.075 120.806 210.98 118.018C214.288 117.769 217.679 117.638 221.107 117.638C224.55 117.638 227.945 117.77 231.252 118.021C233.138 120.804 234.925 123.653 236.61 126.562C238.304 129.478 239.903 132.449 241.404 135.469C239.919 138.52 238.325 141.517 236.626 144.455H236.625ZM246.426 91.4963C250.149 93.6404 251.598 102.286 249.258 113.624C249.105 114.362 248.938 115.098 248.758 115.831C244.144 114.768 239.134 113.977 233.889 113.486C230.833 109.142 227.667 105.192 224.488 101.774C225.321 100.972 226.174 100.192 227.046 99.4324C235.256 92.2996 242.929 89.4834 246.426 91.4963V91.4963Z" fill="white"/>
<path d="M221.106 125.509C226.591 125.509 231.037 129.948 231.037 135.422C231.037 140.897 226.591 145.336 221.106 145.336C215.622 145.336 211.176 140.897 211.176 135.422C211.176 129.948 215.622 125.509 221.106 125.509" fill="currentColor"/>
</g>
<defs>
<filter id="filter0_d" x="0" y="0" width="442.259" height="436.722" filterUnits="userSpaceOnUse" color-interpolation-filters="sRGB">
<feFlood flood-opacity="0" result="BackgroundImageFix"/>
<feColorMatrix in="SourceAlpha" type="matrix" values="0 0 0 0 0 0 0 0 0 0 0 0 0 0 0 0 0 0 127 0"/>
<feOffset dy="4"/>
<feGaussianBlur stdDeviation="2"/>
<feColorMatrix type="matrix" values="0 0 0 0 0 0 0 0 0 0 0 0 0 0 0 0 0 0 0.25 0"/>
<feBlend mode="normal" in2="BackgroundImageFix" result="effect1_dropShadow"/>
<feBlend mode="normal" in="SourceGraphic" in2="effect1_dropShadow" result="shape"/>
</filter>
<clipPath id="clip0">
<rect width="434.259" height="428.722" fill="white" transform="translate(4)"/>
</clipPath>
</defs>
</svg>
