<svg width="443" height="437" viewBox="0 0 443 437" fill="none" xmlns="http://www.w3.org/2000/svg">
  <g filter="url(#filter0_d)">
    <g clip-path="url(#clip0)">
      <path d="M205.525 13.0669l-38.347 7.9893-37.552 15.9734-38.7466 26.368-25.9626 25.1626-20.7787 31.1628-14.3787 34.347-10.384 33.962 1.1947 41.942 1.6 31.157 15.184 36.347 26.3627 27.962 28.3626 15.979 131.4186 3.995 122.635-4.79 46.341-26.768 25.963-46.73 6.389-58.326-18.373-71.104-30.363-49.1358-35.952-35.152-59.515-31.5573-41.946-9.984-33.152 1.2z" fill="currentColor"/>
      <path d="M201.53 271.114h31.952l49.136 10.784 41.147 15.984 16.773 15.573 4.795 17.179-3.995 25.962-11.978 31.558-28.769 19.178-48.33 11.184-52.331-2.4-50.73-7.989-35.952-21.168-14.3792-34.352-4.3946-27.963 7.1898-15.578 39.946-23.968 31.558-9.19 28.362-4.794z" fill="#FCD7A8"/>
      <path d="M173.566 302.671l-3.594 8.389-.203 8.39 2.197 7.994 4.998 4.192 5.792-2.602 3.589-5.387-.395-11.787-1.6-7.786-2.992-4.192-5.797 1.194-1.995 1.595zM260.847 302.874l-2.394 5.99-.198 6.789.795 6.795 2.997 6.192 7.99.197 5.189-5.792-1.195-10.187-1.6-8.586-3.792-3.195-4.794-1.2-2.998 2.997zM222.655 33.5879c-56.043 0-101.472 44.256-101.472 98.8641 0 54.645 45.429 98.891 101.472 98.891 56.059 0 101.499-44.246 101.499-98.891 0-54.6081-45.44-98.8641-101.499-98.8641zM26.2123 261.848c-.544-2.778-.992-5.296-1.3707-7.637 0 .005-.0053.005-.0053.011-.0374-.23-.064-.422-.096-.646-.1974-1.237-.3787-2.442-.5334-3.578-.0533-.331-.0906-.651-.128-.982-.128-.944-.24-1.861-.3413-2.736a26.71 26.71 0 01-.096-.864 94.3589 94.3589 0 01-.2773-2.88c-.0267-.314-.0534-.618-.0747-.928-.0747-.89-.128-1.754-.176-2.576-.0107-.25-.0267-.496-.0373-.741-.0374-.757-.0694-1.477-.0854-2.187-.0053-.144-.0106-.288-.016-.421-.0213-.805-.0373-1.579-.0426-2.347a25.6993 25.6993 0 01-.0107-.65c-.0053-.726-.0107-1.446-.0107-2.155 0-.912.0054-1.819.0054-2.72 0-34.683 10.7307-71.701 29.744-104.629.0107-.022.0746-.134.1546-.294.1654-.293.4267-.789.7734-1.434 1.456-2.752 4.1867-7.926 4.7253-9.131.1227-.283.2347-.528.3414-.757 4.992 15.056 7.84 31.482 7.84 48.805 0 41.461-15.8294 78.208-40.2827 101.477zM420.384 232.78c0 .107-.005.208-.005.32-.016 1.68-.064 3.446-.155 5.366-.005.08-.005.149-.011.224-.053.949-.117 1.941-.192 2.97-.016.118-.021.23-.032.342-.085 1.072-.181 2.176-.309 3.344-.005.01-.005.026-.011.037-.122 1.147-.272 2.368-.437 3.643-.021.133-.037.266-.059.416-.165 1.226-.352 2.533-.565 3.893-.021.128-.037.235-.059.368v-.011c-.378 2.358-.821 4.896-1.365 7.696-24.165-23.296-39.829-59.808-39.829-101.018 0-17.051 2.768-33.264 7.594-48.139.016.037.032.059.048.091.582 1.301 3.718 7.237 5.051 9.738.347.646.576 1.078.597 1.12 19.019 32.928 29.75 69.947 29.75 104.63v2.613c0 .768 0 1.557-.011 2.357z" fill="#fff"/>
      <path d="M413.749 257.682c-.075.298-.672 2.778-.715 2.944-.037.122-.075.282-.075.282-1.717 6.096-4.234 12.443-7.493 18.768v-.005c-10.864 21.072-30.021 41.76-55.477 51.077-.006.006-.011.006-.016.011.037-8.187-.598-13.573-.614-13.755l-.149-1.546-.933-1.296c-23.275-29.958-70.79-49.259-127.456-49.403-57.344.144-107.003 19.04-129.4403 49.445l-.9386 1.291-.1387 1.547c-.016.176-.672 4.917-.7893 12.256-4.7093-1.883-9.2267-4.123-13.5414-6.688-.016-.011-.032-.016-.048-.027a95.6833 95.6833 0 01-8.3146-5.568l-.0054-.005a98.516 98.516 0 01-11.3013-9.888c-.016-.016-.0373-.038-.0586-.059-2.336-2.384-4.5441-4.885-6.6347-7.499-.0107-.021-.0267-.037-.0373-.053-3.1414-3.941-6.0001-8.139-8.5494-12.565a1.7975 1.7975 0 01-.0747-.128c-1.68-2.923-3.2213-5.947-4.6239-9.062l-.0587-.144c-.6987-1.568-1.3654-3.152-1.9947-4.762-1.4987-3.851-2.7947-7.824-3.8507-11.915 0-.016-.5013-2.261-.5013-2.261l-.096-.715c-2.2187-10.341-3.3013-21.243-3.3013-32.437 0-37.659 12.224-78.704 34.528-113.179.8-1.211 1.232-1.872 1.5466-2.368l-.0533.101c37.056-55.4289 93.4396-86.9916 158.7676-88.8742h1.766c64.928 1.8666 121.077 33.6053 158.117 89.3762 0 .005 1.461 2.25 1.461 2.25l-.032.07c22.352 34.672 34.39 74.736 34.39 112.176 0 11.168-1.078 22.112-3.264 32.608zM300.202 397.97c-24.699 9.658-50.416 11.76-67.621 11.845l-6.427.011c0 .106-5.611.069-5.632.069-.133 0-5.723.037-5.723.037-.026-.106-6.48-.117-6.48-.117-17.178-.085-42.901-2.187-67.589-11.845-37.307-14.55-38.891-58.704-38.891-74.15 0-2.202.043-2.72.118-3.632 21.189-24.538 65.685-39.562 118.202-39.696 53.131.134 96.592 17.552 117.803 40.016.043.912.096 1.435.096 3.638 0 15.445-.523 59.274-37.856 73.824zm95.856-293.734l-.005-.005.016-.085-1.515-2.331C354.501 41.5058 293.765 7.2284 223.477 5.2284l-.112-.0053h-2.342l-.106.0053C150.245 7.2444 89.2794 41.3299 49.2581 101.196c-.0854.139-1.584 2.4-1.584 2.4-31.2 48.219-44.016 108.635-33.4774 157.718l.016-.064c.16 1.109.3947 2.261.7041 3.552 2.832 10.938 7.0773 21.178 12.5066 30.528.0054.016.0107.021.0214.032a116.0646 116.0646 0 007.0506 10.741c.0053.005.0107.016.016.021 1.248 1.691 2.5387 3.35 3.872 4.96l.144.171c2.6667 3.205 5.488 6.267 8.4587 9.152.0533.048.1067.096.16.149a112.3925 112.3925 0 004.48 4.102c.112.09.224.186.3307.282 3.0773 2.651 6.2986 5.131 9.6426 7.44l.3093.219a113.8281 113.8281 0 004.9921 3.211c.176.106.3466.208.5226.314 3.44 2.07 6.992 3.958 10.656 5.654.1493.064.2987.138.448.213 1.7867.811 3.5947 1.579 5.4294 2.299.2293.096.4533.176.6826.266 1.8773.726 3.76 1.414 5.68 2.038 2.624 23.674 12.7096 54.842 46.2666 66.826 26.613 9.499 53.515 12.518 71.696 12.592.037 0 6.389.027 6.389.027.128.101 5.851.08 5.851.08l5.632.021c.117-.101 6.464-.128 6.464-.128 18.197-.074 45.008-3.376 71.723-12.592 31.616-10.906 41.685-41.632 44.581-65.498 1.851-.539 3.675-1.126 5.472-1.755l.827-.299c1.632-.586 3.242-1.205 4.821-1.861.144-.064.288-.123.437-.187 1.728-.725 3.43-1.504 5.104-2.314.203-.102.4-.203.603-.304 1.504-.747 2.987-1.52 4.443-2.331.202-.112.405-.219.608-.336 1.616-.907 3.2-1.856 4.757-2.832.091-.059.181-.123.277-.176 1.446-.923 2.864-1.883 4.256-2.859.219-.154.438-.304.651-.453 2.949-2.107 5.781-4.336 8.485-6.677.203-.182.416-.358.619-.534 2.688-2.357 5.264-4.821 7.712-7.381.171-.181.347-.363.523-.544 2.442-2.587 4.762-5.253 6.954-7.995.134-.165.256-.325.39-.49 1.024-1.291 2.01-2.592 2.981-3.915.075-.096.144-.192.219-.293 1.034-1.424 2.042-2.864 3.013-4.32.069-.112.144-.23.224-.336.891-1.344 1.749-2.699 2.581-4.064l.299-.486c.896-1.477 1.76-2.96 2.581-4.458.006-.006.006-.011.011-.016 4.661-8.448 8.213-17.094 10.565-25.472l.123-.422c.043-.16.864-3.557.864-3.557l.053-.24c10.395-49.675-2.058-108.288-33.317-156.779zM270.346 322.268c-.976 2.528-2.485 3.462-4.155 3.467-1.674.005-3.157-.933-4.154-3.483-.774-1.978-1.27-5.178-1.275-7.941-.011-2.827.4-5.984 1.195-7.979.986-2.464 2.517-3.472 4.154-3.477 1.659-.005 3.243 1.221 4.235 3.717.795 1.984 1.184 4.902 1.195 7.707.01 2.779-.422 6.005-1.195 7.989zm-3.925-24.085c-10.598-.981-10.582 15.957-10.582 35.499 0 19.536 1.574 35.466 10.875 35.37 9.755-.112 11.008-16.592 11.008-36.117 0-19.536-2.091-33.909-11.301-34.752zm-84.118 24.069c-.992 2.55-2.469 3.488-4.149 3.483-1.664-.005-3.179-.939-4.155-3.467-.773-1.984-1.205-5.21-1.2-7.989.011-2.805.4-5.723 1.2-7.707.992-2.496 2.571-3.722 4.23-3.717 1.642.005 3.178 1.013 4.16 3.477.794 1.995 1.205 5.152 1.194 7.979-.01 2.763-.501 5.963-1.28 7.941zm-4.378-24.069c-9.206.843-11.302 15.216-11.302 34.752 0 19.525 1.254 36.005 11.008 36.117 9.307.096 10.88-15.834 10.88-35.37 0-19.542.016-36.48-10.586-35.499" fill="#181210"/>
    </g>
    <path d="M158.371 135.377c0 9.441 9.235 18.253 23.793 23.221-2.907 14.61-.521 26.386 7.449 30.974 8.193 4.717 20.397 1.452 31.981-8.657 11.292 9.701 22.704 13.518 30.667 8.916 8.185-4.729 10.674-17.304 7.687-32.37 15.163-5.005 23.645-12.519 23.645-22.084 0-9.221-9.251-17.198-23.614-22.134 3.217-15.6889.492-27.179-7.809-31.957-8.002-4.6064-19.547-.5915-31.004 9.3623-11.921-10.565-23.351-13.7904-31.643-8.9992-7.994 4.6198-10.276 16.61-7.359 31.4899-14.067 4.896-23.793 13.054-23.793 22.238z" fill="#fff"/>
    <path d="M256.938 118.144a74.6071 74.6071 0 00-3.58-1.126c.199-.809.384-1.621.553-2.437 2.71-13.132.938-23.7106-5.113-27.193-5.801-3.3399-15.289.1425-24.871 8.4667a74.1446 74.1446 0 00-2.769 2.5366 67.7302 67.7302 0 00-1.843-1.6989c-10.043-8.9015-20.109-12.6521-26.153-9.1594-5.796 3.3492-7.513 13.295-5.073 25.739.243 1.233.517 2.459.822 3.677-1.424.404-2.8.835-4.116 1.292-11.774 4.098-19.293 10.52-19.293 17.181 0 6.881 8.072 13.781 20.335 17.965.995.338 1.998.651 3.008.939-.329 1.313-.62 2.634-.874 3.963-2.326 12.229-.509 21.938 5.271 25.267 5.971 3.437 15.991-.096 25.749-8.61.771-.673 1.545-1.387 2.32-2.135.977.94 1.979 1.853 3.007 2.738 9.451 8.118 18.786 11.397 24.561 8.06 5.965-3.447 7.903-13.878 5.386-26.569-.192-.97-.415-1.96-.666-2.968.703-.207 1.394-.421 2.068-.644 12.749-4.217 21.043-11.034 21.043-18.006 0-6.685-7.761-13.15-19.772-17.278z" fill="currentColor"/>
    <path d="M254.172 148.926c-.607.201-1.232.395-1.867.584-1.408-4.448-3.308-9.178-5.632-14.064 2.218-4.771 4.044-9.439 5.413-13.859 1.137.329 2.241.676 3.305 1.042 10.292 3.536 16.569 8.765 16.569 12.793 0 4.292-6.78 9.863-17.787 13.504h-.001zm-4.567 9.035c1.113 5.612 1.272 10.685.535 14.652-.663 3.564-1.995 5.939-3.642 6.891-3.504 2.025-10.999-.607-19.082-7.55-.927-.796-1.86-1.646-2.796-2.545 3.133-3.422 6.265-7.399 9.321-11.816 5.377-.476 10.456-1.255 15.062-2.318.227.914.428 1.81.602 2.686zm-46.19 21.193c-3.424 1.207-6.151 1.242-7.799.293-3.508-2.019-4.966-9.816-2.977-20.274.236-1.235.507-2.464.812-3.685 4.555 1.005 9.597 1.729 14.986 2.165 3.077 4.322 6.299 8.295 9.546 11.774-.69.666-1.396 1.316-2.118 1.948-4.315 3.765-8.639 6.436-12.449 7.779h-.001zM187.374 148.9c-5.423-1.85-9.901-4.255-12.971-6.878-2.758-2.359-4.151-4.7-4.151-6.6 0-4.042 6.038-9.198 16.107-12.702a69.006 69.006 0 013.828-1.203c1.392 4.519 3.217 9.243 5.42 14.021-2.232 4.849-4.083 9.648-5.488 14.22-.922-.264-1.837-.55-2.745-.858zm5.377-36.538c-2.09-10.663-.702-18.7064 2.791-20.7247 3.721-2.1499 11.947.9158 20.618 8.6017.555.491 1.111 1.005 1.669 1.537-3.231 3.464-6.423 7.406-9.473 11.703-5.231.484-10.238 1.261-14.84 2.302a68.8863 68.8863 0 01-.765-3.42v.001zm47.97 11.824a150.1592 150.1592 0 00-3.381-5.552c3.548.447 6.948 1.042 10.14 1.769-.958 3.066-2.153 6.273-3.559 9.559a165.7263 165.7263 0 00-3.2-5.776zm-19.562-19.021c2.191 2.37 4.386 5.016 6.545 7.887-4.379-.207-8.765-.208-13.144-.003 2.16-2.844 4.374-5.487 6.599-7.884zm-19.687 19.053a139.2816 139.2816 0 00-3.139 5.741c-1.384-3.275-2.568-6.496-3.534-9.606 3.173-.709 6.556-1.288 10.082-1.728-1.18 1.838-2.317 3.702-3.409 5.593zm3.51 28.34c-3.642-.406-7.077-.956-10.249-1.645.982-3.165 2.192-6.455 3.605-9.8a139.4318 139.4318 0 006.644 11.445zm16.309 13.456c-2.252-2.425-4.498-5.108-6.691-7.993 2.129.083 4.3.126 6.506.126 2.267 0 4.508-.051 6.713-.149-2.165 2.938-4.352 5.624-6.528 8.016zm22.675-25.072c1.486 3.382 2.739 6.654 3.734 9.766-3.224.734-6.705 1.326-10.374 1.765 1.176-1.86 2.314-3.744 3.415-5.649a150.976 150.976 0 003.225-5.882zm-7.341 3.513a155.3763 155.3763 0 01-5.335 8.593c-3.299.235-6.709.357-10.184.357-3.46 0-6.827-.108-10.069-.318-1.919-2.799-3.732-5.67-5.435-8.606a133.1375 133.1375 0 01-4.744-8.945c1.464-3.041 3.042-6.026 4.73-8.949v.001a133.486 133.486 0 015.392-8.57c3.308-.249 6.699-.38 10.127-.38 3.443 0 6.838.132 10.145.383 1.886 2.783 3.673 5.632 5.358 8.541 1.694 2.916 3.293 5.887 4.794 8.907a142.7135 142.7135 0 01-4.778 8.986h-.001zm9.801-52.9587c3.723 2.1441 5.172 10.7897 2.832 22.1277-.153.738-.32 1.474-.5 2.207-4.614-1.063-9.624-1.854-14.869-2.345-3.056-4.344-6.222-8.294-9.401-11.712a69.598 69.598 0 012.558-2.3416c8.21-7.1328 15.883-9.949 19.38-7.9361z" fill="#fff"/>
    <path d="M221.106 125.509c5.485 0 9.931 4.439 9.931 9.913 0 5.475-4.446 9.914-9.931 9.914-5.484 0-9.93-4.439-9.93-9.914 0-5.474 4.446-9.913 9.93-9.913" fill="currentColor"/>
  </g>
  <defs>
    <clipPath id="clip0">
      <path fill="#fff" transform="translate(4)" d="M0 0h434.259v428.722H0z"/>
    </clipPath>
    <filter id="filter0_d" x="0" y="0" width="442.259" height="436.722" filterUnits="userSpaceOnUse" color-interpolation-filters="sRGB">
      <feFlood flood-opacity="0" result="BackgroundImageFix"/>
      <feColorMatrix in="SourceAlpha" values="0 0 0 0 0 0 0 0 0 0 0 0 0 0 0 0 0 0 127 0"/>
      <feOffset dy="4"/>
      <feGaussianBlur stdDeviation="2"/>
      <feColorMatrix values="0 0 0 0 0 0 0 0 0 0 0 0 0 0 0 0 0 0 0.25 0"/>
      <feBlend in2="BackgroundImageFix" result="effect1_dropShadow"/>
      <feBlend in="SourceGraphic" in2="effect1_dropShadow" result="shape"/>
    </filter>
  </defs>
</svg>